# Blender v3.4.1 OBJ File: 'floor_stairs.blend'
# www.blender.org
mtllib floor_stairs.mtl
o Cube.001
v -11.976666 -0.625000 23.761436
v -11.976666 1.125000 23.761436
v -11.976666 -0.625000 0.698936
v -11.976666 1.125000 0.698936
v 10.773335 -0.625000 23.761436
v 10.773335 1.125000 23.761436
v 10.773335 -0.625000 0.698936
v 10.773335 1.125000 0.698936
vt 0.039062 1.000000
vt 0.078125 1.000000
vt 0.078125 0.500000
vt 0.039062 0.500000
vt 0.117188 1.000000
vt 0.156250 1.000000
vt 0.156250 0.500000
vt 0.117188 0.500000
vt 0.000000 0.500000
vt 0.039062 0.500000
vt 0.039062 1.000000
vt 0.000000 1.000000
vt 0.078125 0.500000
vt 0.117188 0.500000
vt 0.117188 1.000000
vt 0.078125 1.000000
vt 0.984375 0.000000
vt 0.492188 0.000000
vt 0.492188 0.500000
vt 0.984375 0.500000
vt 0.000000 0.000000
vt 0.492188 0.000000
vt 0.492188 0.500000
vt 0.000000 0.500000
vn -1.0000 0.0000 0.0000
vn 0.0000 0.0000 -1.0000
vn 1.0000 0.0000 0.0000
vn 0.0000 0.0000 1.0000
vn 0.0000 -1.0000 0.0000
vn 0.0000 1.0000 0.0000
usemtl Material.001
s off
f 1/1/1 2/2/1 4/3/1 3/4/1
f 3/5/2 4/6/2 8/7/2 7/8/2
f 7/9/3 8/10/3 6/11/3 5/12/3
f 5/13/4 6/14/4 2/15/4 1/16/4
f 3/17/5 7/18/5 5/19/5 1/20/5
f 8/21/6 4/22/6 2/23/6 6/24/6
