# Blender v3.1.2 OBJ File: 'Lamp.blend'
# www.blender.org
mtllib Lamp.mtl
o Cube
v 0.430790 1.086470 -2.258272
v 0.430790 0.839306 -2.258272
v 0.430790 1.086470 2.437842
v 0.430790 0.839306 2.437842
v -0.434284 1.086470 -2.258272
v -0.434284 0.839306 -2.258272
v -0.434284 1.086470 2.437842
v -0.434284 0.839306 2.437842
v -0.434284 0.839306 2.437503
v 0.430790 1.086470 2.437503
v -0.434284 1.086470 2.437503
v 0.430790 0.839306 2.437503
v -0.434284 1.086470 -2.257529
v 0.430790 0.839306 -2.257529
v -0.434284 0.839306 -2.257529
v 0.430790 1.086470 -2.257529
v -0.311088 0.839306 -2.505436
v -0.311088 1.086470 2.685006
v -0.311088 0.839306 2.685006
v -0.311088 1.086470 -2.505436
v -0.311088 0.715724 2.437503
v -0.311088 1.086470 2.437503
v -0.311088 1.086470 -2.257529
v -0.311088 0.715724 -2.257529
v 0.308026 0.839306 2.685006
v 0.308026 1.086470 -2.505436
v 0.308026 1.086470 2.437503
v 0.308026 1.086470 -2.257529
v 0.308026 0.839306 -2.505436
v 0.308026 1.086470 2.685006
v 0.308026 0.715724 2.437503
v 0.308026 0.715724 -2.257529
vt 0.145833 0.947917
vt 0.166667 0.947917
vt 0.166667 0.947917
vt 0.145833 1.000000
vt 0.468750 0.000000
vt 0.416667 0.000000
vt 0.416667 0.052083
vt 0.468750 0.052083
vt 0.406250 0.947917
vt 0.354167 0.947917
vt 0.354167 0.947917
vt 0.406250 0.947917
vt 0.375000 0.052083
vt 0.354167 0.052083
vt 0.354167 0.052083
vt 0.354167 0.000000
vt 0.333333 0.052083
vt 0.291667 0.052083
vt 0.291667 0.052083
vt 0.333333 0.052083
vt 0.343750 1.000000
vt 0.291667 1.000000
vt 0.291667 0.947917
vt 0.343750 0.947917
vt 0.343750 0.947917
vt 0.291667 0.947917
vt 0.343750 0.052083
vt 0.375000 0.947917
vt 0.354167 0.947917
vt 0.406250 0.052083
vt 0.354167 0.052083
vt 0.354167 0.052083
vt 0.406250 0.052083
vt 0.145833 0.052083
vt 0.166667 0.052083
vt 0.145833 0.000000
vt 0.166667 0.052083
vt 0.354167 1.000000
vt 0.354167 0.947917
vt 0.333333 0.947917
vt 0.333333 0.947917
vt 0.468750 0.052083
vt 0.416667 0.052083
vt 0.416667 0.947917
vt 0.468750 0.947917
vt 0.468750 0.947917
vt 0.468750 1.000000
vt 0.489583 0.947917
vt 0.020833 0.000000
vt 0.020833 0.052083
vt 0.020833 0.947917
vt 0.489583 0.052083
vt 0.416667 0.947917
vt 0.416667 1.000000
vt 0.604167 0.135417
vt 0.656250 0.135417
vt 0.656250 0.250000
vt 0.604167 0.250000
vt 0.020833 1.000000
vt 0.000000 0.947917
vt 0.000000 0.947917
vt 0.343750 0.052083
vt 0.291667 0.000000
vt 0.343750 0.000000
vt 0.000000 0.052083
vt 0.000000 0.052083
vt 0.281250 0.000000
vt 0.166667 0.000000
vt 0.166667 0.052083
vt 0.281250 0.052083
vt 0.166667 0.947917
vt 0.281250 0.947917
vt 0.604167 0.114583
vt 0.656250 0.114583
vt 0.656250 0.000000
vt 0.604167 0.000000
vt 0.166667 1.000000
vt 0.281250 1.000000
vn 0.0000 1.0000 0.0000
vn -0.8950 0.0000 0.4461
vn -1.0000 0.0000 0.0000
vn 0.6688 -0.6653 0.3317
vn 1.0000 0.0000 0.0000
vn 0.8956 0.0000 -0.4448
vn 0.7095 -0.7048 0.0000
vn 0.6685 -0.6660 -0.3310
vn -0.6672 -0.6671 -0.3315
vn -0.7082 -0.7060 0.0000
vn -0.8950 0.0000 -0.4461
vn -0.6675 -0.6663 0.3323
vn 0.0000 0.0000 1.0000
vn 0.8956 0.0000 0.4448
vn 0.0000 -0.8950 -0.4461
vn 0.0000 -1.0000 0.0000
vn 0.0000 0.0000 -1.0000
vn 0.0000 -0.8947 0.4467
usemtl Material
s off
f 22/1/1 11/2/1 7/3/1 18/4/1
f 19/5/2 18/6/2 7/7/2 8/8/2
f 15/9/3 13/10/3 5/11/3 6/12/3
f 31/13/4 12/14/4 4/15/4 25/16/4
f 12/17/5 10/18/5 3/19/5 4/20/5
f 29/21/6 26/22/6 1/23/6 2/24/6
f 14/25/5 16/26/5 10/18/5 12/27/5
f 32/28/7 14/29/7 12/14/7 31/13/7
f 8/30/3 7/31/3 11/32/3 9/33/3
f 23/34/1 13/35/1 11/2/1 22/1/1
f 20/36/1 5/37/1 13/35/1 23/34/1
f 29/38/8 2/39/8 14/29/8 32/28/8
f 2/40/5 1/23/5 16/26/5 14/41/5
f 9/42/3 11/43/3 13/44/3 15/45/3
f 6/46/9 17/47/9 24/48/9 15/45/9
f 26/49/1 20/36/1 23/34/1 28/50/1
f 28/50/1 23/34/1 22/1/1 27/51/1
f 15/45/10 24/48/10 21/52/10 9/42/10
f 6/46/11 5/53/11 20/54/11 17/47/11
f 9/42/12 21/52/12 19/5/12 8/8/12
f 25/55/13 30/56/13 18/57/13 19/58/13
f 27/51/1 22/1/1 18/4/1 30/59/1
f 10/60/1 27/51/1 30/59/1 3/61/1
f 4/62/14 3/19/14 30/63/14 25/64/14
f 16/65/1 28/50/1 27/51/1 10/60/1
f 1/66/1 26/49/1 28/50/1 16/65/1
f 17/67/15 29/68/15 32/69/15 24/70/15
f 24/70/16 32/69/16 31/71/16 21/72/16
f 17/73/17 20/74/17 26/75/17 29/76/17
f 21/72/18 31/71/18 25/77/18 19/78/18
