# Blender v3.1.2 OBJ File: 'floor_stairs.blend'
# www.blender.org
mtllib Wall_stairs.mtl
o Cube.047
v -10.081219 -21.250000 -37.158718
v -10.081219 -21.250000 -35.283718
v -10.081219 -4.999999 -37.158718
v -10.081219 -4.999999 -35.283718
v 12.418781 -21.250000 -37.158718
v 12.418781 -21.250000 -35.283718
v 12.418781 -4.999999 -37.158718
v 12.418781 -4.999999 -35.283718
v 4.902617 -4.999999 -37.158718
v 4.902617 -4.999999 -35.283718
v 4.902617 -21.250000 -37.158718
v 4.902617 -21.250000 -35.283718
v -2.589301 -4.999999 -37.158718
v -2.589301 -21.250000 -35.283718
v -2.589301 -4.999999 -35.283718
v -2.589301 -21.250000 -37.158718
v -10.081219 -9.378742 -37.158718
v -10.081219 -9.378742 -35.283718
v 12.418781 -9.378742 -37.158718
v 12.418781 -9.378742 -35.283718
v 4.902617 -9.378742 -35.283718
v 4.902617 -9.378742 -37.158718
v -2.589301 -9.378742 -37.158718
v -2.589301 -9.378742 -35.283718
v -10.081219 -17.494806 -37.158718
v 12.418781 -17.494806 -35.283718
v 4.902617 -17.494806 -35.283718
v 4.902617 -17.494806 -37.158718
v -2.589301 -17.494806 -37.158718
v -2.589301 -17.494806 -35.283718
v -10.081219 -17.494806 -35.283718
v 12.418781 -17.494806 -37.158718
v -2.589301 -16.182306 -35.283718
v 4.902617 -16.182306 -35.283718
v 4.902617 -16.182306 -37.158718
v -2.589301 -16.182306 -37.158718
v -2.698297 -9.450481 -36.640717
v -2.698297 -9.262981 -36.640717
v -2.698297 -9.450481 -36.765717
v -2.698297 -9.262981 -36.765717
v -0.260796 -9.450481 -36.640717
v -0.260796 -9.262981 -36.640717
v -0.260796 -9.450481 -36.765717
v -0.260796 -9.262981 -36.765717
v -0.073297 -9.262981 -36.765717
v -0.073297 -9.450481 -36.765717
v -0.073297 -9.450481 -36.640717
v -0.073297 -9.262981 -36.640717
v 2.364204 -9.262981 -36.765717
v 2.364204 -9.450481 -36.765717
v 2.364204 -9.450481 -36.640717
v 2.364204 -9.262981 -36.640717
v 2.551703 -9.262981 -36.765717
v 2.551703 -9.450481 -36.765717
v 2.551703 -9.450481 -36.640717
v 2.551703 -9.262981 -36.640717
v 4.989204 -9.262981 -36.765717
v 4.989204 -9.450481 -36.765717
v 4.989204 -9.450481 -36.640717
v 4.989204 -9.262981 -36.640717
v -0.260796 -11.325481 -36.640717
v -0.260796 -11.325481 -36.765717
v -0.073297 -11.325481 -36.640717
v -0.073297 -11.325481 -36.765717
v 2.364204 -11.325481 -36.640717
v 2.364204 -11.325481 -36.765717
v 2.551703 -11.325481 -36.640717
v 2.551703 -11.325481 -36.765717
v -2.509343 -9.450481 -36.765717
v -2.509343 -9.262981 -36.765717
v -2.509343 -9.450481 -36.640717
v -2.509343 -9.262981 -36.640717
v 4.804974 -9.262981 -36.640717
v 4.804974 -9.262981 -36.765717
v 4.804974 -9.450481 -36.765717
v 4.804974 -9.450481 -36.640717
v -2.698297 -11.325481 -36.765717
v -2.698297 -11.325481 -36.640717
v -2.509343 -11.325481 -36.765717
v 4.989204 -11.325481 -36.640717
v 4.989204 -11.325481 -36.765717
v 4.804974 -11.325481 -36.640717
v -2.509343 -11.325481 -36.640717
v 4.804974 -11.325481 -36.765717
v -0.260796 -11.204079 -36.640717
v -0.073297 -11.204079 -36.640717
v -0.073297 -11.204079 -36.765717
v -0.260796 -11.204079 -36.765717
v 2.551703 -11.204079 -36.765717
v 2.364204 -11.204079 -36.765717
v 2.364204 -11.204079 -36.640717
v 2.551703 -11.204079 -36.640717
v 2.364204 -11.325481 -36.640717
v 2.364204 -11.325481 -36.765717
v 2.364204 -11.204079 -36.640717
v 2.364204 -11.204079 -36.765717
v 4.801704 -11.325481 -36.640717
v 4.801704 -11.325481 -36.765717
v 4.801704 -11.204079 -36.765717
v 4.801704 -11.204079 -36.640717
v -2.510797 -11.325481 -36.640717
v -2.510797 -11.325481 -36.765717
v -2.510797 -11.204079 -36.640717
v -2.510797 -11.204079 -36.765717
v -0.260796 -16.262981 -36.640717
v -0.260796 -16.262981 -36.765717
v -0.073297 -16.262981 -36.640717
v -0.073297 -16.262981 -36.765717
v 2.364204 -16.262981 -36.640717
v 2.364204 -16.262981 -36.765717
v 2.551703 -16.262981 -36.640717
v 2.551703 -16.262981 -36.765717
v -2.698297 -16.262981 -36.765717
v -2.698297 -16.262981 -36.640717
v -2.509343 -16.262981 -36.765717
v 4.989204 -16.262981 -36.640717
v 4.989204 -16.262981 -36.765717
v 4.804974 -16.262981 -36.640717
v -2.509343 -16.262981 -36.640717
v 4.804974 -16.262981 -36.765717
v -0.260796 -16.121910 -36.765717
v -0.260796 -16.121910 -36.640717
v -0.073297 -16.121910 -36.640717
v -0.073297 -16.121910 -36.765717
v 2.364204 -16.126614 -36.765717
v 2.364204 -16.126614 -36.640717
v 2.551703 -16.126614 -36.640717
v 2.551703 -16.126614 -36.765717
v 2.364204 -16.262981 -36.640717
v 2.364204 -16.262981 -36.765717
v 2.364204 -16.121910 -36.640717
v 2.364204 -16.121910 -36.765717
v 4.812072 -16.262981 -36.640717
v 4.812072 -16.262981 -36.765717
v 4.812072 -16.126614 -36.640717
v 4.812072 -16.126614 -36.765717
v -2.510797 -16.262981 -36.640717
v -2.510797 -16.262981 -36.765717
v -2.510797 -16.121910 -36.765717
v -2.510797 -16.121910 -36.640717
vt 0.953125 0.546875
vt 1.000000 0.546875
vt 1.000000 0.421875
vt 0.953125 0.421875
vt 0.906250 0.390625
vt 0.843750 0.390625
vt 0.843750 0.593750
vt 0.906250 0.593750
vt 1.000000 0.093750
vt 0.953125 0.093750
vt 0.953125 0.000000
vt 1.000000 0.000000
vt 0.953125 0.203125
vt 0.906250 0.203125
vt 0.906250 0.000000
vt 0.953125 0.000000
vt 0.093750 0.203125
vt 0.093750 0.000000
vt 0.000000 0.000000
vt 0.000000 0.203125
vt 0.750000 0.203125
vt 0.750000 0.000000
vt 0.843750 0.000000
vt 0.843750 0.203125
vt 0.750000 0.593750
vt 0.750000 0.390625
vt 0.843750 0.390625
vt 0.843750 0.593750
vt 0.093750 0.390625
vt 0.000000 0.390625
vt 0.953125 0.593750
vt 0.906250 0.593750
vt 0.906250 0.390625
vt 0.953125 0.390625
vt 0.906250 0.203125
vt 0.843750 0.203125
vt 0.906250 0.000000
vt 0.843750 0.000000
vt 0.093750 0.593750
vt 0.000000 0.593750
vt 0.421875 0.390625
vt 0.421875 0.203125
vt 0.546875 0.203125
vt 0.546875 0.390625
vt 0.421875 0.593750
vt 0.421875 0.390625
vt 0.312500 0.390625
vt 0.312500 0.593750
vt 0.421875 0.203125
vt 0.312500 0.203125
vt 0.421875 0.593750
vt 0.546875 0.593750
vt 0.421875 0.000000
vt 0.546875 0.000000
vt 0.421875 0.000000
vt 0.312500 0.000000
vt 1.000000 0.421875
vt 0.953125 0.421875
vt 0.953125 0.312500
vt 1.000000 0.312500
vt 0.953125 0.750000
vt 1.000000 0.750000
vt 0.953125 0.843750
vt 1.000000 0.843750
vt 0.531250 0.593750
vt 0.531250 0.781250
vt 0.468750 0.781250
vt 0.468750 0.593750
vt 0.421875 0.593750
vt 0.421875 0.796875
vt 0.375000 0.796875
vt 0.375000 0.593750
vt 0.421875 0.593750
vt 0.421875 0.796875
vt 0.468750 0.796875
vt 0.468750 0.593750
vt 0.421875 0.765625
vt 0.468750 0.765625
vt 0.570312 0.781250
vt 0.570312 0.593750
vt 0.523438 0.593750
vt 0.523438 0.781250
vt 0.140625 0.390625
vt 0.140625 0.203125
vt 0.718750 0.390625
vt 0.718750 0.203125
vt 0.421875 0.765625
vt 0.375000 0.765625
vt 0.578125 0.593750
vt 0.578125 0.593750
vt 0.578125 0.593750
vt 0.578125 0.593750
vt 0.187500 0.593750
vt 0.187500 0.593750
vt 0.187500 0.656250
vt 0.187500 0.656250
vt 0.375000 0.656250
vt 0.375000 0.656250
vt 0.375000 0.656250
vt 0.375000 0.656250
vt 0.000000 0.593750
vt 0.000000 0.593750
vt 0.000000 0.593750
vt 0.000000 0.593750
vt 0.656250 0.593750
vt 0.656250 0.640625
vt 0.656250 0.640625
vt 0.656250 0.593750
vt 0.375000 0.593750
vt 0.375000 0.593750
vt 0.375000 0.593750
vt 0.375000 0.593750
vt 0.375000 0.718750
vt 0.375000 0.718750
vt 0.187500 0.656250
vt 0.187500 0.656250
vt 0.000000 0.656250
vt 0.000000 0.656250
vt 0.000000 0.656250
vt 0.000000 0.656250
vt 0.046875 0.734375
vt 0.046875 0.718750
vt 0.046875 0.718750
vt 0.046875 0.734375
vt 0.000000 0.718750
vt 0.000000 0.718750
vt 0.000000 0.734375
vt 0.000000 0.734375
vt 0.187500 0.718750
vt 0.187500 0.718750
vt 0.609375 0.593750
vt 0.609375 0.593750
vt 0.609375 0.656250
vt 0.609375 0.656250
vt 0.375000 0.781250
vt 0.375000 0.781250
vt 0.375000 0.796875
vt 0.375000 0.796875
vt 0.234375 0.718750
vt 0.234375 0.734375
vt 0.234375 0.734375
vt 0.234375 0.718750
vt 0.375000 0.734375
vt 0.375000 0.734375
vt 0.187500 0.734375
vt 0.187500 0.734375
vt 0.375000 0.593750
vt 0.375000 0.593750
vt 0.375000 0.593750
vt 0.375000 0.593750
vt 0.187500 0.781250
vt 0.187500 0.781250
vt 0.187500 0.796875
vt 0.187500 0.796875
vt 0.000000 0.781250
vt 0.000000 0.781250
vt 0.000000 0.796875
vt 0.000000 0.796875
vt 0.046875 0.781250
vt 0.046875 0.796875
vt 0.187500 0.781250
vt 0.187500 0.796875
vt 0.187500 0.734375
vt 0.187500 0.734375
vt 0.187500 0.781250
vt 0.187500 0.781250
vt 0.593750 0.640625
vt 0.593750 0.640625
vt 0.593750 0.640625
vt 0.593750 0.640625
vt 0.046875 0.656250
vt 0.046875 0.656250
vt 0.046875 0.656250
vt 0.046875 0.656250
vt 0.046875 0.718750
vt 0.046875 0.718750
vt 0.640625 0.593750
vt 0.640625 0.593750
vt 0.640625 0.640625
vt 0.640625 0.640625
vt 0.656250 0.640625
vt 0.640625 0.640625
vt 0.640625 0.593750
vt 0.656250 0.593750
vt 0.234375 0.656250
vt 0.218750 0.656250
vt 0.234375 0.656250
vt 0.218750 0.656250
vt 0.578125 0.593750
vt 0.578125 0.593750
vt 0.578125 0.640625
vt 0.578125 0.640625
vt 0.187500 0.593750
vt 0.187500 0.593750
vt 0.625000 0.593750
vt 0.625000 0.593750
vt 0.625000 0.640625
vt 0.625000 0.640625
vt 0.375000 0.640625
vt 0.375000 0.640625
vt 0.375000 0.765625
vt 0.375000 0.765625
vt 0.593750 0.765625
vt 0.593750 0.765625
vt 0.593750 0.765625
vt 0.593750 0.765625
vt 0.578125 0.593750
vt 0.578125 0.593750
vt 0.578125 0.640625
vt 0.578125 0.640625
vt 0.234375 0.796875
vt 0.234375 0.781250
vt 0.234375 0.593750
vt 0.234375 0.593750
vt 0.578125 0.640625
vt 0.578125 0.640625
vt 0.046875 0.593750
vt 0.046875 0.593750
vt 0.671875 0.640625
vt 0.671875 0.593750
vt 0.656250 0.593750
vt 0.656250 0.640625
vt 0.656250 0.640625
vt 0.656250 0.593750
vt 0.656250 0.593750
vt 0.656250 0.640625
vt 0.656250 0.640625
vt 0.656250 0.593750
vt 0.656250 0.593750
vt 0.593750 0.593750
vt 0.593750 0.593750
vt 0.656250 0.656250
vt 0.656250 0.656250
vt 0.656250 0.656250
vt 0.656250 0.656250
vt 0.609375 0.593750
vt 0.625000 0.593750
vt 0.625000 0.656250
vt 0.609375 0.656250
vt 0.609375 0.593750
vt 0.609375 0.593750
vt 0.609375 0.656250
vt 0.609375 0.656250
vt 0.218750 0.718750
vt 0.234375 0.718750
vt 0.625000 0.656250
vt 0.625000 0.656250
vt 0.625000 0.656250
vt 0.625000 0.656250
vt 0.640625 0.593750
vt 0.625000 0.593750
vt 0.625000 0.640625
vt 0.640625 0.640625
vt 0.234375 0.781250
vt 0.234375 0.781250
vt 0.046875 0.781250
vt 0.046875 0.781250
vt 0.625000 0.656250
vt 0.625000 0.656250
vt 0.625000 0.656250
vt 0.625000 0.656250
vt 0.640625 0.640625
vt 0.640625 0.640625
vt 0.640625 0.593750
vt 0.640625 0.593750
vt 0.046875 0.593750
vt 0.046875 0.593750
vt 0.218750 0.593750
vt 0.234375 0.593750
vt 0.593750 0.640625
vt 0.593750 0.640625
vt 0.593750 0.656250
vt 0.593750 0.656250
vt 0.609375 0.593750
vt 0.609375 0.593750
vt 0.609375 0.593750
vt 0.609375 0.593750
vt 0.640625 0.656250
vt 0.640625 0.656250
vt 0.640625 0.656250
vt 0.640625 0.656250
vt 0.656250 0.656250
vt 0.656250 0.656250
vt 0.640625 0.656250
vt 0.640625 0.656250
vt 0.187500 0.718750
vt 0.187500 0.718750
vt 0.187500 0.593750
vt 0.187500 0.593750
vt 0.359375 0.718750
vt 0.343750 0.734375
vt 0.359375 0.734375
vt 0.359375 0.718750
vt 0.578125 0.765625
vt 0.578125 0.765625
vt 0.359375 0.656250
vt 0.343750 0.656250
vt 0.343750 0.593750
vt 0.359375 0.593750
vt 0.359375 0.796875
vt 0.359375 0.781250
vt 0.359375 0.656250
vt 0.343750 0.656250
vt 0.343750 0.718750
vt 0.359375 0.718750
vt 0.578125 0.765625
vt 0.578125 0.765625
vt 0.578125 0.765625
vt 0.578125 0.765625
vt 0.171875 0.656250
vt 0.171875 0.656250
vt 0.187500 0.656250
vt 0.187500 0.656250
vt 0.359375 0.593750
vt 0.359375 0.593750
vt 0.609375 0.593750
vt 0.609375 0.718750
vt 0.609375 0.718750
vt 0.593750 0.593750
vt 0.593750 0.593750
vt 0.593750 0.718750
vt 0.593750 0.718750
vt 0.593750 0.593750
vt 0.593750 0.593750
vt 0.593750 0.718750
vt 0.593750 0.718750
vt 0.640625 0.656250
vt 0.625000 0.656250
vt 0.625000 0.656250
vt 0.640625 0.656250
vt 0.187500 0.718750
vt 0.171875 0.718750
vt 0.625000 0.593750
vt 0.625000 0.593750
vt 0.625000 0.656250
vt 0.593750 0.718750
vt 0.593750 0.718750
vt 0.640625 0.656250
vt 0.640625 0.656250
vt 0.640625 0.656250
vt 0.640625 0.656250
vt 0.609375 0.656250
vt 0.609375 0.656250
vt 0.625000 0.593750
vt 0.625000 0.593750
vt 0.625000 0.656250
vt 0.625000 0.656250
vt 0.343750 0.781250
vt 0.359375 0.781250
vt 0.640625 0.656250
vt 0.640625 0.656250
vt 0.640625 0.656250
vt 0.640625 0.656250
vt 0.593750 0.593750
vt 0.593750 0.593750
vt 0.171875 0.593750
vt 0.187500 0.593750
vt 0.640625 0.640625
vt 0.640625 0.640625
vt 0.640625 0.593750
vt 0.640625 0.593750
vn -1.0000 0.0000 0.0000
vn 0.0000 1.0000 0.0000
vn 1.0000 0.0000 0.0000
vn 0.0000 -1.0000 0.0000
vn 0.0000 0.0000 -1.0000
vn 0.0000 0.0000 1.0000
usemtl Material.003
s off
f 17/1/1 18/2/1 4/3/1 3/4/1
f 9/5/2 10/6/2 8/7/2 7/8/2
f 32/9/3 26/10/3 6/11/3 5/12/3
f 16/13/4 14/14/4 2/15/4 1/16/4
f 28/17/5 32/18/5 5/19/5 11/20/5
f 30/21/6 31/22/6 2/23/6 14/24/6
f 26/25/6 27/26/6 12/27/6 6/28/6
f 29/29/5 28/17/5 11/20/5 16/30/5
f 5/31/4 6/32/4 12/33/4 11/34/4
f 13/35/2 15/36/2 10/6/2 9/5/2
f 3/37/2 4/38/2 15/36/2 13/35/2
f 25/39/5 29/29/5 16/30/5 1/40/5
f 27/26/6 30/21/6 14/24/6 12/27/6
f 11/34/4 12/33/4 14/14/4 16/13/4
f 10/41/6 15/42/6 24/43/6 21/44/6
f 3/45/5 13/46/5 23/47/5 17/48/5
f 13/46/5 9/49/5 22/50/5 23/47/5
f 8/51/6 10/41/6 21/44/6 20/52/6
f 15/42/6 4/53/6 18/54/6 24/43/6
f 9/49/5 7/55/5 19/56/5 22/50/5
f 7/57/3 8/58/3 20/59/3 19/60/3
f 25/61/1 31/62/1 18/2/1 17/1/1
f 1/63/1 2/64/1 31/62/1 25/61/1
f 17/48/5 23/47/5 29/29/5 25/39/5
f 20/52/6 21/44/6 27/26/6 26/25/6
f 24/43/6 18/54/6 31/22/6 30/21/6
f 22/50/5 19/56/5 32/18/5 28/17/5
f 19/60/3 20/59/3 26/10/3 32/9/3
f 23/65/4 22/66/4 21/67/4 24/68/4
f 24/69/3 30/70/3 29/71/3 23/72/3
f 22/73/1 28/74/1 27/75/1 21/76/1
f 27/75/3 28/74/3 35/77/3 34/78/3
f 35/79/2 36/80/2 33/81/2 34/82/2
f 28/17/5 29/29/5 36/83/5 35/84/5
f 30/21/6 27/26/6 34/85/6 33/86/6
f 29/71/1 30/70/1 33/87/1 36/88/1
f 37/89/1 38/90/1 40/91/1 39/92/1
f 69/93/5 70/94/5 44/95/5 43/96/5
f 44/97/2 42/98/2 48/99/2 45/100/2
f 71/101/6 72/102/6 38/103/6 37/104/6
f 69/105/4 43/106/4 41/107/4 71/108/4
f 70/109/2 40/110/2 38/111/2 72/112/2
f 45/100/2 48/99/2 52/113/2 49/114/2
f 43/96/5 44/95/5 45/115/5 46/116/5
f 42/117/6 41/118/6 47/119/6 48/120/6
f 92/121/6 91/122/6 65/123/6 67/124/6
f 52/125/6 51/126/6 55/127/6 56/128/6
f 46/116/5 45/115/5 49/129/5 50/130/5
f 48/120/6 47/119/6 51/126/6 52/125/6
f 47/131/4 46/132/4 50/133/4 51/134/4
f 74/135/2 73/136/2 60/137/2 57/138/2
f 90/139/5 89/140/5 68/141/5 66/142/5
f 49/114/2 52/113/2 56/143/2 53/144/2
f 50/130/5 49/129/5 53/145/5 54/146/5
f 58/147/3 57/148/3 60/149/3 59/150/3
f 75/151/5 74/152/5 57/153/5 58/154/5
f 73/155/6 76/156/6 59/157/6 60/158/6
f 59/157/6 76/156/6 82/159/6 80/160/6
f 80/160/6 82/159/6 118/161/6 116/162/6
f 127/163/6 111/164/6 133/165/6 135/166/6
f 91/167/1 90/168/1 66/169/1 65/170/1
f 86/171/6 85/172/6 61/173/6 63/174/6
f 86/171/6 63/174/6 93/175/6 95/176/6
f 67/177/4 68/178/4 98/179/4 97/180/4
f 62/181/4 61/182/4 101/183/4 102/184/4
f 88/185/5 87/186/5 64/187/5 62/188/5
f 44/97/2 70/109/2 72/112/2 42/98/2
f 69/189/3 71/190/3 83/191/3 79/192/3
f 41/118/6 42/117/6 72/102/6 71/101/6
f 39/193/5 40/194/5 70/94/5 69/93/5
f 55/195/4 54/196/4 75/197/4 76/198/4
f 56/128/6 55/127/6 76/156/6 73/155/6
f 54/146/5 53/145/5 74/152/5 75/151/5
f 53/144/2 56/143/2 73/136/2 74/135/2
f 81/199/3 80/200/3 116/201/3 117/202/3
f 126/203/1 125/204/1 110/205/1 109/206/1
f 76/207/1 75/208/1 84/209/1 82/210/1
f 75/151/5 58/154/5 81/211/5 84/212/5
f 39/193/5 69/93/5 79/213/5 77/214/5
f 58/147/3 59/150/3 80/200/3 81/199/3
f 37/89/1 39/92/1 77/215/1 78/216/1
f 71/101/6 37/104/6 78/217/6 83/218/6
f 43/96/5 46/116/5 87/186/5 88/185/5
f 41/107/1 43/219/1 88/220/1 85/221/1
f 46/222/3 47/223/3 86/224/3 87/225/3
f 47/119/6 41/118/6 85/172/6 86/171/6
f 54/226/3 55/227/3 92/228/3 89/229/3
f 51/230/1 50/231/1 90/168/1 91/167/1
f 50/130/5 54/146/5 89/140/5 90/139/5
f 55/127/6 51/126/6 91/122/6 92/121/6
f 96/232/3 95/233/3 93/234/3 94/235/3
f 63/236/4 64/237/4 94/238/4 93/239/4
f 87/240/2 86/241/2 95/242/2 96/243/2
f 64/187/5 87/186/5 96/244/5 94/245/5
f 99/246/3 100/247/3 97/248/3 98/249/3
f 89/250/2 92/251/2 100/252/2 99/253/2
f 68/141/5 89/140/5 99/254/5 98/255/5
f 92/121/6 67/124/6 97/256/6 100/257/6
f 103/258/1 104/259/1 102/260/1 101/261/1
f 85/262/2 88/263/2 104/264/2 103/265/2
f 61/173/6 85/172/6 103/266/6 101/267/6
f 88/185/5 62/188/5 102/268/5 104/269/5
f 105/270/4 106/271/4 108/272/4 107/273/4
f 109/274/4 110/275/4 112/276/4 111/277/4
f 118/278/4 120/279/4 117/280/4 116/281/4
f 113/282/4 115/283/4 119/284/4 114/285/4
f 127/163/6 126/286/6 109/287/6 111/164/6
f 83/218/6 78/217/6 114/288/6 119/289/6
f 125/290/5 128/291/5 112/292/5 110/293/5
f 79/192/3 83/191/3 119/294/3 115/295/3
f 121/296/5 106/297/5 138/298/5 139/299/5
f 84/212/5 81/211/5 117/300/5 120/301/5
f 108/302/5 124/303/5 132/304/5 130/305/5
f 82/210/1 84/209/1 120/306/1 118/307/1
f 121/296/5 124/303/5 108/302/5 106/297/5
f 78/216/1 77/215/1 113/308/1 114/309/1
f 123/310/6 122/311/6 105/312/6 107/313/6
f 77/214/5 79/213/5 115/314/5 113/315/5
f 63/174/6 61/173/6 122/311/6 123/310/6
f 62/188/5 64/187/5 124/303/5 121/296/5
f 64/316/3 63/236/3 123/317/3 124/318/3
f 61/319/1 62/320/1 121/321/1 122/322/1
f 66/142/5 68/141/5 128/291/5 125/290/5
f 67/124/6 65/123/6 126/286/6 127/163/6
f 65/170/1 66/169/1 125/204/1 126/203/1
f 68/323/3 67/324/3 127/325/3 128/326/3
f 132/327/3 131/328/3 129/329/3 130/330/3
f 123/310/6 107/313/6 129/331/6 131/332/6
f 124/333/2 123/334/2 131/328/2 132/335/2
f 107/273/4 108/272/4 130/336/4 129/337/4
f 136/338/3 135/339/3 133/340/3 134/341/3
f 111/277/4 112/276/4 134/342/4 133/343/4
f 128/344/2 127/345/2 135/346/2 136/347/2
f 112/292/5 128/291/5 136/348/5 134/349/5
f 140/350/1 139/351/1 138/352/1 137/353/1
f 106/271/4 105/270/4 137/354/4 138/355/4
f 105/312/6 122/311/6 140/356/6 137/357/6
f 122/358/2 121/359/2 139/360/2 140/361/2
