# Blender v3.1.2 OBJ File: 'Дверь.blend'
# www.blender.org
mtllib Дверь1.mtl
o Cube
v -0.751074 4.375000 -0.813455
v -0.751074 -1.000000 -0.813455
v -0.751074 4.375000 1.311545
v -0.751074 -1.000000 1.311545
v -0.938574 4.375000 -0.813455
v -0.938574 -1.000000 -0.813455
v -0.938574 4.375000 1.311545
v -0.938574 -1.000000 1.311545
v -0.813574 -1.000000 -0.813455
v -0.751074 4.375000 1.311545
v -0.751074 -1.000000 1.311545
v -0.813574 4.375000 -0.813455
v -0.938574 -1.000000 1.186892
v -0.751074 4.375000 1.061892
v -0.938574 4.375000 1.186892
v -0.751074 -1.000000 1.061892
v -0.813574 -1.000000 1.186892
v -0.813574 4.375000 1.186892
v -0.751074 4.375000 1.434144
v -0.751074 -1.000000 1.434144
v -0.751074 -1.000000 1.434144
v -0.751074 4.375000 1.434144
v -0.690976 4.375000 1.311545
v -0.690976 -1.000000 1.311545
v -0.690976 4.375000 1.061892
v -0.690976 -1.000000 1.061892
v -0.690976 4.375000 1.434144
v -0.690976 -1.000000 1.434144
v -0.757549 -0.468420 0.903475
v -0.757549 1.156580 0.903475
v -0.757549 -0.468420 0.340975
v -0.757549 1.156580 0.340975
v -0.695049 -0.387170 0.819100
v -0.695049 1.075330 0.819100
v -0.695049 -0.387170 0.425350
v -0.695049 1.075330 0.425350
v -0.757549 -0.468420 0.028475
v -0.757549 1.156580 0.028475
v -0.757549 -0.468420 -0.534025
v -0.757549 1.156580 -0.534025
v -0.695049 -0.387170 -0.055900
v -0.695049 1.075330 -0.055900
v -0.695049 -0.387170 -0.449650
v -0.695049 1.075330 -0.449650
v -0.757549 1.469080 0.028475
v -0.757549 4.094080 0.028475
v -0.757549 1.469080 -0.534025
v -0.757549 4.094080 -0.534025
v -0.695049 1.550330 -0.055900
v -0.695049 4.012830 -0.055900
v -0.695049 1.550330 -0.449650
v -0.695049 4.012830 -0.449650
v -0.757549 1.469080 0.904732
v -0.757549 4.094080 0.904732
v -0.757549 1.469080 0.342232
v -0.757549 4.094080 0.342232
v -0.695049 1.550330 0.820357
v -0.695049 4.012830 0.820357
v -0.695049 1.550330 0.426607
v -0.695049 4.012830 0.426607
vt 0.882812 0.578125
vt 0.867188 0.578125
vt 0.867188 0.562500
vt 0.898438 0.562500
vt 0.835938 0.000000
vt 0.835938 0.867188
vt 0.804688 0.867188
vt 0.804688 0.000000
vt 0.023438 0.000000
vt 0.023438 0.867188
vt 0.343750 0.867188
vt 0.343750 0.000000
vt 0.882812 0.578125
vt 0.898438 0.601562
vt 0.898438 0.562500
vt 0.898438 0.562500
vt 0.976562 0.000000
vt 0.976562 0.867188
vt 0.992188 0.867188
vt 0.992188 0.000000
vt 0.851562 0.000000
vt 0.851562 0.867188
vt 0.867188 0.867188
vt 0.867188 0.000000
vt 0.835938 0.000000
vt 0.835938 0.867188
vt 0.867188 0.578125
vt 0.867188 0.562500
vt 0.898438 0.539062
vt 0.898438 0.539062
vt 0.898438 0.601562
vt 0.898438 0.562500
vt 0.898438 0.906250
vt 0.882812 0.906250
vt 0.867188 0.906250
vt 0.882812 0.906250
vt 0.648438 0.000000
vt 0.648438 0.867188
vt 0.343750 0.867188
vt 0.343750 0.000000
vt 0.898438 0.906250
vt 0.000000 0.000000
vt 0.000000 0.867188
vt 0.867188 0.906250
vt 0.898438 0.539062
vt 0.898438 0.539062
vt 0.992188 0.867188
vt 0.992188 0.000000
vt 1.000000 0.000000
vt 1.000000 0.867188
vt 0.976562 0.867188
vt 0.976562 0.000000
vt 0.960938 0.000000
vt 0.960938 0.867188
vt 0.710938 0.000000
vt 0.710938 0.867188
vt 0.671875 0.867188
vt 0.671875 0.000000
vt 0.648438 0.867188
vt 0.648438 0.000000
vt 0.906250 0.562500
vt 0.906250 0.601562
vt 0.906250 0.539062
vt 0.906250 0.562500
vt 0.906250 0.539062
vt 0.906250 0.601562
vt 0.867188 0.000000
vt 0.867188 0.265625
vt 0.960938 0.265625
vt 0.960938 0.000000
vt 0.945312 0.257812
vt 0.945312 0.015625
vt 0.882812 0.257812
vt 0.882812 0.015625
vt 0.867188 0.273438
vt 0.867188 0.539062
vt 0.960938 0.539062
vt 0.960938 0.273438
vt 0.945312 0.523438
vt 0.945312 0.281250
vt 0.882812 0.523438
vt 0.882812 0.281250
vt 0.710938 0.000000
vt 0.710938 0.437500
vt 0.804688 0.437500
vt 0.804688 0.000000
vt 0.789062 0.421875
vt 0.789062 0.015625
vt 0.726562 0.421875
vt 0.726562 0.015625
vt 0.710938 0.437500
vt 0.710938 0.867188
vt 0.804688 0.867188
vt 0.804688 0.437500
vt 0.789062 0.859375
vt 0.789062 0.445312
vt 0.726562 0.859375
vt 0.726562 0.445312
vn 0.0000 1.0000 0.0000
vn 0.0000 0.0000 1.0000
vn -1.0000 0.0000 0.0000
vn 0.0000 -1.0000 0.0000
vn 0.0000 0.0000 -1.0000
vn 1.0000 0.0000 0.0000
vn 0.8036 0.0000 -0.5952
vn 0.8036 0.0000 0.5952
vn 0.7926 -0.6097 0.0000
vn 0.7926 0.6097 0.0000
usemtl Material
s off
f 18/1/1 15/2/1 7/3/1 10/4/1
f 11/5/2 10/6/2 7/7/2 8/8/2
f 13/9/3 15/10/3 5/11/3 6/12/3
f 17/13/4 16/14/4 4/15/4 11/16/4
f 16/17/5 14/18/5 25/19/5 26/20/5
f 9/21/5 12/22/5 1/23/5 2/24/5
f 6/25/5 5/26/5 12/22/5 9/21/5
f 13/27/4 17/13/4 11/16/4 8/28/4
f 11/16/2 4/15/2 20/29/2 21/30/2
f 14/31/1 18/1/1 10/4/1 3/32/1
f 1/33/1 12/34/1 18/1/1 14/31/1
f 6/35/4 9/36/4 17/13/4 13/27/4
f 2/37/6 1/38/6 14/39/6 16/40/6
f 9/36/4 2/41/4 16/14/4 17/13/4
f 8/42/3 7/43/3 15/10/3 13/9/3
f 12/34/1 5/44/1 15/2/1 18/1/1
f 20/29/2 19/45/2 22/46/2 21/30/2
f 19/47/2 20/48/2 28/49/2 27/50/2
f 3/32/2 10/4/2 22/46/2 19/45/2
f 10/51/3 11/52/3 21/53/3 22/54/3
f 26/55/6 25/56/6 23/57/6 24/58/6
f 24/58/6 23/57/6 27/59/6 28/60/6
f 14/31/1 3/32/1 23/61/1 25/62/1
f 3/32/1 19/45/1 27/63/1 23/61/1
f 20/29/4 4/15/4 24/64/4 28/65/4
f 4/15/4 16/14/4 26/66/4 24/64/4
f 29/67/3 30/68/3 32/69/3 31/70/3
f 31/70/7 32/69/7 36/71/7 35/72/7
f 35/72/6 36/71/6 34/73/6 33/74/6
f 33/74/8 34/73/8 30/68/8 29/67/8
f 31/70/9 35/72/9 33/74/9 29/67/9
f 36/71/10 32/69/10 30/68/10 34/73/10
f 37/75/3 38/76/3 40/77/3 39/78/3
f 39/78/7 40/77/7 44/79/7 43/80/7
f 43/80/6 44/79/6 42/81/6 41/82/6
f 41/82/8 42/81/8 38/76/8 37/75/8
f 39/78/9 43/80/9 41/82/9 37/75/9
f 44/79/10 40/77/10 38/76/10 42/81/10
f 45/83/3 46/84/3 48/85/3 47/86/3
f 47/86/7 48/85/7 52/87/7 51/88/7
f 51/88/6 52/87/6 50/89/6 49/90/6
f 49/90/8 50/89/8 46/84/8 45/83/8
f 47/86/9 51/88/9 49/90/9 45/83/9
f 52/87/10 48/85/10 46/84/10 50/89/10
f 53/91/3 54/92/3 56/93/3 55/94/3
f 55/94/7 56/93/7 60/95/7 59/96/7
f 59/96/6 60/95/6 58/97/6 57/98/6
f 57/98/8 58/97/8 54/92/8 53/91/8
f 55/94/9 59/96/9 57/98/9 53/91/9
f 60/95/10 56/93/10 54/92/10 58/97/10
