# Blender v3.1.2 OBJ File: 'Дверь.blend'
# www.blender.org
mtllib Дверь3.mtl
o Cube.002_Cube.024
v -0.750000 4.367059 -0.807972
v -0.750000 4.380484 3.430273
v -0.750000 6.492045 -0.814703
v -0.750000 6.505470 3.423542
v -0.937500 4.367059 -0.807972
v -0.937500 4.380484 3.430273
v -0.937500 6.492045 -0.814703
v -0.937500 6.505470 3.423542
v -0.812500 4.380484 3.430273
v -0.812500 6.492045 -0.814703
v -0.812500 6.505470 3.423542
v -0.812500 4.367059 -0.807972
v -0.937500 6.380817 3.423936
v -0.750000 6.367392 -0.814309
v -0.937500 6.367392 -0.814309
v -0.750000 6.380817 3.423936
v -0.812500 6.380817 3.423936
v -0.812500 6.367392 -0.814309
v -0.752401 6.367392 -0.814309
v -0.752401 6.380817 3.423936
v -0.756475 6.096075 3.005677
v -0.756475 6.092016 1.724347
v -0.756475 5.533578 3.007459
v -0.756475 5.529520 1.726129
v -0.693975 6.011497 2.941878
v -0.693975 6.007844 1.788681
v -0.693975 5.617750 2.943125
v -0.693975 5.614097 1.789928
v -0.756475 5.221080 3.008449
v -0.756475 5.217021 1.727119
v -0.756475 4.658584 3.010231
v -0.756475 4.654525 1.728901
v -0.693975 5.136503 2.944650
v -0.693975 5.132850 1.791453
v -0.693975 4.742755 2.945897
v -0.693975 4.739103 1.792700
v -0.756475 5.216241 1.480710
v -0.756475 5.209684 -0.589131
v -0.756475 4.653745 1.482491
v -0.756475 4.647188 -0.587349
v -0.693975 5.131664 1.416910
v -0.693975 5.125513 -0.524797
v -0.693975 4.737916 1.418158
v -0.693975 4.731765 -0.523550
v -0.756475 6.092493 1.477934
v -0.756475 6.085936 -0.591906
v -0.756475 5.529996 1.479716
v -0.756475 5.523440 -0.590125
v -0.693975 6.007915 1.414135
v -0.693975 6.001765 -0.527572
v -0.693975 5.614168 1.415382
v -0.693975 5.608017 -0.526325
vt 0.671875 0.007812
vt 0.656250 0.007812
vt 0.656250 0.000000
vt 0.671875 0.000000
vt 0.617188 0.328125
vt 0.617188 1.000000
vt 0.601562 1.000000
vt 0.601562 0.328125
vt 0.007812 0.000000
vt 0.007812 0.664062
vt 0.257812 0.664062
vt 0.257812 0.000000
vt 0.687500 0.007812
vt 0.703125 0.007812
vt 0.703125 0.000000
vt 0.687500 0.000000
vt 0.742188 0.984375
vt 0.742188 0.328125
vt 0.734375 0.328125
vt 0.734375 0.984375
vt 0.593750 0.328125
vt 0.593750 1.000000
vt 0.601562 1.000000
vt 0.601562 0.328125
vt 0.578125 0.328125
vt 0.578125 1.000000
vt 0.671875 0.007812
vt 0.671875 0.000000
vt 0.671875 0.007812
vt 0.671875 0.000000
vt 0.671875 0.265625
vt 0.671875 0.265625
vt 0.671875 0.242188
vt 0.687500 0.242188
vt 0.507812 0.000000
vt 0.507812 0.664062
vt 0.265625 0.664062
vt 0.265625 0.000000
vt 0.695312 0.242188
vt 0.695312 0.007812
vt 0.000000 0.000000
vt 0.000000 0.664062
vt 0.656250 0.265625
vt 0.578125 0.000000
vt 0.578125 0.203125
vt 0.656250 0.203125
vt 0.656250 0.000000
vt 0.640625 0.187500
vt 0.640625 0.007812
vt 0.593750 0.187500
vt 0.593750 0.007812
vt 0.625000 0.328125
vt 0.625000 0.523438
vt 0.703125 0.523438
vt 0.703125 0.328125
vt 0.687500 0.515625
vt 0.687500 0.335938
vt 0.640625 0.515625
vt 0.640625 0.335938
vt 0.507812 0.000000
vt 0.507812 0.328125
vt 0.578125 0.328125
vt 0.578125 0.000000
vt 0.570312 0.312500
vt 0.570312 0.007812
vt 0.515625 0.312500
vt 0.515625 0.007812
vt 0.507812 0.328125
vt 0.507812 0.648438
vt 0.578125 0.648438
vt 0.578125 0.328125
vt 0.570312 0.640625
vt 0.570312 0.335938
vt 0.515625 0.640625
vt 0.515625 0.335938
vt 0.734375 0.328125
vt 0.734375 0.960938
vt 0.710938 0.960938
vt 0.710938 0.328125
vt 0.625000 0.328125
vt 0.625000 1.000000
vn 0.0000 -0.0032 -1.0000
vn 0.0000 1.0000 -0.0032
vn -1.0000 0.0000 0.0000
vn 0.0000 0.0032 1.0000
vn 0.0000 -1.0000 0.0032
vn 1.0000 -0.0000 0.0000
vn 0.8036 -0.5952 0.0019
vn 0.8036 0.5952 -0.0019
vn 0.7158 0.0022 0.6983
vn 0.7158 -0.0022 -0.6983
usemtl Material.003
s off
f 18/1/1 15/2/1 7/3/1 10/4/1
f 11/5/2 10/6/2 7/7/2 8/8/2
f 13/9/3 15/10/3 5/11/3 6/12/3
f 17/13/4 16/14/4 4/15/4 11/16/4
f 16/17/2 14/18/2 19/19/2 20/20/2
f 9/21/5 12/22/5 1/23/5 2/24/5
f 6/25/5 5/26/5 12/22/5 9/21/5
f 13/27/4 17/13/4 11/16/4 8/28/4
f 14/29/1 18/1/1 10/4/1 3/30/1
f 1/31/1 12/32/1 18/1/1 14/29/1
f 6/33/4 9/34/4 17/13/4 13/27/4
f 2/35/6 1/36/6 14/37/6 16/38/6
f 9/34/4 2/39/4 16/40/4 17/13/4
f 8/41/3 7/42/3 15/10/3 13/9/3
f 12/32/1 5/43/1 15/2/1 18/1/1
f 21/44/3 22/45/3 24/46/3 23/47/3
f 23/47/7 24/46/7 28/48/7 27/49/7
f 27/49/6 28/48/6 26/50/6 25/51/6
f 25/51/8 26/50/8 22/45/8 21/44/8
f 23/47/9 27/49/9 25/51/9 21/44/9
f 28/48/10 24/46/10 22/45/10 26/50/10
f 29/52/3 30/53/3 32/54/3 31/55/3
f 31/55/7 32/54/7 36/56/7 35/57/7
f 35/57/6 36/56/6 34/58/6 33/59/6
f 33/59/8 34/58/8 30/53/8 29/52/8
f 31/55/9 35/57/9 33/59/9 29/52/9
f 36/56/10 32/54/10 30/53/10 34/58/10
f 37/60/3 38/61/3 40/62/3 39/63/3
f 39/63/7 40/62/7 44/64/7 43/65/7
f 43/65/6 44/64/6 42/66/6 41/67/6
f 41/67/8 42/66/8 38/61/8 37/60/8
f 39/63/9 43/65/9 41/67/9 37/60/9
f 44/64/10 40/62/10 38/61/10 42/66/10
f 45/68/3 46/69/3 48/70/3 47/71/3
f 47/71/7 48/70/7 52/72/7 51/73/7
f 51/73/6 52/72/6 50/74/6 49/75/6
f 49/75/8 50/74/8 46/69/8 45/68/8
f 47/71/9 51/73/9 49/75/9 45/68/9
f 52/72/10 48/70/10 46/69/10 50/74/10
f 16/76/6 14/77/6 3/78/6 4/79/6
f 11/5/2 4/80/2 3/81/2 10/6/2
