# Blender v3.1.2 OBJ File: 'Стена берюзовая (с дверью).blend'
# www.blender.org
mtllib Стена берюзовая (с дверью).mtl
o Cube
v -0.687500 8.812500 -14.437500
v -0.687500 -1.000000 -14.437500
v -0.687500 8.812500 1.000000
v -0.687500 -1.000000 1.000000
v -1.000000 8.812500 -14.437500
v -1.000000 -1.000000 -14.437500
v -1.000000 8.812500 1.000000
v -1.000000 -1.000000 1.000000
v -0.687500 6.499714 -14.437500
v -1.000000 6.499714 1.000000
v -0.687500 6.499714 1.000000
v -1.000000 6.499714 -14.437500
v -1.000000 -1.000000 -4.221033
v -0.687500 8.812500 -4.221033
v -1.000000 8.812500 -4.221033
v -0.687500 -1.000000 -4.221033
v -0.687500 6.499714 -4.221033
v -1.000000 6.499714 -4.221033
v -1.000000 8.812500 -8.476023
v -0.687500 -1.000000 -8.476023
v -1.000000 6.499714 -8.476023
v -1.000000 -1.000000 -8.476023
v -0.687500 8.812500 -8.476023
v -0.687500 6.499714 -8.476023
vt 0.835938 0.264108
vt 0.820312 0.264108
vt 0.820312 0.007812
vt 0.835938 0.007812
vt 0.898438 0.378021
vt 0.898438 0.492188
vt 0.882812 0.492188
vt 0.882812 0.378021
vt 0.472982 0.878021
vt 0.472982 0.992188
vt 0.765625 0.992188
vt 0.765625 0.878021
vt 0.789062 0.264108
vt 0.804688 0.264108
vt 0.804688 0.007812
vt 0.789062 0.007812
vt 0.264108 0.378021
vt 0.264108 0.492188
vt 0.007812 0.492188
vt 0.007812 0.378021
vt 0.851562 0.378021
vt 0.851562 0.492188
vt 0.867188 0.492188
vt 0.867188 0.378021
vt 0.851562 0.007812
vt 0.867188 0.007812
vt 0.264108 0.007812
vt 0.007812 0.007812
vt 0.472982 0.507812
vt 0.765625 0.507812
vt 0.898438 0.007812
vt 0.882812 0.007812
vt 0.007812 0.507812
vt 0.007812 0.878021
vt 0.264108 0.878021
vt 0.264108 0.507812
vt 0.472982 0.378021
vt 0.472982 0.492188
vt 0.007812 0.992188
vt 0.264108 0.992188
vt 0.835938 0.472982
vt 0.820312 0.472982
vt 0.835938 0.765625
vt 0.820312 0.765625
vt 0.789062 0.765625
vt 0.804688 0.765625
vt 0.804688 0.472982
vt 0.789062 0.472982
vt 0.765625 0.378021
vt 0.765625 0.492188
vt 0.765625 0.007812
vt 0.472982 0.007812
vt 0.803385 0.161636
vt 0.803385 0.728989
vt 0.845053 0.728989
vt 0.845053 0.161636
vt 0.845053 0.655599
vt 0.845053 0.063802
vt 0.803385 0.063802
vt 0.803385 0.655599
vt 0.797525 0.638021
vt 0.797525 0.079427
vt 0.839194 0.079427
vt 0.839194 0.638021
vn 0.0000 1.0000 0.0000
vn 0.0000 0.0000 1.0000
vn -1.0000 0.0000 0.0000
vn 0.0000 -1.0000 0.0000
vn 1.0000 0.0000 0.0000
vn 0.0000 0.0000 -1.0000
usemtl Material
s off
f 14/1/1 15/2/1 7/3/1 3/4/1
f 11/5/2 3/6/2 7/7/2 10/8/2
f 21/9/3 19/10/3 5/11/3 12/12/3
f 13/13/4 16/14/4 4/15/4 8/16/4
f 17/17/5 14/18/5 3/19/5 11/20/5
f 12/21/6 5/22/6 1/23/6 9/24/6
f 6/25/6 12/21/6 9/24/6 2/26/6
f 16/27/5 17/17/5 11/20/5 4/28/5
f 22/29/3 21/9/3 12/12/3 6/30/3
f 4/31/2 11/5/2 10/8/2 8/32/2
f 8/33/3 10/34/3 18/35/3 13/36/3
f 24/37/5 23/38/5 14/18/5 17/17/5
f 10/34/3 7/39/3 15/40/3 18/35/3
f 23/41/1 19/42/1 15/2/1 14/1/1
f 1/43/1 5/44/1 19/42/1 23/41/1
f 6/45/4 2/46/4 20/47/4 22/48/4
f 9/49/5 1/50/5 23/38/5 24/37/5
f 2/51/5 9/49/5 24/37/5 20/52/5
f 18/35/3 15/40/3 19/10/3 21/9/3
f 18/53/4 21/54/4 24/55/4 17/56/4
f 17/57/6 16/58/6 13/59/6 18/60/6
f 21/61/2 22/62/2 20/63/2 24/64/2
