# Blender v3.1.2 OBJ File: 'Шкаф.blend'
# www.blender.org
mtllib Шкаф.mtl
o Cube.016_Cube.017
v -0.179455 4.508014 1.951456
v -0.179455 4.589790 1.951456
v -0.179455 4.508014 -0.174726
v -0.179455 4.589790 -0.174726
v 0.638308 4.508014 1.951456
v 0.638308 4.589790 1.951456
v 0.638308 4.508014 -0.174726
v 0.638308 4.589790 -0.174726
v -0.161236 0.998206 1.993912
v -0.161236 1.079983 1.993912
v -0.161236 0.998206 1.707695
v -0.161236 1.079983 1.707695
v 0.002316 0.998206 1.993912
v 0.002316 1.079983 1.993912
v 0.002316 0.998206 1.707695
v 0.002316 1.079983 1.707695
v -0.179455 4.508014 1.951456
v -0.179455 4.589790 1.951456
v -0.179455 4.508014 -0.174726
v -0.179455 4.589790 -0.174726
v 0.638308 4.508014 1.951456
v 0.638308 4.589790 1.951456
v 0.638308 4.508014 -0.174726
v 0.638308 4.589790 -0.174726
v 0.738302 4.950169 -0.254934
v 0.738302 1.065799 -0.254934
v 0.738302 4.950169 2.034800
v 0.738302 1.065799 2.034800
v -0.202124 4.950169 -0.254934
v -0.202124 1.065799 -0.254934
v -0.202124 4.950169 2.034800
v -0.202124 1.065799 2.034800
v -0.202124 1.065799 -0.173685
v 0.738302 4.950169 -0.173685
v -0.202124 4.950169 -0.173685
v 0.738302 1.065799 -0.173685
v -0.202124 1.065799 1.953278
v 0.738302 4.950169 1.953278
v -0.202124 4.950169 1.953278
v 0.738302 1.065799 1.953278
v 0.738302 4.868782 -0.254934
v -0.202124 4.868782 2.034800
v 0.738302 4.868782 2.034800
v -0.202124 4.868782 -0.254934
v 0.738302 4.868782 -0.173685
v -0.202124 4.868782 -0.173685
v -0.202124 4.868782 1.953278
v 0.738302 4.868782 1.953278
v 0.738302 1.147185 -0.254934
v 0.738302 1.147185 2.034800
v -0.202124 1.147185 -0.254934
v 0.738302 1.147185 -0.173685
v -0.202124 1.147185 -0.173685
v -0.202124 1.147185 1.953278
v 0.738302 1.147185 1.953278
v -0.202124 1.147185 2.034800
v 0.629667 4.868782 1.953278
v 0.629667 4.868782 -0.173685
v 0.629667 1.147185 -0.173685
v 0.629667 1.147185 1.953278
v -0.179455 2.218281 1.951456
v -0.179455 2.300057 1.951456
v -0.179455 2.218281 -0.174726
v -0.179455 2.300057 -0.174726
v 0.638308 2.218281 1.951456
v 0.638308 2.300057 1.951456
v 0.638308 2.218281 -0.174726
v 0.638308 2.300057 -0.174726
v -0.179455 3.363147 1.951456
v -0.179455 3.444923 1.951456
v -0.179455 3.363147 -0.174726
v -0.179455 3.444923 -0.174726
v 0.638308 3.363147 1.951456
v 0.638308 3.444923 1.951456
v 0.638308 3.363147 -0.174726
v 0.638308 3.444923 -0.174726
v -0.179455 2.790714 1.951456
v -0.179455 2.872490 1.951456
v -0.179455 2.790714 -0.174726
v -0.179455 2.872490 -0.174726
v 0.638308 2.790714 1.951456
v 0.638308 2.872490 1.951456
v 0.638308 2.790714 -0.174726
v 0.638308 2.872490 -0.174726
v -0.179455 3.935581 1.951456
v -0.179455 4.017357 1.951456
v -0.179455 3.935581 -0.174726
v -0.179455 4.017357 -0.174726
v 0.638308 3.935581 1.951456
v 0.638308 4.017357 1.951456
v 0.638308 3.935581 -0.174726
v 0.638308 4.017357 -0.174726
v -0.178233 2.872490 0.969886
v -0.178233 3.363147 0.969886
v -0.178233 2.872490 0.888110
v -0.178233 3.363147 0.888110
v 0.543897 2.872490 0.969886
v 0.543897 3.363147 0.969886
v 0.543897 2.872490 0.888110
v 0.543897 3.363147 0.888110
v -0.178233 2.300056 0.969886
v -0.178233 2.790714 0.969886
v -0.178233 2.300056 0.888110
v -0.178233 2.790714 0.888110
v 0.543897 2.300056 0.969886
v 0.543897 2.790714 0.969886
v 0.543897 2.300056 0.888110
v 0.543897 2.790714 0.888110
v -0.161236 0.998207 0.072171
v -0.161236 1.079983 0.072171
v -0.161236 0.998207 -0.214046
v -0.161236 1.079983 -0.214046
v 0.002316 0.998207 0.072171
v 0.002316 1.079983 0.072171
v 0.002316 0.998207 -0.214046
v 0.002316 1.079983 -0.214046
v 0.533861 0.998207 0.072171
v 0.533861 1.079983 0.072171
v 0.533861 0.998207 -0.214046
v 0.533861 1.079983 -0.214046
v 0.697414 0.998207 0.072171
v 0.697414 1.079983 0.072171
v 0.697414 0.998207 -0.214046
v 0.697414 1.079983 -0.214046
v 0.533861 0.998207 1.993912
v 0.533861 1.079983 1.993912
v 0.533861 0.998207 1.707695
v 0.533861 1.079983 1.707695
v 0.697414 0.998207 1.993912
v 0.697414 1.079983 1.993912
v 0.697414 0.998207 1.707695
v 0.697414 1.079983 1.707695
vt 0.968750 0.859375
vt 0.976562 0.859375
vt 0.976562 0.632812
vt 0.968750 0.632812
vt 0.546875 0.914062
vt 0.562500 0.914062
vt 0.562500 0.820312
vt 0.546875 0.820312
vt 0.968750 0.406250
vt 0.976562 0.406250
vt 0.976562 0.632812
vt 0.968750 0.632812
vt 0.562500 0.820312
vt 0.570312 0.820312
vt 0.570312 0.914062
vt 0.562500 0.914062
vt 0.179688 0.671875
vt 0.093750 0.671875
vt 0.093750 0.898438
vt 0.179688 0.898438
vt 0.390625 0.421875
vt 0.476562 0.421875
vt 0.476562 0.648438
vt 0.390625 0.648438
vt 0.835938 0.890625
vt 0.843750 0.890625
vt 0.843750 0.867188
vt 0.835938 0.867188
vt 0.398438 0.882812
vt 0.390625 0.882812
vt 0.390625 0.898438
vt 0.398438 0.898438
vt 0.820312 0.867188
vt 0.828125 0.867188
vt 0.828125 0.890625
vt 0.820312 0.890625
vt 0.406250 0.898438
vt 0.398438 0.898438
vt 0.398438 0.882812
vt 0.406250 0.882812
vt 0.656250 0.820312
vt 0.640625 0.820312
vt 0.640625 0.851562
vt 0.656250 0.851562
vt 0.617188 0.820312
vt 0.632812 0.820312
vt 0.632812 0.851562
vt 0.617188 0.851562
vt 0.992188 0.632812
vt 1.000000 0.632812
vt 1.000000 0.406250
vt 0.992188 0.406250
vt 0.578125 0.914062
vt 0.585938 0.914062
vt 0.585938 0.820312
vt 0.578125 0.820312
vt 0.992188 0.632812
vt 1.000000 0.632812
vt 1.000000 0.859375
vt 0.992188 0.859375
vt 0.585938 0.820312
vt 0.601562 0.820312
vt 0.601562 0.914062
vt 0.585938 0.914062
vt 0.875000 0.632812
vt 0.789062 0.632812
vt 0.789062 0.859375
vt 0.875000 0.859375
vt 0.000000 0.671875
vt 0.085938 0.671875
vt 0.085938 0.898438
vt 0.000000 0.898438
vt 0.000000 0.656250
vt 0.101562 0.656250
vt 0.101562 0.664062
vt 0.000000 0.664062
vt 0.500000 0.414062
vt 0.500000 0.406250
vt 0.601562 0.406250
vt 0.601562 0.414062
vt 0.007812 0.007812
vt 0.007812 0.000000
vt 0.000000 0.000000
vt 0.000000 0.007812
vt 0.203125 0.656250
vt 0.101562 0.656250
vt 0.101562 0.664062
vt 0.203125 0.664062
vt 0.484375 0.007812
vt 0.484375 0.000000
vt 0.492188 0.000000
vt 0.492188 0.007812
vt 0.703125 0.414062
vt 0.703125 0.406250
vt 0.601562 0.406250
vt 0.601562 0.414062
vt 0.250000 0.007812
vt 0.250000 0.000000
vt 0.257812 0.000000
vt 0.257812 0.007812
vt 0.203125 0.421875
vt 0.101562 0.421875
vt 0.101562 0.429688
vt 0.203125 0.429688
vt 0.242188 0.007812
vt 0.242188 0.000000
vt 0.000000 0.421875
vt 0.101562 0.421875
vt 0.101562 0.429688
vt 0.000000 0.429688
vt 0.250000 0.007812
vt 0.250000 0.000000
vt 0.257812 0.414062
vt 0.484375 0.414062
vt 0.250000 0.414062
vt 0.242188 0.414062
vt 0.382812 0.648438
vt 0.382812 0.421875
vt 0.296875 0.421875
vt 0.296875 0.648438
vt 0.250000 0.414062
vt 0.703125 0.812500
vt 0.601562 0.812500
vt 0.492188 0.414062
vt 0.007812 0.414062
vt 0.000000 0.414062
vt 0.500000 0.812500
vt 0.601562 0.812500
vt 0.500000 0.820312
vt 0.601562 0.820312
vt 0.007812 0.421875
vt 0.000000 0.421875
vt 0.484375 0.421875
vt 0.492188 0.421875
vt 0.703125 0.820312
vt 0.601562 0.820312
vt 0.250000 0.421875
vt 0.257812 0.421875
vt 0.242188 0.421875
vt 0.250000 0.421875
vt 0.726562 0.398438
vt 0.726562 0.000000
vt 0.500000 0.000000
vt 0.500000 0.398438
vt 0.789062 0.804688
vt 0.789062 0.406250
vt 0.703125 0.406250
vt 0.703125 0.804688
vt 0.812500 0.000000
vt 0.812500 0.398438
vt 0.726562 0.398438
vt 0.726562 0.000000
vt 0.296875 0.421875
vt 0.296875 0.648438
vt 0.203125 0.648438
vt 0.203125 0.421875
vt 0.476562 0.648438
vt 0.484375 0.648438
vt 0.484375 0.421875
vt 0.476562 0.421875
vt 0.875000 0.320312
vt 0.882812 0.320312
vt 0.882812 0.234375
vt 0.875000 0.234375
vt 0.484375 0.421875
vt 0.492188 0.421875
vt 0.492188 0.648438
vt 0.484375 0.648438
vt 0.882812 0.234375
vt 0.890625 0.234375
vt 0.890625 0.320312
vt 0.882812 0.320312
vt 0.875000 0.406250
vt 0.789062 0.406250
vt 0.789062 0.632812
vt 0.875000 0.632812
vt 0.820312 0.000000
vt 0.906250 0.000000
vt 0.906250 0.226562
vt 0.820312 0.226562
vt 0.476562 0.882812
vt 0.484375 0.882812
vt 0.484375 0.648438
vt 0.476562 0.648438
vt 0.773438 0.890625
vt 0.781250 0.890625
vt 0.781250 0.804688
vt 0.773438 0.804688
vt 0.179688 0.671875
vt 0.187500 0.671875
vt 0.187500 0.898438
vt 0.179688 0.898438
vt 0.765625 0.804688
vt 0.773438 0.804688
vt 0.773438 0.890625
vt 0.765625 0.890625
vt 0.992188 0.000000
vt 0.906250 0.000000
vt 0.906250 0.226562
vt 0.992188 0.226562
vt 0.882812 0.406250
vt 0.968750 0.406250
vt 0.968750 0.632812
vt 0.882812 0.632812
vt 0.984375 0.859375
vt 0.992188 0.859375
vt 0.992188 0.632812
vt 0.984375 0.632812
vt 0.898438 0.320312
vt 0.914062 0.320312
vt 0.914062 0.234375
vt 0.898438 0.234375
vt 0.984375 0.406250
vt 0.992188 0.406250
vt 0.992188 0.632812
vt 0.984375 0.632812
vt 0.601562 0.820312
vt 0.609375 0.820312
vt 0.609375 0.914062
vt 0.601562 0.914062
vt 0.296875 0.648438
vt 0.203125 0.648438
vt 0.203125 0.882812
vt 0.296875 0.882812
vt 0.390625 0.648438
vt 0.476562 0.648438
vt 0.476562 0.882812
vt 0.390625 0.882812
vt 0.484375 0.882812
vt 0.492188 0.882812
vt 0.492188 0.648438
vt 0.484375 0.648438
vt 0.890625 0.320312
vt 0.898438 0.320312
vt 0.898438 0.234375
vt 0.890625 0.234375
vt 0.187500 0.671875
vt 0.195312 0.671875
vt 0.195312 0.898438
vt 0.187500 0.898438
vt 0.757812 0.804688
vt 0.765625 0.804688
vt 0.765625 0.890625
vt 0.757812 0.890625
vt 0.382812 0.648438
vt 0.296875 0.648438
vt 0.296875 0.882812
vt 0.382812 0.882812
vt 0.882812 0.632812
vt 0.968750 0.632812
vt 0.968750 0.859375
vt 0.882812 0.859375
vt 0.820312 0.914062
vt 0.820312 0.867188
vt 0.812500 0.867188
vt 0.812500 0.914062
vt 0.500000 0.898438
vt 0.546875 0.898438
vt 0.546875 0.820312
vt 0.500000 0.820312
vt 0.804688 0.914062
vt 0.804688 0.867188
vt 0.812500 0.867188
vt 0.812500 0.914062
vt 0.703125 0.804688
vt 0.757812 0.804688
vt 0.757812 0.882812
vt 0.703125 0.882812
vt 0.890625 0.398438
vt 0.890625 0.320312
vt 0.882812 0.320312
vt 0.882812 0.398438
vt 0.882812 0.320312
vt 0.882812 0.398438
vt 0.875000 0.398438
vt 0.875000 0.320312
vt 0.914062 0.375000
vt 0.914062 0.320312
vt 0.898438 0.320312
vt 0.898438 0.375000
vt 0.820312 0.390625
vt 0.867188 0.390625
vt 0.867188 0.312500
vt 0.820312 0.312500
vt 0.789062 0.914062
vt 0.789062 0.867188
vt 0.804688 0.867188
vt 0.804688 0.914062
vt 0.820312 0.234375
vt 0.867188 0.234375
vt 0.867188 0.312500
vt 0.820312 0.312500
vt 0.898438 0.398438
vt 0.898438 0.320312
vt 0.890625 0.320312
vt 0.890625 0.398438
vt 0.617188 0.820312
vt 0.617188 0.898438
vt 0.609375 0.898438
vt 0.609375 0.820312
vt 0.890625 0.867188
vt 0.882812 0.867188
vt 0.882812 0.890625
vt 0.890625 0.890625
vt 0.429688 0.882812
vt 0.421875 0.882812
vt 0.421875 0.898438
vt 0.429688 0.898438
vt 0.898438 0.890625
vt 0.890625 0.890625
vt 0.890625 0.867188
vt 0.898438 0.867188
vt 0.414062 0.898438
vt 0.406250 0.898438
vt 0.406250 0.882812
vt 0.414062 0.882812
vt 0.695312 0.820312
vt 0.671875 0.820312
vt 0.671875 0.851562
vt 0.695312 0.851562
vt 0.656250 0.820312
vt 0.671875 0.820312
vt 0.671875 0.851562
vt 0.656250 0.851562
vt 0.867188 0.867188
vt 0.859375 0.867188
vt 0.859375 0.890625
vt 0.867188 0.890625
vt 0.445312 0.898438
vt 0.453125 0.898438
vt 0.453125 0.882812
vt 0.445312 0.882812
vt 0.882812 0.890625
vt 0.875000 0.890625
vt 0.875000 0.867188
vt 0.882812 0.867188
vt 0.437500 0.882812
vt 0.445312 0.882812
vt 0.445312 0.898438
vt 0.437500 0.898438
vt 0.695312 0.851562
vt 0.671875 0.851562
vt 0.671875 0.882812
vt 0.695312 0.882812
vt 0.640625 0.851562
vt 0.656250 0.851562
vt 0.656250 0.882812
vt 0.640625 0.882812
vt 0.851562 0.867188
vt 0.843750 0.867188
vt 0.843750 0.890625
vt 0.851562 0.890625
vt 0.460938 0.898438
vt 0.468750 0.898438
vt 0.468750 0.882812
vt 0.460938 0.882812
vt 0.859375 0.890625
vt 0.851562 0.890625
vt 0.851562 0.867188
vt 0.859375 0.867188
vt 0.429688 0.882812
vt 0.437500 0.882812
vt 0.437500 0.898438
vt 0.429688 0.898438
vt 0.632812 0.851562
vt 0.617188 0.851562
vt 0.617188 0.882812
vt 0.632812 0.882812
vt 0.656250 0.851562
vt 0.671875 0.851562
vt 0.671875 0.882812
vt 0.656250 0.882812
vn -1.0000 0.0000 0.0000
vn 0.0000 0.0000 -1.0000
vn 1.0000 0.0000 0.0000
vn 0.0000 0.0000 1.0000
vn 0.0000 -1.0000 0.0000
vn 0.0000 1.0000 0.0000
usemtl Material
s off
f 1/1/1 2/2/1 4/3/1 3/4/1
f 3/5/2 4/6/2 8/7/2 7/8/2
f 7/9/3 8/10/3 6/11/3 5/12/3
f 5/13/4 6/14/4 2/15/4 1/16/4
f 3/17/5 7/18/5 5/19/5 1/20/5
f 8/21/6 4/22/6 2/23/6 6/24/6
f 9/25/1 10/26/1 12/27/1 11/28/1
f 11/29/2 12/30/2 16/31/2 15/32/2
f 15/33/3 16/34/3 14/35/3 13/36/3
f 13/37/4 14/38/4 10/39/4 9/40/4
f 11/41/5 15/42/5 13/43/5 9/44/5
f 16/45/6 12/46/6 10/47/6 14/48/6
f 17/49/1 18/50/1 20/51/1 19/52/1
f 19/53/2 20/54/2 24/55/2 23/56/2
f 23/57/3 24/58/3 22/59/3 21/60/3
f 21/61/4 22/62/4 18/63/4 17/64/4
f 19/65/5 23/66/5 21/67/5 17/68/5
f 24/69/6 20/70/6 18/71/6 22/72/6
f 38/73/6 39/74/6 31/75/6 27/76/6
f 43/77/4 27/78/4 31/79/4 42/80/4
f 46/81/1 35/82/1 29/83/1 44/84/1
f 37/85/5 40/86/5 28/87/5 32/88/5
f 48/89/3 38/90/3 27/91/3 43/92/3
f 44/93/2 29/94/2 25/95/2 41/96/2
f 41/97/3 25/98/3 34/99/3 45/100/3
f 30/101/5 26/102/5 36/103/5 33/104/5
f 47/105/1 39/106/1 35/82/1 46/81/1
f 25/107/6 29/108/6 35/109/6 34/110/6
f 42/111/1 31/112/1 39/106/1 47/105/1
f 45/100/3 34/99/3 38/90/3 48/89/3
f 33/104/5 36/103/5 40/86/5 37/85/5
f 34/110/6 35/109/6 39/74/6 38/73/6
f 52/113/3 45/100/3 48/89/3 55/114/3
f 56/115/1 42/111/1 47/105/1 54/116/1
f 47/117/5 46/118/5 58/119/5 57/120/5
f 49/121/3 41/97/3 45/100/3 52/113/3
f 51/122/2 44/93/2 41/96/2 49/123/2
f 55/114/3 48/89/3 43/92/3 50/124/3
f 53/125/1 46/81/1 44/84/1 51/126/1
f 50/127/4 43/77/4 42/80/4 56/128/4
f 28/129/4 50/127/4 56/128/4 32/130/4
f 33/131/1 53/125/1 51/126/1 30/132/1
f 40/133/3 55/114/3 50/124/3 28/134/3
f 30/135/2 51/122/2 49/123/2 26/136/2
f 26/137/3 49/121/3 52/113/3 36/138/3
f 37/139/1 54/116/1 53/125/1 33/131/1
f 32/140/1 56/115/1 54/116/1 37/139/1
f 36/138/3 52/113/3 55/114/3 40/133/3
f 60/141/1 57/142/1 58/143/1 59/144/1
f 54/145/2 47/146/2 57/147/2 60/148/2
f 46/149/4 53/150/4 59/151/4 58/152/4
f 53/153/6 54/154/6 60/155/6 59/156/6
f 61/157/1 62/158/1 64/159/1 63/160/1
f 63/161/2 64/162/2 68/163/2 67/164/2
f 67/165/3 68/166/3 66/167/3 65/168/3
f 65/169/4 66/170/4 62/171/4 61/172/4
f 63/173/5 67/174/5 65/175/5 61/176/5
f 68/177/6 64/178/6 62/179/6 66/180/6
f 69/181/1 70/182/1 72/183/1 71/184/1
f 71/185/2 72/186/2 76/187/2 75/188/2
f 75/189/3 76/190/3 74/191/3 73/192/3
f 73/193/4 74/194/4 70/195/4 69/196/4
f 71/197/5 75/198/5 73/199/5 69/200/5
f 76/201/6 72/202/6 70/203/6 74/204/6
f 77/205/1 78/206/1 80/207/1 79/208/1
f 79/209/2 80/210/2 84/211/2 83/212/2
f 83/213/3 84/214/3 82/215/3 81/216/3
f 81/217/4 82/218/4 78/219/4 77/220/4
f 79/221/5 83/222/5 81/223/5 77/224/5
f 84/225/6 80/226/6 78/227/6 82/228/6
f 85/229/1 86/230/1 88/231/1 87/232/1
f 87/233/2 88/234/2 92/235/2 91/236/2
f 91/237/3 92/238/3 90/239/3 89/240/3
f 89/241/4 90/242/4 86/243/4 85/244/4
f 87/245/5 91/246/5 89/247/5 85/248/5
f 92/249/6 88/250/6 86/251/6 90/252/6
f 93/253/1 94/254/1 96/255/1 95/256/1
f 95/257/2 96/258/2 100/259/2 99/260/2
f 99/261/3 100/262/3 98/263/3 97/264/3
f 97/265/4 98/266/4 94/267/4 93/268/4
f 95/269/5 99/270/5 97/271/5 93/272/5
f 100/273/6 96/274/6 94/275/6 98/276/6
f 101/277/1 102/278/1 104/279/1 103/280/1
f 103/281/2 104/282/2 108/283/2 107/284/2
f 107/285/3 108/286/3 106/287/3 105/288/3
f 105/289/4 106/290/4 102/291/4 101/292/4
f 103/293/5 107/294/5 105/295/5 101/296/5
f 108/297/6 104/298/6 102/299/6 106/300/6
f 109/301/1 110/302/1 112/303/1 111/304/1
f 111/305/2 112/306/2 116/307/2 115/308/2
f 115/309/3 116/310/3 114/311/3 113/312/3
f 113/313/4 114/314/4 110/315/4 109/316/4
f 111/317/5 115/318/5 113/319/5 109/320/5
f 116/321/6 112/322/6 110/323/6 114/324/6
f 117/325/1 118/326/1 120/327/1 119/328/1
f 119/329/2 120/330/2 124/331/2 123/332/2
f 123/333/3 124/334/3 122/335/3 121/336/3
f 121/337/4 122/338/4 118/339/4 117/340/4
f 119/341/5 123/342/5 121/343/5 117/344/5
f 124/345/6 120/346/6 118/347/6 122/348/6
f 125/349/1 126/350/1 128/351/1 127/352/1
f 127/353/2 128/354/2 132/355/2 131/356/2
f 131/357/3 132/358/3 130/359/3 129/360/3
f 129/361/4 130/362/4 126/363/4 125/364/4
f 127/365/5 131/366/5 129/367/5 125/368/5
f 132/369/6 128/370/6 126/371/6 130/372/6
