# Made in Blockbench 4.7.2
mtllib 1.mtl

o cube
v 1.5 2.4374999999999996 0.3125
v 1.5 2.4374999999999996 0.0625
v 1.5 0 0.3125
v 1.5 0 0.0625
v -1.625 2.4374999999999996 0.3125
v -1.625 2.4374999999999996 0.0625
v -1.625 0 0.3125
v -1.625 0 0.0625
vt 0.671875 0.251953125
vt 0.6640625 0.251953125
vt 0.6640625 0.17578125
vt 0.671875 0.17578125
vt 0.681640625 0.17578125
vt 0.681640625 0.251953125
vt 0.673828125 0.251953125
vt 0.673828125 0.17578125
vt 0.740234375 0.958984375
vt 0.837890625 0.958984375
vt 0.837890625 0.966796875
vt 0.740234375 0.966796875
vt 0.837890625 0.94921875
vt 0.837890625 0.95703125
vt 0.740234375 0.95703125
vt 0.740234375 0.94921875
vt 0.4921875 0.533203125
vt 0.4921875 0.609375
vt 0.39453125 0.609375
vt 0.39453125 0.533203125
vt 0.197265625 0.58984375
vt 0.099609375 0.58984375
vt 0.099609375 0.513671875
vt 0.197265625 0.513671875
vn 1 0 0
vn -1 0 0
vn 0 1 0
vn 0 -1 0
vn 0 0 1
vn 0 0 -1
usemtl m_f2baeee4-fb64-2c85-3b7f-acfd3bebe643
f 2/1/1 1/2/1 3/3/1 4/4/1
f 7/5/2 5/6/2 6/7/2 8/8/2
f 5/9/3 1/10/3 2/11/3 6/12/3
f 4/13/4 3/14/4 7/15/4 8/16/4
f 3/17/5 1/18/5 5/19/5 7/20/5
f 6/21/6 2/22/6 4/23/6 8/24/6