# Made in Blockbench 4.7.2
mtllib 10.mtl

o cube
v 0.34375 1.5437500000000002 -0.1687499999999993
v 0.34375 1.5437500000000002 -0.3937500000000007
v 0.34375 1.0187500000000005 -0.1687499999999993
v 0.34375 1.0187500000000005 -0.3937500000000007
v -0.53125 1.5437500000000002 -0.1687499999999993
v -0.53125 1.5437500000000002 -0.3937500000000007
v -0.53125 1.0187500000000005 -0.1687499999999993
v -0.53125 1.0187500000000005 -0.3937500000000007
vt 0.462890625 0.6484375
vt 0.455078125 0.6484375
vt 0.455078125 0.6328125
vt 0.462890625 0.6328125
vt 0.068359375 0.517578125
vt 0.068359375 0.533203125
vt 0.060546875 0.533203125
vt 0.060546875 0.517578125
vt 0.041015625 0.45703125
vt 0.068359375 0.45703125
vt 0.068359375 0.46484375
vt 0.041015625 0.46484375
vt 0.16015625 0.392578125
vt 0.16015625 0.400390625
vt 0.1328125 0.400390625
vt 0.1328125 0.392578125
vt 0.806640625 0.7890625
vt 0.806640625 0.8046875
vt 0.779296875 0.8046875
vt 0.779296875 0.7890625
vt 0.197265625 0.21875
vt 0.169921875 0.21875
vt 0.169921875 0.203125
vt 0.197265625 0.203125
vn 1 0 0
vn -1 0 0
vn 0 1 0
vn 0 -1 0
vn 0 0 1
vn 0 0 -1
usemtl none
f 2/1/1 1/2/1 3/3/1 4/4/1
f 7/5/2 5/6/2 6/7/2 8/8/2
f 5/9/3 1/10/3 2/11/3 6/12/3
f 4/13/4 3/14/4 7/15/4 8/16/4
f 3/17/5 1/18/5 5/19/5 7/20/5
f 6/21/6 2/22/6 4/23/6 8/24/6