# Made in Blockbench 4.7.2
mtllib 13.mtl

o cube
v -1.231249987355945 0.7124999682085869 -1.0312499994484745
v 0.23750001264405374 0.7125000301117712 -1.0312499994484745
v -1.231249987355945 0.7124999681511363 -1.0624999994484745
v 0.23750001264405374 0.7125000300543205 -1.0624999994484745
v -1.231249989726705 0.7687499682085869 -1.0312499995518856
v 0.23750001027329348 0.7687500301117712 -1.0312499995518856
v -1.231249989726705 0.7687499681511363 -1.0624999995518856
v 0.23750001027329348 0.7687500300543206 -1.0624999995518856
vt 0.900390625 0.388671875
vt 0.853515625 0.388671875
vt 0.853515625 0.38671875
vt 0.900390625 0.38671875
vt 0.900390625 0.3828125
vt 0.900390625 0.384765625
vt 0.853515625 0.384765625
vt 0.853515625 0.3828125
vt 0.408203125 0.103515625
vt 0.41015625 0.103515625
vt 0.41015625 0.150390625
vt 0.408203125 0.150390625
vt 0.4140625 0.103515625
vt 0.4140625 0.150390625
vt 0.412109375 0.150390625
vt 0.412109375 0.103515625
vt 0.5 0.544921875
vt 0.5 0.546875
vt 0.498046875 0.546875
vt 0.498046875 0.544921875
vt 0.470703125 0.501953125
vt 0.46875 0.501953125
vt 0.46875 0.5
vt 0.470703125 0.5
vn 4.214684889980447e-8 -0.9999999999999991 1.8384198607890295e-9
vn -4.214684889980447e-8 0.9999999999999991 -1.8384198607890295e-9
vn -7.748360408707486e-17 1.8384198607890295e-9 1
vn 7.748360408707486e-17 -1.8384198607890295e-9 -1
vn -0.9999999999999991 -4.214684889980447e-8 7.748360408707486e-17
vn 0.9999999999999991 4.214684889980447e-8 -7.748360408707486e-17
usemtl none
f 2/1/1 1/2/1 3/3/1 4/4/1
f 7/5/2 5/6/2 6/7/2 8/8/2
f 5/9/3 1/10/3 2/11/3 6/12/3
f 4/13/4 3/14/4 7/15/4 8/16/4
f 3/17/5 1/18/5 5/19/5 7/20/5
f 6/21/6 2/22/6 4/23/6 8/24/6
o cube
v 0.2875000000000001 0.7124999999999999 -1.0312500000000004
v 0.2875000000000001 1.8375 -1.0312500000000007
v 0.2875000000000001 0.7124999999999999 -1.0625000000000004
v 0.2875000000000001 1.8375 -1.0625000000000007
v 0.23125000000000007 0.7124999999999999 -1.0312500000000004
v 0.23125000000000007 1.8375 -1.0312500000000007
v 0.23125000000000007 0.7124999999999999 -1.0625000000000004
v 0.23125000000000007 1.8375 -1.0625000000000007
vt 0.103515625 0.3125
vt 0.068359375 0.3125
vt 0.068359375 0.310546875
vt 0.103515625 0.310546875
vt 0.728515625 0.724609375
vt 0.728515625 0.7265625
vt 0.693359375 0.7265625
vt 0.693359375 0.724609375
vt 0.2421875 0.201171875
vt 0.244140625 0.201171875
vt 0.244140625 0.236328125
vt 0.2421875 0.236328125
vt 0.80859375 0.099609375
vt 0.80859375 0.134765625
vt 0.806640625 0.134765625
vt 0.806640625 0.099609375
vt 0.189453125 0.626953125
vt 0.189453125 0.62890625
vt 0.1875 0.62890625
vt 0.1875 0.626953125
vt 0.365234375 0.556640625
vt 0.36328125 0.556640625
vt 0.36328125 0.5546875
vt 0.365234375 0.5546875
vn 1 0 0
vn -1 0 0
vn 0 2.220446049250313e-16 1
vn 0 -2.220446049250313e-16 -1
vn 0 -1 2.220446049250313e-16
vn 0 1 -2.220446049250313e-16
usemtl none
f 10/25/7 9/26/7 11/27/7 12/28/7
f 15/29/8 13/30/8 14/31/8 16/32/8
f 13/33/9 9/34/9 10/35/9 14/36/9
f 12/37/10 11/38/10 15/39/10 16/40/10
f 11/41/11 9/42/11 13/43/11 15/44/11
f 14/45/12 10/46/12 12/47/12 16/48/12
o cube
v -0.4124999999999999 0.7124999999999999 -1.0562500000000006
v -0.4124999999999999 1.8375 -1.0562500000000008
v -0.4124999999999999 0.7124999999999999 -1.0875000000000004
v -0.4124999999999999 1.8375 -1.0875000000000006
v -0.59375 0.7124999999999999 -1.0562500000000006
v -0.59375 1.8375 -1.0562500000000008
v -0.59375 0.7124999999999999 -1.0875000000000004
v -0.59375 1.8375 -1.0875000000000006
vt 0.892578125 0.732421875
vt 0.857421875 0.732421875
vt 0.857421875 0.73046875
vt 0.892578125 0.73046875
vt 0.892578125 0.681640625
vt 0.892578125 0.68359375
vt 0.857421875 0.68359375
vt 0.857421875 0.681640625
vt 0.3515625 0.943359375
vt 0.357421875 0.943359375
vt 0.357421875 0.978515625
vt 0.3515625 0.978515625
vt 0.361328125 0.865234375
vt 0.361328125 0.900390625
vt 0.35546875 0.900390625
vt 0.35546875 0.865234375
vt 0.375 0.224609375
vt 0.375 0.2265625
vt 0.369140625 0.2265625
vt 0.369140625 0.224609375
vt 0.55078125 0.201171875
vt 0.544921875 0.201171875
vt 0.544921875 0.19921875
vt 0.55078125 0.19921875
vn 1 0 0
vn -1 0 0
vn 0 2.220446049250313e-16 1
vn 0 -2.220446049250313e-16 -1
vn 0 -1 2.220446049250313e-16
vn 0 1 -2.220446049250313e-16
usemtl none
f 18/49/13 17/50/13 19/51/13 20/52/13
f 23/53/14 21/54/14 22/55/14 24/56/14
f 21/57/15 17/58/15 18/59/15 22/60/15
f 20/61/16 19/62/16 23/63/16 24/64/16
f 19/65/17 17/66/17 21/67/17 23/68/17
f 22/69/18 18/70/18 20/71/18 24/72/18
o cube
v 0.28125 0.71875 -0.9874999999999998
v 0.28125 0.71875 -1.3375000000000001
v 0.28125 0.65625 -0.9874999999999998
v 0.28125 0.65625 -1.3375000000000001
v -1.28125 0.71875 -0.9874999999999998
v -1.28125 0.71875 -1.3375000000000001
v -1.28125 0.65625 -0.9874999999999998
v -1.28125 0.65625 -1.3375000000000001
v -1.28125 0.65625 -1.1625
v -1.28125 0.71875 -1.1625
v 0.28125 0.71875 -1.1625
v 0.28125 0.65625 -1.1625
v -1.28125 0.65625 -1.25
v -1.28125 0.71875 -1.25
v 0.28125 0.71875 -1.25
v 0.28125 0.65625 -1.25
v -1.28125 0.65625 -1.2937500000000002
v -1.28125 0.71875 -1.2937500000000002
v 0.28125 0.71875 -1.2937500000000002
v 0.28125 0.65625 -1.2937500000000002
v 0.28125 0.6249999999999999 -1.3375000000000001
v 0.28125 0.6249999999999999 -1.2937500000000002
v -1.28125 0.6249999999999999 -1.2937500000000002
v -1.28125 0.6249999999999999 -1.3375000000000001
vt 0.906396484375 0.841796875
vt 0.911865234375 0.841796875
vt 0.911865234375 0.84375
vt 0.906396484375 0.84375
vt 0.917333984375 0.71875
vt 0.911865234375 0.71875
vt 0.911865234375 0.716796875
vt 0.917333984375 0.716796875
vt 0.806640625 0.67265625
vt 0.806640625 0.678125
vt 0.7578125 0.678125
vt 0.7578125 0.67265625
vt 0.7578125 0.5642578125
vt 0.7578125 0.5587890625
vt 0.806640625 0.5587890625
vt 0.806640625 0.5642578125
vt 0.90234375 0.92578125
vt 0.90234375 0.927734375
vt 0.853515625 0.927734375
vt 0.853515625 0.92578125
vt 0.880859375 0.31640625
vt 0.83203125 0.31640625
vt 0.83203125 0.314453125
vt 0.880859375 0.314453125
vt 0.911865234375 0.71875
vt 0.909130859375 0.71875
vt 0.909130859375 0.716796875
vt 0.911865234375 0.716796875
vt 0.806640625 0.678125
vt 0.806640625 0.680859375
vt 0.7578125 0.680859375
vt 0.7578125 0.678125
vt 0.911865234375 0.841796875
vt 0.914599609375 0.841796875
vt 0.914599609375 0.84375
vt 0.911865234375 0.84375
vt 0.7578125 0.5587890625
vt 0.7578125 0.5560546875
vt 0.806640625 0.5560546875
vt 0.806640625 0.5587890625
vt 0.909130859375 0.71875
vt 0.907763671875 0.71875
vt 0.907763671875 0.716796875
vt 0.909130859375 0.716796875
vt 0.806640625 0.680859375
vt 0.806640625 0.6822265625
vt 0.7578125 0.6822265625
vt 0.7578125 0.680859375
vt 0.914599609375 0.841796875
vt 0.915966796875 0.841796875
vt 0.915966796875 0.84375
vt 0.914599609375 0.84375
vt 0.7578125 0.5560546875
vt 0.7578125 0.5546875
vt 0.806640625 0.5546875
vt 0.806640625 0.5560546875
vt 0.906396484375 0.716796875
vt 0.907763671875 0.716796875
vt 0.907763671875 0.71875
vt 0.906396484375 0.71875
vt 0.7578125 0.68359375
vt 0.7578125 0.6822265625
vt 0.806640625 0.6822265625
vt 0.806640625 0.68359375
vt 0.917333984375 0.84375
vt 0.915966796875 0.84375
vt 0.915966796875 0.841796875
vt 0.917333984375 0.841796875
vt 0.90234375 0.921875
vt 0.90234375 0.923828125
vt 0.853515625 0.923828125
vt 0.853515625 0.921875
vt 0.915966796875 0.8408203125
vt 0.917333984375 0.8408203125
vt 0.917333984375 0.841796875
vt 0.915966796875 0.841796875
vt 0.853515625 0.91796875
vt 0.90234375 0.91796875
vt 0.90234375 0.919921875
vt 0.853515625 0.919921875
vt 0.906396484375 0.7158203125
vt 0.907763671875 0.7158203125
vt 0.907763671875 0.716796875
vt 0.906396484375 0.716796875
vt 0.83203125 0.3134765625
vt 0.880859375 0.3134765625
vt 0.880859375 0.314453125
vt 0.83203125 0.314453125
vn 1 0 0
vn -1 0 0
vn 0 1 0
vn 0 -1 0
vn 0 0 1
vn 0 0 -1
vn -1 0 0
vn 0 1 0
vn 1 0 0
vn 0 -1 0
vn -1 0 0
vn 0 1 0
vn 1 0 0
vn 0 -1 0
vn -1 0 0
vn 0 1 0
vn 1 0 0
vn 0 -1 0
vn 1 0 0
vn 0 0 1
vn -1 0 0
vn 0 0 -1
usemtl none
f 27/73/19 36/74/19 35/75/19 25/76/19
f 29/77/20 34/78/20 33/79/20 31/80/20
f 25/81/21 35/82/21 34/83/21 29/84/21
f 31/85/22 33/86/22 36/87/22 27/88/22
f 27/89/23 25/90/23 29/91/23 31/92/23
f 30/93/24 26/94/24 28/95/24 32/96/24
f 34/97/25 38/98/25 37/99/25 33/100/25
f 35/101/26 39/102/26 38/103/26 34/104/26
f 36/105/27 40/106/27 39/107/27 35/108/27
f 33/109/28 37/110/28 40/111/28 36/112/28
f 38/113/29 42/114/29 41/115/29 37/116/29
f 39/117/30 43/118/30 42/119/30 38/120/30
f 40/121/31 44/122/31 43/123/31 39/124/31
f 37/125/32 41/126/32 44/127/32 40/128/32
f 32/129/33 41/130/33 42/131/33 30/132/33
f 30/133/34 42/134/34 43/135/34 26/136/34
f 26/137/35 43/138/35 44/139/35 28/140/35
f 45/141/36 46/142/36 47/143/36 48/144/36
f 46/145/37 45/146/37 28/147/37 44/148/37
f 47/149/38 46/150/38 44/151/38 41/152/38
f 48/153/39 47/154/39 41/155/39 32/156/39
f 45/157/40 48/158/40 32/159/40 28/160/40
o cube
v -1.231250032136972 1.774999968208586 -1.0312500014017956
v 0.23749996786302674 1.7750000301117703 -1.0312500014017956
v -1.231250032136972 1.7749999681511355 -1.0625000014017956
v 0.23749996786302674 1.7750000300543196 -1.0625000014017956
v -1.2312500345077322 1.8312499682085859 -1.0312500015052066
v 0.23749996549226648 1.8312500301117702 -1.0312500015052066
v -1.2312500345077322 1.8312499681511354 -1.0625000015052066
v 0.23749996549226648 1.8312500300543195 -1.0625000015052066
vt 0.900390625 0.41796875
vt 0.853515625 0.41796875
vt 0.853515625 0.416015625
vt 0.900390625 0.416015625
vt 0.900390625 0.412109375
vt 0.900390625 0.4140625
vt 0.853515625 0.4140625
vt 0.853515625 0.412109375
vt 0.71484375 0.10546875
vt 0.716796875 0.10546875
vt 0.716796875 0.15234375
vt 0.71484375 0.15234375
vt 0.17578125 0.103515625
vt 0.17578125 0.150390625
vt 0.173828125 0.150390625
vt 0.173828125 0.103515625
vt 0.486328125 0.5234375
vt 0.486328125 0.525390625
vt 0.484375 0.525390625
vt 0.484375 0.5234375
vt 0.32421875 0.50390625
vt 0.322265625 0.50390625
vt 0.322265625 0.501953125
vt 0.32421875 0.501953125
vn 4.214684889980447e-8 -0.9999999999999991 1.8384198607890295e-9
vn -4.214684889980447e-8 0.9999999999999991 -1.8384198607890295e-9
vn -7.748360408707486e-17 1.8384198607890295e-9 1
vn 7.748360408707486e-17 -1.8384198607890295e-9 -1
vn -0.9999999999999991 -4.214684889980447e-8 7.748360408707486e-17
vn 0.9999999999999991 4.214684889980447e-8 -7.748360408707486e-17
usemtl none
f 50/161/41 49/162/41 51/163/41 52/164/41
f 55/165/42 53/166/42 54/167/42 56/168/42
f 53/169/43 49/170/43 50/171/43 54/172/43
f 52/173/44 51/174/44 55/175/44 56/176/44
f 51/177/45 49/178/45 53/179/45 55/180/45
f 54/181/46 50/182/46 52/183/46 56/184/46
o cube
v -1.2312499999999997 0.7124999999999999 -1.0312500000000004
v -1.2312499999999997 1.8375 -1.0312500000000007
v -1.2312499999999997 0.7124999999999999 -1.0625000000000004
v -1.2312499999999997 1.8375 -1.0625000000000007
v -1.2874999999999999 0.7124999999999999 -1.0312500000000004
v -1.2874999999999999 1.8375 -1.0312500000000007
v -1.2874999999999999 0.7124999999999999 -1.0625000000000004
v -1.2874999999999999 1.8375 -1.0625000000000007
vt 0.892578125 0.740234375
vt 0.857421875 0.740234375
vt 0.857421875 0.73828125
vt 0.892578125 0.73828125
vt 0.892578125 0.734375
vt 0.892578125 0.736328125
vt 0.857421875 0.736328125
vt 0.857421875 0.734375
vt 0.1171875 0.09765625
vt 0.119140625 0.09765625
vt 0.119140625 0.1328125
vt 0.1171875 0.1328125
vt 0.15625 0.09765625
vt 0.15625 0.1328125
vt 0.154296875 0.1328125
vt 0.154296875 0.09765625
vt 0.306640625 0.529296875
vt 0.306640625 0.53125
vt 0.3046875 0.53125
vt 0.3046875 0.529296875
vt 0.314453125 0.53125
vt 0.3125 0.53125
vt 0.3125 0.529296875
vt 0.314453125 0.529296875
vn 1 0 0
vn -1 0 0
vn 0 2.220446049250313e-16 1
vn 0 -2.220446049250313e-16 -1
vn 0 -1 2.220446049250313e-16
vn 0 1 -2.220446049250313e-16
usemtl none
f 58/185/47 57/186/47 59/187/47 60/188/47
f 63/189/48 61/190/48 62/191/48 64/192/48
f 61/193/49 57/194/49 58/195/49 62/196/49
f 60/197/50 59/198/50 63/199/50 64/200/50
f 59/201/51 57/202/51 61/203/51 63/204/51
f 62/205/52 58/206/52 60/207/52 64/208/52