# Made in Blockbench 4.7.2
mtllib 27.mtl

o cylinder
v -1.5124999999999993 0.875000002607699 0.08124999813735487
v 1.625000028312214 -1.0249999506398961 0.08124999813735918
v -1.5124999997030915 0.8550748680128861 0.13124999813735472
v 1.6250000286091213 -1.044925085234709 0.13124999813735902
v -1.5124999994061838 0.835149733418073 0.08124999813735496
v 1.6250000289060291 -1.064850219829522 0.08124999813735928
v -1.5124999997030915 0.8550748680128859 0.03124999813735511
v 1.6250000286091213 -1.0449250852347092 0.03124999813735943
v -1.512500000296907 0.8949251372025115 0.03124999813735502
v 1.625000028015306 -1.0050748160450835 0.031249998137359337
v -1.5125000005938147 0.9148502717973248 0.08124999813735477
v 1.6250000277183982 -0.9851496814502703 0.0812499981373591
v -1.512500000296907 0.8949251372025119 0.1312499981373546
v 1.625000028015306 -1.0050748160450833 0.13124999813735894
v -1.350000000296907 0.8949251396239509 0.03124999813735502
v -1.3499999997030916 0.8550748704343252 0.03124999813735511
v -1.3499999994061838 0.8351497358395122 0.08124999813735496
v -1.3499999997030916 0.8550748704343254 0.13124999813735472
v -1.350000000296907 0.8949251396239511 0.1312499981373546
v -1.3500000005938146 0.9148502742187641 0.08124999813735477
v -1.268750000296907 0.8949251408346706 0.03124999813735502
v -1.2687499997030915 0.8550748716450449 0.03124999813735511
v -1.268749999406184 0.835149737050232 0.08124999813735496
v -1.2687499997030915 0.8550748716450451 0.13124999813735472
v -1.268750000296907 0.8949251408346709 0.1312499981373546
v -1.2687500005938148 0.9148502754294838 0.08124999813735477
vt 0.75661640625 0.07431640625000002
vt 0.75599375 0.07587890625000004
vt 0.75537109375 0.07431640625000002
vt 0.477321875 0.48046875
vt 0.455341796875 0.3745453125
vt 0.457023828125 0.3745453125
vt 0.47900390625 0.48046875
vt 0.738415625 0.07304687499999996
vt 0.73903828125 0.07460937499999998
vt 0.73779296875 0.07460937499999998
vt 0.75599375 0.07275390625
vt 0.75661640625 0.07431640625000002
vt 0.75537109375 0.07431640625000002
vt 0.42578125 0.509765625
vt 0.447761328125 0.4038421875
vt 0.449443359375 0.4038421875
vt 0.42746328125 0.509765625
vt 0.73903828125 0.07460937499999998
vt 0.738415625 0.076171875
vt 0.73779296875 0.07460937499999998
vt 0.7547484375 0.07275390625
vt 0.75599375 0.07275390625
vt 0.75537109375 0.07431640625000002
vt 0.123254296875 0.70703125
vt 0.182629296875 0.6166015625
vt 0.183874609375 0.6166015625
vt 0.124499609375 0.70703125
vt 0.738415625 0.076171875
vt 0.7371703125 0.076171875
vt 0.73779296875 0.07460937499999998
vt 0.75412578125 0.07431640625000002
vt 0.7547484375 0.07275390625
vt 0.75537109375 0.07431640625000002
vt 0.7032910156250001 0.1522460937500001
vt 0.703249609375 0.10364667968750041
vt 0.704931640625 0.10364667968750041
vt 0.7049730468750001 0.1522460937500001
vt 0.7371703125 0.076171875
vt 0.73654765625 0.07460937499999998
vt 0.73779296875 0.07460937499999998
vt 0.7547484375 0.07587890625000004
vt 0.75412578125 0.07431640625000002
vt 0.75537109375 0.07431640625000002
vt 0.7110425781250002 0.15229492187499993
vt 0.7111328125 0.10359785156249979
vt 0.71281484375 0.10359785156249979
vt 0.7127246093750002 0.15229492187499993
vt 0.73654765625 0.07460937499999998
vt 0.7371703125 0.07304687499999996
vt 0.73779296875 0.07460937499999998
vt 0.75599375 0.07587890625000004
vt 0.7547484375 0.07587890625000004
vt 0.75537109375 0.07431640625000002
vt 0.508801171875 0.552734375
vt 0.449426171875 0.4623046875
vt 0.450671484375 0.4623046875
vt 0.510046484375 0.552734375
vt 0.7371703125 0.07304687499999996
vt 0.738415625 0.07304687499999996
vt 0.73779296875 0.07460937499999998
vt 0.183874609375 0.608984375
vt 0.183874609375 0.6140625
vt 0.182629296875 0.6140625
vt 0.182629296875 0.608984375
vt 0.449443359375 0.39622500000000005
vt 0.449443359375 0.401303125
vt 0.447761328125 0.401303125
vt 0.447761328125 0.39622500000000005
vt 0.457023828125 0.36692812500000005
vt 0.457023828125 0.37200625
vt 0.455341796875 0.37200625
vt 0.455341796875 0.36692812500000005
vt 0.450671484375 0.4546875
vt 0.450671484375 0.45976562499999996
vt 0.449426171875 0.45976562499999996
vt 0.449426171875 0.4546875
vt 0.46847890625 0.3845060546875
vt 0.46847890625 0.38958417968750003
vt 0.466796875 0.38958417968750003
vt 0.466796875 0.3845060546875
vt 0.32275390625 0.4059904296875
vt 0.32275390625 0.41106855468750003
vt 0.3203882812499999 0.41106855468750003
vt 0.32038828124999985 0.4059904296875
vt 0.183874609375 0.6140625
vt 0.183874609375 0.6166015625
vt 0.182629296875 0.6166015625
vt 0.182629296875 0.6140625
vt 0.449443359375 0.401303125
vt 0.449443359375 0.4038421875
vt 0.447761328125 0.4038421875
vt 0.447761328125 0.401303125
vt 0.457023828125 0.37200625
vt 0.457023828125 0.3745453125
vt 0.455341796875 0.3745453125
vt 0.455341796875 0.37200625
vt 0.450671484375 0.45976562499999996
vt 0.450671484375 0.4623046875
vt 0.449426171875 0.4623046875
vt 0.449426171875 0.45976562499999996
vt 0.46847890625 0.38958417968750003
vt 0.46847890625 0.39212324218750005
vt 0.466796875 0.39212324218750005
vt 0.466796875 0.38958417968750003
vt 0.32275390625 0.41106855468750003
vt 0.32275390625 0.41360761718750005
vt 0.3203882812499999 0.41360761718750005
vt 0.3203882812499999 0.41106855468750003
vn -1 -1.4901165190650548e-8 6.0243088660432755e-31
vn -0.520722215965172 -0.7930736638892344 0.3160419868397657
vn 1 1.4901165190650548e-8 -6.0243088660432755e-31
vn -1 -1.4901165190650548e-8 6.0243088660432755e-31
vn -0.5207222159651728 -0.7930736638892368 -0.3160419868397577
vn 1 1.4901165190650548e-8 -6.0243088660432755e-31
vn -1 -1.4901165190650548e-8 6.0243088660432755e-31
vn 3.386271501464474e-23 -2.2724877535296173e-15 -1
vn 1 1.4901165190650548e-8 -6.0243088660432755e-31
vn -1 -1.4901165190650548e-8 6.0243088660432755e-31
vn 0.5207222159651728 0.7930736638892355 -0.31604198683976126
vn 1 1.4901165190650548e-8 -6.0243088660432755e-31
vn -1 -1.4901165190650548e-8 6.0243088660432755e-31
vn 0.5207222159651721 0.793073663889236 0.3160419868397622
vn 1 1.4901165190650548e-8 -6.0243088660432755e-31
vn -1 -1.4901165190650548e-8 6.0243088660432755e-31
vn -3.386271501464474e-23 2.2724877535296173e-15 1
vn 1 1.4901165190650548e-8 -6.0243088660432755e-31
vn 3.386271501464474e-23 -2.2724877535296173e-15 -1
vn 1.3842520083944614e-8 -0.9289555485654128 -0.37019128675528373
vn 1.3842520083944588e-8 -0.9289555485654111 0.370191286755288
vn -3.386271501464474e-23 2.2724877535296173e-15 1
vn -1.3842520083944614e-8 0.9289555485654128 0.3701912867552838
vn -1.3842520083944588e-8 0.9289555485654111 -0.37019128675528795
vn 3.386271501464474e-23 -2.2724877535296173e-15 -1
vn 1.3842520083944616e-8 -0.928955548565413 -0.3701912867552838
vn 1.384252008394459e-8 -0.9289555485654112 0.370191286755288
vn -3.386271501464474e-23 2.2724877535296173e-15 1
vn -1.3842520083944616e-8 0.928955548565413 0.3701912867552838
vn -1.384252008394459e-8 0.9289555485654112 -0.370191286755288
usemtl none
f 5/1/1 3/2/1 1/3/1
f 4/4/2 24/5/2 23/6/2 6/7/2
f 4/8/3 6/9/3 2/10/3
f 7/11/4 5/12/4 1/13/4
f 6/14/5 23/15/5 22/16/5 8/17/5
f 6/18/6 8/19/6 2/20/6
f 9/21/7 7/22/7 1/23/7
f 8/24/8 22/25/8 21/26/8 10/27/8
f 8/28/9 10/29/9 2/30/9
f 11/31/10 9/32/10 1/33/10
f 10/34/11 21/35/11 26/36/11 12/37/11
f 10/38/12 12/39/12 2/40/12
f 13/41/13 11/42/13 1/43/13
f 12/44/14 26/45/14 25/46/14 14/47/14
f 12/48/15 14/49/15 2/50/15
f 3/51/16 13/52/16 1/53/16
f 14/54/17 25/55/17 24/56/17 4/57/17
f 14/58/18 4/59/18 2/60/18
f 9/61/19 15/62/19 16/63/19 7/64/19
f 7/65/20 16/66/20 17/67/20 5/68/20
f 5/69/21 17/70/21 18/71/21 3/72/21
f 3/73/22 18/74/22 19/75/22 13/76/22
f 13/77/23 19/78/23 20/79/23 11/80/23
f 11/81/24 20/82/24 15/83/24 9/84/24
f 15/85/25 21/86/25 22/87/25 16/88/25
f 16/89/26 22/90/26 23/91/26 17/92/26
f 17/93/27 23/94/27 24/95/27 18/96/27
f 18/97/28 24/98/28 25/99/28 19/100/28
f 19/101/29 25/102/29 26/103/29 20/104/29
f 20/105/30 26/106/30 21/107/30 15/108/30
o cube
v -1.0687499999999999 0.75 0.10000000000000053
v -1.0687499999999999 0.75 0.07500000000000018
v -1.0687499999999999 0 0.10000000000000053
v -1.0687499999999999 0 0.07500000000000018
v -1.1187500000000001 0.75 0.10000000000000053
v -1.1187500000000001 0.75 0.07500000000000018
v -1.1187500000000001 0 0.10000000000000053
v -1.1187500000000001 0 0.07500000000000018
vt 0.65625 0.10546875
vt 0.654296875 0.10546875
vt 0.654296875 0.08203125
vt 0.65625 0.08203125
vt 0.66015625 0.08203125
vt 0.66015625 0.10546875
vt 0.658203125 0.10546875
vt 0.658203125 0.08203125
vt 0.50390625 0.068359375
vt 0.505859375 0.068359375
vt 0.505859375 0.0703125
vt 0.50390625 0.0703125
vt 0.931640625 0.494140625
vt 0.931640625 0.49609375
vt 0.9296875 0.49609375
vt 0.9296875 0.494140625
vt 0.6640625 0.08203125
vt 0.6640625 0.10546875
vt 0.662109375 0.10546875
vt 0.662109375 0.08203125
vt 0.6796875 0.10546875
vt 0.677734375 0.10546875
vt 0.677734375 0.08203125
vt 0.6796875 0.08203125
vn 1 0 0
vn -1 0 0
vn 0 1 0
vn 0 -1 0
vn 0 0 1
vn 0 0 -1
usemtl none
f 28/109/31 27/110/31 29/111/31 30/112/31
f 33/113/32 31/114/32 32/115/32 34/116/32
f 31/117/33 27/118/33 28/119/33 32/120/33
f 30/121/34 29/122/34 33/123/34 34/124/34
f 29/125/35 27/126/35 31/127/35 33/128/35
f 32/129/36 28/130/36 30/131/36 34/132/36
o cube
v -0.5062499999999996 0.375 0.10000000000000053
v -0.5062499999999996 0.375 0.07500000000000018
v -0.5062499999999996 -0.375 0.10000000000000053
v -0.5062499999999996 -0.375 0.07500000000000018
v -0.5562500000000004 0.375 0.10000000000000053
v -0.5562500000000004 0.375 0.07500000000000018
v -0.5562500000000004 -0.375 0.10000000000000053
v -0.5562500000000004 -0.375 0.07500000000000018
vt 0.21875 0.103515625
vt 0.216796875 0.103515625
vt 0.216796875 0.080078125
vt 0.21875 0.080078125
vt 0.22265625 0.080078125
vt 0.22265625 0.103515625
vt 0.220703125 0.103515625
vt 0.220703125 0.080078125
vt 0.5078125 0.068359375
vt 0.509765625 0.068359375
vt 0.509765625 0.0703125
vt 0.5078125 0.0703125
vt 0.931640625 0.490234375
vt 0.931640625 0.4921875
vt 0.9296875 0.4921875
vt 0.9296875 0.490234375
vt 0.326171875 0.080078125
vt 0.326171875 0.103515625
vt 0.32421875 0.103515625
vt 0.32421875 0.080078125
vt 0.330078125 0.103515625
vt 0.328125 0.103515625
vt 0.328125 0.080078125
vt 0.330078125 0.080078125
vn 1 0 0
vn -1 0 0
vn 0 1 0
vn 0 -1 0
vn 0 0 1
vn 0 0 -1
usemtl none
f 36/133/37 35/134/37 37/135/37 38/136/37
f 41/137/38 39/138/38 40/139/38 42/140/38
f 39/141/39 35/142/39 36/143/39 40/144/39
f 38/145/40 37/146/40 41/147/40 42/148/40
f 37/149/41 35/150/41 39/151/41 41/152/41
f 40/153/42 36/154/42 38/155/42 42/156/42
o cube
v -0.006249999999999645 0.0625 0.10000000000000053
v -0.006249999999999645 0.0625 0.07500000000000018
v -0.006249999999999645 -0.6875 0.10000000000000053
v -0.006249999999999645 -0.6875 0.07500000000000018
v -0.056250000000000355 0.0625 0.10000000000000053
v -0.056250000000000355 0.0625 0.07500000000000018
v -0.056250000000000355 -0.6875 0.10000000000000053
v -0.056250000000000355 -0.6875 0.07500000000000018
vt 0.333984375 0.103515625
vt 0.33203125 0.103515625
vt 0.33203125 0.080078125
vt 0.333984375 0.080078125
vt 0.337890625 0.080078125
vt 0.337890625 0.103515625
vt 0.3359375 0.103515625
vt 0.3359375 0.080078125
vt 0.51171875 0.068359375
vt 0.513671875 0.068359375
vt 0.513671875 0.0703125
vt 0.51171875 0.0703125
vt 0.931640625 0.486328125
vt 0.931640625 0.48828125
vt 0.9296875 0.48828125
vt 0.9296875 0.486328125
vt 0.341796875 0.080078125
vt 0.341796875 0.103515625
vt 0.33984375 0.103515625
vt 0.33984375 0.080078125
vt 0.345703125 0.103515625
vt 0.34375 0.103515625
vt 0.34375 0.080078125
vt 0.345703125 0.080078125
vn 1 0 0
vn -1 0 0
vn 0 1 0
vn 0 -1 0
vn 0 0 1
vn 0 0 -1
usemtl none
f 44/157/43 43/158/43 45/159/43 46/160/43
f 49/161/44 47/162/44 48/163/44 50/164/44
f 47/165/45 43/166/45 44/167/45 48/168/45
f 46/169/46 45/170/46 49/171/46 50/172/46
f 45/173/47 43/174/47 47/175/47 49/176/47
f 48/177/48 44/178/48 46/179/48 50/180/48
o cube
v 0.49375000000000036 -0.25 0.10000000000000053
v 0.49375000000000036 -0.25 0.07500000000000018
v 0.49375000000000036 -1 0.10000000000000053
v 0.49375000000000036 -1 0.07500000000000018
v 0.44374999999999964 -0.25 0.10000000000000053
v 0.44374999999999964 -0.25 0.07500000000000018
v 0.44374999999999964 -1 0.10000000000000053
v 0.44374999999999964 -1 0.07500000000000018
vt 0.44140625 0.103515625
vt 0.439453125 0.103515625
vt 0.439453125 0.080078125
vt 0.44140625 0.080078125
vt 0.546875 0.080078125
vt 0.546875 0.103515625
vt 0.544921875 0.103515625
vt 0.544921875 0.080078125
vt 0.51953125 0.068359375
vt 0.521484375 0.068359375
vt 0.521484375 0.0703125
vt 0.51953125 0.0703125
vt 0.931640625 0.478515625
vt 0.931640625 0.48046875
vt 0.9296875 0.48046875
vt 0.9296875 0.478515625
vt 0.55078125 0.080078125
vt 0.55078125 0.103515625
vt 0.548828125 0.103515625
vt 0.548828125 0.080078125
vt 0.5546875 0.103515625
vt 0.552734375 0.103515625
vt 0.552734375 0.080078125
vt 0.5546875 0.080078125
vn 1 0 0
vn -1 0 0
vn 0 1 0
vn 0 -1 0
vn 0 0 1
vn 0 0 -1
usemtl none
f 52/181/49 51/182/49 53/183/49 54/184/49
f 57/185/50 55/186/50 56/187/50 58/188/50
f 55/189/51 51/190/51 52/191/51 56/192/51
f 54/193/52 53/194/52 57/195/52 58/196/52
f 53/197/53 51/198/53 55/199/53 57/200/53
f 56/201/54 52/202/54 54/203/54 58/204/54
o cube
v 0.9937500000000004 -0.5874999999999999 0.10000000000000053
v 0.9937500000000004 -0.6124999999999998 0.07500000000000018
v 0.9937500000000004 -1.3375000000000004 0.10000000000000053
v 0.9937500000000004 -1.3625000000000007 0.07500000000000018
v 0.9437499999999996 -0.5874999999999999 0.10000000000000053
v 0.9437499999999996 -0.6124999999999998 0.07500000000000018
v 0.9437499999999996 -1.3375000000000004 0.10000000000000053
v 0.9437499999999996 -1.3625000000000007 0.07500000000000018
vt 0.845703125 0.11250000000000004
vt 0.84375 0.11328125
vt 0.84375 0.08984375
vt 0.845703125 0.08906250000000004
vt 0.859375 0.08984375
vt 0.859375 0.11328125
vt 0.857421875 0.11250000000000004
vt 0.857421875 0.08906250000000004
vt 0.517578125 0.0703125
vt 0.515625 0.0703125
vt 0.515625 0.068359375
vt 0.517578125 0.068359375
vt 0.931640625 0.482421875
vt 0.931640625 0.484375
vt 0.9296875 0.484375
vt 0.9296875 0.482421875
vt 0.349609375 0.080078125
vt 0.349609375 0.103515625
vt 0.34765625 0.103515625
vt 0.34765625 0.080078125
vt 0.40625 0.103515625
vt 0.404296875 0.103515625
vt 0.404296875 0.080078125
vt 0.40625 0.080078125
vn 1 0 0
vn -1 0 0
vn 0 0.7071067811865539 -0.7071067811865412
vn 0 -0.7071067811865476 0.7071067811865476
vn 0 0 1
vn 0 0 -1
usemtl none
f 60/205/55 59/206/55 61/207/55 62/208/55
f 65/209/56 63/210/56 64/211/56 66/212/56
f 63/213/57 59/214/57 60/215/57 64/216/57
f 62/217/58 61/218/58 65/219/58 66/220/58
f 61/221/59 59/222/59 63/223/59 65/224/59
f 64/225/60 60/226/60 62/227/60 66/228/60
o cube
v 1.4937500000000004 -0.9375 0.10000000000000053
v 1.4937500000000004 -0.9375 0.07500000000000018
v 1.4937500000000004 -1.6875 0.10000000000000053
v 1.4937500000000004 -1.6875 0.07500000000000018
v 1.4437499999999996 -0.9375 0.10000000000000053
v 1.4437499999999996 -0.9375 0.07500000000000018
v 1.4437499999999996 -1.6875 0.10000000000000053
v 1.4437499999999996 -1.6875 0.07500000000000018
vt 0.716796875 0.103515625
vt 0.71484375 0.103515625
vt 0.71484375 0.080078125
vt 0.716796875 0.080078125
vt 0.8125 0.080078125
vt 0.8125 0.103515625
vt 0.810546875 0.103515625
vt 0.810546875 0.080078125
vt 0.5234375 0.068359375
vt 0.525390625 0.068359375
vt 0.525390625 0.0703125
vt 0.5234375 0.0703125
vt 0.529296875 0.068359375
vt 0.529296875 0.0703125
vt 0.52734375 0.0703125
vt 0.52734375 0.068359375
vt 0.81640625 0.080078125
vt 0.81640625 0.103515625
vt 0.814453125 0.103515625
vt 0.814453125 0.080078125
vt 0.8203125 0.103515625
vt 0.818359375 0.103515625
vt 0.818359375 0.080078125
vt 0.8203125 0.080078125
vn 1 0 0
vn -1 0 0
vn 0 1 0
vn 0 -1 0
vn 0 0 1
vn 0 0 -1
usemtl none
f 68/229/61 67/230/61 69/231/61 70/232/61
f 73/233/62 71/234/62 72/235/62 74/236/62
f 71/237/63 67/238/63 68/239/63 72/240/63
f 70/241/64 69/242/64 73/243/64 74/244/64
f 69/245/65 67/246/65 71/247/65 73/248/65
f 72/249/66 68/250/66 70/251/66 74/252/66