# Made in Blockbench 4.7.2
mtllib 29.mtl

o cylinder
v 1.5437500000000082 2.03750005001202 -0.05625002514570887
v -1.6249999729916413 0.22500000279397003 -0.05625002514569538
v 1.5437500002969158 2.017574915417207 -0.10625002514570847
v -1.6249999726947335 0.205074868199157 -0.10625002514569495
v 1.5437500005938234 1.9976497808223943 -0.05625002514570859
v -1.6249999723978261 0.1851497336043444 -0.05625002514569505
v 1.5437500002969158 2.0175749154172076 -0.006250025145708882
v -1.6249999726947335 0.20507486819915766 -0.006250025145695393
v 1.5437499997031006 2.057425184606833 -0.006250025145709215
v -1.6249999732885487 0.2449251373887833 -0.00625002514569567
v 1.543749999406193 2.077350319201646 -0.056250025145709204
v -1.6249999735854566 0.2648502719835959 -0.05625002514569566
v 1.5437499997031006 2.0574251846068323 -0.10625002514570878
v -1.6249999732885487 0.24492513738878263 -0.10625002514569526
v 1.3499999997030998 2.057425181719733 -0.1062500251457088
v 1.349999999406192 2.077350316314546 -0.056250025145709204
v 1.3499999997030996 2.0574251817197338 -0.006250025145709215
v 1.3500000002969148 2.017574912530108 -0.006250025145708937
v 1.3500000005938224 1.9976497779352946 -0.05625002514570859
v 1.350000000296915 2.0175749125301072 -0.1062500251457085
v 1.2374999994061917 2.0773503146381658 -0.056250025145709204
v 1.237499999703099 2.057425180043353 -0.00625002514570927
v 1.2375000002969143 2.0175749108537273 -0.006250025145708937
v 1.2375000005938221 1.997649776258914 -0.05625002514570859
v 1.2375000002969145 2.017574910853727 -0.1062500251457085
v 1.2374999997030993 2.0574251800433525 -0.1062500251457088
vt 0.92653828125 0.23642578125000002
vt 0.925915625 0.23798828125000004
vt 0.92529296875 0.23642578125000002
vt 0.4900171875 0.47265625
vt 0.4690494140625 0.36887578125
vt 0.47073125 0.36887578125
vt 0.49169921875 0.47265625
vt 0.7677125 0.07304687499999996
vt 0.76833515625 0.07460937499999998
vt 0.76708984375 0.07460937499999998
vt 0.925915625 0.23486328125
vt 0.92653828125 0.23642578125000002
vt 0.92529296875 0.23642578125000002
vt 0.310546875 0.5
vt 0.33151484375 0.39621953125
vt 0.333196875 0.39621953125
vt 0.31222890625 0.5
vt 0.76833515625 0.07460937499999998
vt 0.7677125 0.076171875
vt 0.76708984375 0.07460937499999998
vt 0.9246703125 0.23486328125
vt 0.925915625 0.23486328125
vt 0.92529296875 0.23642578125000002
vt 0.298937890625 0.53125
vt 0.355578515625 0.441796875
vt 0.356823828125 0.441796875
vt 0.300183203125 0.53125
vt 0.7677125 0.076171875
vt 0.7664671875 0.076171875
vt 0.76708984375 0.07460937499999998
vt 0.92404765625 0.23642578125000002
vt 0.9246703125 0.23486328125
vt 0.92529296875 0.23642578125000002
vt 0.4396060546875 0.15419921874999987
vt 0.4396265625 0.10559453125000007
vt 0.44130859375 0.10559453125000007
vt 0.4412880859375 0.15419921874999987
vt 0.7664671875 0.076171875
vt 0.76584453125 0.07460937499999998
vt 0.76708984375 0.07460937499999998
vt 0.9246703125 0.23798828125000004
vt 0.92404765625 0.23642578125000002
vt 0.92529296875 0.23642578125000002
vt 0.43962011718750005 0.15419921874999953
vt 0.4396484375 0.10559453124999996
vt 0.4413302734375 0.10559453124999996
vt 0.44130214843750004 0.15419921874999953
vt 0.76584453125 0.07460937499999998
vt 0.7664671875 0.07304687499999996
vt 0.76708984375 0.07460937499999998
vt 0.925915625 0.23798828125000004
vt 0.9246703125 0.23798828125000004
vt 0.92529296875 0.23642578125000002
vt 0.511828515625 0.544921875
vt 0.455187890625 0.45546875
vt 0.456433203125 0.45546875
vt 0.513073828125 0.544921875
vt 0.7664671875 0.07304687499999996
vt 0.7677125 0.07304687499999996
vt 0.76708984375 0.07460937499999998
vt 0.2848849609375 0.34856328125
vt 0.2848849609375 0.35559453124999996
vt 0.283203125 0.35559453124999996
vt 0.283203125 0.34856328125
vt 0.09521484375 0.37981328125
vt 0.09521484375 0.38684453124999996
vt 0.091823828125 0.3867957031249999
vt 0.091823828125 0.37976445312499996
vt 0.356823828125 0.43125
vt 0.356823828125 0.43828124999999996
vt 0.355578515625 0.43828124999999996
vt 0.355578515625 0.43125
vt 0.333196875 0.38567265625
vt 0.333196875 0.39270390624999996
vt 0.33151484375 0.39270390624999996
vt 0.33151484375 0.38567265625
vt 0.47073125 0.35832890625
vt 0.47073125 0.36536015624999996
vt 0.4690494140625 0.36536015624999996
vt 0.4690494140625 0.35832890625
vt 0.456433203125 0.444921875
vt 0.456433203125 0.45195312499999996
vt 0.455187890625 0.45195312499999996
vt 0.455187890625 0.444921875
vt 0.09521484375 0.38684453124999996
vt 0.09521484375 0.39036015625
vt 0.09182382812500003 0.390311328125
vt 0.09182382812500003 0.386795703125
vt 0.356823828125 0.43828124999999996
vt 0.356823828125 0.441796875
vt 0.355578515625 0.441796875
vt 0.355578515625 0.43828124999999996
vt 0.333196875 0.39270390624999996
vt 0.333196875 0.39621953125
vt 0.33151484375 0.39621953125
vt 0.33151484375 0.39270390624999996
vt 0.47073125 0.36536015624999996
vt 0.47073125 0.36887578125
vt 0.4690494140625 0.36887578125
vt 0.4690494140625 0.36536015624999996
vt 0.456433203125 0.45195312499999996
vt 0.456433203125 0.45546875
vt 0.455187890625 0.45546875
vt 0.455187890625 0.45195312499999996
vt 0.2848849609375 0.35559453124999996
vt 0.2848849609375 0.35911015625
vt 0.283203125 0.35911015625
vt 0.283203125 0.35559453124999996
vn 0.9999999999999999 1.4901159750557724e-8 1.2246467979593e-16
vn 0.506999647160223 -0.8007097611856483 -0.31908499827072945
vn -0.9999999999999999 -1.4901159750557724e-8 -1.2246467979593e-16
vn 0.9999999999999999 1.4901159750557724e-8 1.2246467979593e-16
vn 0.5069996471602237 -0.8007097611856449 0.3190849982707369
vn -0.9999999999999999 -1.4901159750557724e-8 -1.2246467979593e-16
vn 0.9999999999999999 1.4901159750557724e-8 1.2246467979593e-16
vn -1.2246479411734856e-16 7.671981247365798e-15 1
vn -0.9999999999999999 -1.4901159750557724e-8 -1.2246467979593e-16
vn 0.9999999999999999 1.4901159750557724e-8 1.2246467979593e-16
vn -0.506999647160223 0.8007097611856486 0.31908499827072895
vn -0.9999999999999999 -1.4901159750557724e-8 -1.2246467979593e-16
vn 0.9999999999999999 1.4901159750557724e-8 1.2246467979593e-16
vn -0.506999647160223 0.8007097611856434 -0.3190849982707419
vn -0.9999999999999999 -1.4901159750557724e-8 -1.2246467979593e-16
vn 0.9999999999999999 1.4901159750557724e-8 1.2246467979593e-16
vn 1.2246479411734856e-16 -7.671981247365798e-15 -1
vn -0.9999999999999999 -1.4901159750557724e-8 -1.2246467979593e-16
vn -1.3842515088139571e-8 0.928955548565409 -0.37019128675529334
vn -1.3842515178810375e-8 0.928955548565415 0.3701912867552786
vn -1.2246479411734856e-16 7.671981247365798e-15 1
vn 1.3842515088139575e-8 -0.9289555485654092 0.37019128675529284
vn 1.3842515178810372e-8 -0.9289555485654147 -0.3701912867552791
vn 1.2246479411734856e-16 -7.671981247365798e-15 -1
vn -1.3842515178810375e-8 0.928955548565415 0.3701912867552786
vn -1.2246479411734856e-16 7.671981247365798e-15 1
vn 1.3842515088139575e-8 -0.9289555485654092 0.37019128675529284
vn 1.3842515178810372e-8 -0.9289555485654147 -0.3701912867552792
vn 1.2246479411734856e-16 -7.671981247365798e-15 -1
vn -1.3842515088139571e-8 0.928955548565409 -0.3701912867552934
usemtl none
f 5/1/1 3/2/1 1/3/1
f 4/4/2 25/5/2 24/6/2 6/7/2
f 4/8/3 6/9/3 2/10/3
f 7/11/4 5/12/4 1/13/4
f 6/14/5 24/15/5 23/16/5 8/17/5
f 6/18/6 8/19/6 2/20/6
f 9/21/7 7/22/7 1/23/7
f 8/24/8 23/25/8 22/26/8 10/27/8
f 8/28/9 10/29/9 2/30/9
f 11/31/10 9/32/10 1/33/10
f 10/34/11 22/35/11 21/36/11 12/37/11
f 10/38/12 12/39/12 2/40/12
f 13/41/13 11/42/13 1/43/13
f 12/44/14 21/45/14 26/46/14 14/47/14
f 12/48/15 14/49/15 2/50/15
f 3/51/16 13/52/16 1/53/16
f 14/54/17 26/55/17 25/56/17 4/57/17
f 14/58/18 4/59/18 2/60/18
f 13/61/19 15/62/19 16/63/19 11/64/19
f 11/65/20 16/66/20 17/67/20 9/68/20
f 9/69/21 17/70/21 18/71/21 7/72/21
f 7/73/22 18/74/22 19/75/22 5/76/22
f 5/77/23 19/78/23 20/79/23 3/80/23
f 3/81/24 20/82/24 15/83/24 13/84/24
f 16/85/25 21/86/25 22/87/25 17/88/25
f 17/89/26 22/90/26 23/91/26 18/92/26
f 18/93/27 23/94/27 24/95/27 19/96/27
f 19/97/28 24/98/28 25/99/28 20/100/28
f 20/101/29 25/102/29 26/103/29 15/104/29
f 15/105/30 26/106/30 21/107/30 16/108/30
o cube
v 1.1187500000000004 1.94375 -0.03749999999999876
v 1.1187500000000004 1.94375 -0.06249999999999911
v 1.1187500000000004 1.225 -0.03749999999999876
v 1.1187500000000004 1.225 -0.06249999999999911
v 1.0687499999999996 1.94375 -0.03749999999999876
v 1.0687499999999996 1.94375 -0.06249999999999911
v 1.0687499999999996 1.225 -0.03749999999999876
v 1.0687499999999996 1.225 -0.06249999999999911
vt 0.185546875 0.1015625
vt 0.18359375 0.1015625
vt 0.18359375 0.078125
vt 0.185546875 0.078125
vt 0.189453125 0.078125
vt 0.189453125 0.1015625
vt 0.1875 0.1015625
vt 0.1875 0.078125
vt 0.9296875 0.458984375
vt 0.931640625 0.458984375
vt 0.931640625 0.4609375
vt 0.9296875 0.4609375
vt 0.931640625 0.455078125
vt 0.931640625 0.45703125
vt 0.9296875 0.45703125
vt 0.9296875 0.455078125
vt 0.193359375 0.078125
vt 0.193359375 0.1015625
vt 0.19140625 0.1015625
vt 0.19140625 0.078125
vt 0.294921875 0.1015625
vt 0.29296875 0.1015625
vt 0.29296875 0.078125
vt 0.294921875 0.078125
vn 1 0 0
vn -1 0 0
vn 0 1 0
vn 0 -1 0
vn 0 0 1
vn 0 0 -1
usemtl none
f 28/109/31 27/110/31 29/111/31 30/112/31
f 33/113/32 31/114/32 32/115/32 34/116/32
f 31/117/33 27/118/33 28/119/33 32/120/33
f 30/121/34 29/122/34 33/123/34 34/124/34
f 29/125/35 27/126/35 31/127/35 33/128/35
f 32/129/36 28/130/36 30/131/36 34/132/36
o cube
v 0.6187500000000004 1.63125 -0.03749999999999876
v 0.6187500000000004 1.63125 -0.06249999999999911
v 0.6187500000000004 0.9125000000000001 -0.03749999999999876
v 0.6187500000000004 0.9125000000000001 -0.06249999999999911
v 0.5687499999999996 1.63125 -0.03749999999999876
v 0.5687499999999996 1.63125 -0.06249999999999911
v 0.5687499999999996 0.9125000000000001 -0.03749999999999876
v 0.5687499999999996 0.9125000000000001 -0.06249999999999911
vt 0.298828125 0.1015625
vt 0.296875 0.1015625
vt 0.296875 0.078125
vt 0.298828125 0.078125
vt 0.380859375 0.078125
vt 0.380859375 0.1015625
vt 0.37890625 0.1015625
vt 0.37890625 0.078125
vt 0.556640625 0.068359375
vt 0.55859375 0.068359375
vt 0.55859375 0.0703125
vt 0.556640625 0.0703125
vt 0.5625 0.068359375
vt 0.5625 0.0703125
vt 0.560546875 0.0703125
vt 0.560546875 0.068359375
vt 0.384765625 0.078125
vt 0.384765625 0.1015625
vt 0.3828125 0.1015625
vt 0.3828125 0.078125
vt 0.388671875 0.1015625
vt 0.38671875 0.1015625
vt 0.38671875 0.078125
vt 0.388671875 0.078125
vn 1 0 0
vn -1 0 0
vn 0 1 0
vn 0 -1 0
vn 0 0 1
vn 0 0 -1
usemtl none
f 36/133/37 35/134/37 37/135/37 38/136/37
f 41/137/38 39/138/38 40/139/38 42/140/38
f 39/141/39 35/142/39 36/143/39 40/144/39
f 38/145/40 37/146/40 41/147/40 42/148/40
f 37/149/41 35/150/41 39/151/41 41/152/41
f 40/153/42 36/154/42 38/155/42 42/156/42
o cube
v 0.11875000000000036 1.31875 -0.03749999999999876
v 0.11875000000000036 1.31875 -0.06249999999999911
v 0.11875000000000036 0.6000000000000001 -0.03749999999999876
v 0.11875000000000036 0.6000000000000001 -0.06249999999999911
v 0.06874999999999964 1.31875 -0.03749999999999876
v 0.06874999999999964 1.31875 -0.06249999999999911
v 0.06874999999999964 0.6000000000000001 -0.03749999999999876
v 0.06874999999999964 0.6000000000000001 -0.06249999999999911
vt 0.392578125 0.1015625
vt 0.390625 0.1015625
vt 0.390625 0.078125
vt 0.392578125 0.078125
vt 0.41015625 0.078125
vt 0.41015625 0.1015625
vt 0.408203125 0.1015625
vt 0.408203125 0.078125
vt 0.564453125 0.068359375
vt 0.56640625 0.068359375
vt 0.56640625 0.0703125
vt 0.564453125 0.0703125
vt 0.5703125 0.068359375
vt 0.5703125 0.0703125
vt 0.568359375 0.0703125
vt 0.568359375 0.068359375
vt 0.4140625 0.078125
vt 0.4140625 0.1015625
vt 0.412109375 0.1015625
vt 0.412109375 0.078125
vt 0.58984375 0.1015625
vt 0.587890625 0.1015625
vt 0.587890625 0.078125
vt 0.58984375 0.078125
vn 1 0 0
vn -1 0 0
vn 0 1 0
vn 0 -1 0
vn 0 0 1
vn 0 0 -1
usemtl none
f 44/157/43 43/158/43 45/159/43 46/160/43
f 49/161/44 47/162/44 48/163/44 50/164/44
f 47/165/45 43/166/45 44/167/45 48/168/45
f 46/169/46 45/170/46 49/171/46 50/172/46
f 45/173/47 43/174/47 47/175/47 49/176/47
f 48/177/48 44/178/48 46/179/48 50/180/48
o cube
v -0.38124999999999964 0.9750000000000001 -0.03749999999999876
v -0.38124999999999964 0.9750000000000001 -0.06249999999999911
v -0.38124999999999964 0.2875000000000001 -0.03749999999999876
v -0.38124999999999964 0.2875000000000001 -0.06249999999999911
v -0.43125000000000036 0.9750000000000001 -0.03749999999999876
v -0.43125000000000036 0.9750000000000001 -0.06249999999999911
v -0.43125000000000036 0.2875000000000001 -0.03749999999999876
v -0.43125000000000036 0.2875000000000001 -0.06249999999999911
vt 0.712890625 0.1015625
vt 0.7109375 0.1015625
vt 0.7109375 0.080078125
vt 0.712890625 0.080078125
vt 0.744140625 0.080078125
vt 0.744140625 0.1015625
vt 0.7421875 0.1015625
vt 0.7421875 0.080078125
vt 0.572265625 0.068359375
vt 0.57421875 0.068359375
vt 0.57421875 0.0703125
vt 0.572265625 0.0703125
vt 0.931640625 0.42578125
vt 0.931640625 0.427734375
vt 0.9296875 0.427734375
vt 0.9296875 0.42578125
vt 0.748046875 0.080078125
vt 0.748046875 0.1015625
vt 0.74609375 0.1015625
vt 0.74609375 0.080078125
vt 0.751953125 0.1015625
vt 0.75 0.1015625
vt 0.75 0.080078125
vt 0.751953125 0.080078125
vn 1 0 0
vn -1 0 0
vn 0 1 0
vn 0 -1 0
vn 0 0 1
vn 0 0 -1
usemtl none
f 52/181/49 51/182/49 53/183/49 54/184/49
f 57/185/50 55/186/50 56/187/50 58/188/50
f 55/189/51 51/190/51 52/191/51 56/192/51
f 54/193/52 53/194/52 57/195/52 58/196/52
f 53/197/53 51/198/53 55/199/53 57/200/53
f 56/201/54 52/202/54 54/203/54 58/204/54
o cube
v -0.8812499999999996 0.6625000000000001 -0.03749999999999876
v -0.8812499999999996 0.6625000000000001 -0.06249999999999911
v -0.8812499999999996 -0.08749999999999991 -0.03749999999999876
v -0.8812499999999996 -0.08749999999999991 -0.06249999999999911
v -0.9312500000000004 0.6625000000000001 -0.03749999999999876
v -0.9312500000000004 0.6625000000000001 -0.06249999999999911
v -0.9312500000000004 -0.08749999999999991 -0.03749999999999876
v -0.9312500000000004 -0.08749999999999991 -0.06249999999999911
vt 0.59375 0.1015625
vt 0.591796875 0.1015625
vt 0.591796875 0.078125
vt 0.59375 0.078125
vt 0.59765625 0.078125
vt 0.59765625 0.1015625
vt 0.595703125 0.1015625
vt 0.595703125 0.078125
vt 0.576171875 0.068359375
vt 0.578125 0.068359375
vt 0.578125 0.0703125
vt 0.576171875 0.0703125
vt 0.931640625 0.421875
vt 0.931640625 0.423828125
vt 0.9296875 0.423828125
vt 0.9296875 0.421875
vt 0.6015625 0.078125
vt 0.6015625 0.1015625
vt 0.599609375 0.1015625
vt 0.599609375 0.078125
vt 0.60546875 0.1015625
vt 0.603515625 0.1015625
vt 0.603515625 0.078125
vt 0.60546875 0.078125
vn 1 0 0
vn -1 0 0
vn 0 1 0
vn 0 -1 0
vn 0 0 1
vn 0 0 -1
usemtl none
f 60/205/55 59/206/55 61/207/55 62/208/55
f 65/209/56 63/210/56 64/211/56 66/212/56
f 63/213/57 59/214/57 60/215/57 64/216/57
f 62/217/58 61/218/58 65/219/58 66/220/58
f 61/221/59 59/222/59 63/223/59 65/224/59
f 64/225/60 60/226/60 62/227/60 66/228/60
o cube
v -1.3812499999999996 0.3500000000000001 -0.03749999999999876
v -1.3812499999999996 0.3500000000000001 -0.06249999999999911
v -1.3812499999999996 -0.3999999999999999 -0.03749999999999876
v -1.3812499999999996 -0.3999999999999999 -0.06249999999999911
v -1.4312500000000004 0.3500000000000001 -0.03749999999999876
v -1.4312500000000004 0.3500000000000001 -0.06249999999999911
v -1.4312500000000004 -0.3999999999999999 -0.03749999999999876
v -1.4312500000000004 -0.3999999999999999 -0.06249999999999911
vt 0.609375 0.1015625
vt 0.607421875 0.1015625
vt 0.607421875 0.078125
vt 0.609375 0.078125
vt 0.61328125 0.078125
vt 0.61328125 0.1015625
vt 0.611328125 0.1015625
vt 0.611328125 0.078125
vt 0.580078125 0.068359375
vt 0.58203125 0.068359375
vt 0.58203125 0.0703125
vt 0.580078125 0.0703125
vt 0.931640625 0.41796875
vt 0.931640625 0.419921875
vt 0.9296875 0.419921875
vt 0.9296875 0.41796875
vt 0.6171875 0.078125
vt 0.6171875 0.1015625
vt 0.615234375 0.1015625
vt 0.615234375 0.078125
vt 0.62109375 0.1015625
vt 0.619140625 0.1015625
vt 0.619140625 0.078125
vt 0.62109375 0.078125
vn 1 0 0
vn -1 0 0
vn 0 1 0
vn 0 -1 0
vn 0 0 1
vn 0 0 -1
usemtl none
f 68/229/61 67/230/61 69/231/61 70/232/61
f 73/233/62 71/234/62 72/235/62 74/236/62
f 71/237/63 67/238/63 68/239/63 72/240/63
f 70/241/64 69/242/64 73/243/64 74/244/64
f 69/245/65 67/246/65 71/247/65 73/248/65
f 72/249/66 68/250/66 70/251/66 74/252/66