# Made in Blockbench 4.7.2
mtllib 31.mtl

o cube
v 0.4750000000000014 1.875 -0.30625000000000036
v 0.4750000000000014 1.875 -0.3312500000000007
v 0.4750000000000014 1.85 -0.30625000000000036
v 0.4750000000000014 1.85 -0.3312500000000007
v -1.7250000000000014 1.875 -0.30625000000000036
v -1.7250000000000014 1.875 -0.3312500000000007
v -1.7250000000000014 1.85 -0.30625000000000036
v -1.7250000000000014 1.85 -0.3312500000000007
vt 0.93359375 0.251953125
vt 0.931640625 0.251953125
vt 0.931640625 0.25
vt 0.93359375 0.25
vt 0.93359375 0.24609375
vt 0.93359375 0.248046875
vt 0.931640625 0.248046875
vt 0.931640625 0.24609375
vt 0.833984375 0.482421875
vt 0.90234375 0.482421875
vt 0.90234375 0.484375
vt 0.833984375 0.484375
vt 0.90234375 0.478515625
vt 0.90234375 0.48046875
vt 0.833984375 0.48046875
vt 0.833984375 0.478515625
vt 0.90234375 0.30859375
vt 0.90234375 0.310546875
vt 0.833984375 0.310546875
vt 0.833984375 0.30859375
vt 0.90234375 0.306640625
vt 0.833984375 0.306640625
vt 0.833984375 0.3046875
vt 0.90234375 0.3046875
vn 1 0 0
vn -1 0 0
vn 0 1 0
vn 0 -1 0
vn 0 0 1
vn 0 0 -1
usemtl none
f 2/1/1 1/2/1 3/3/1 4/4/1
f 7/5/2 5/6/2 6/7/2 8/8/2
f 5/9/3 1/10/3 2/11/3 6/12/3
f 4/13/4 3/14/4 7/15/4 8/16/4
f 3/17/5 1/18/5 5/19/5 7/20/5
f 6/21/6 2/22/6 4/23/6 8/24/6
o cube
v -1.7250000000000014 1.875 -0.30625000000000036
v -1.7250000000000014 1.875 -0.3312500000000007
v -1.7250000000000014 0.5 -0.30625000000000036
v -1.7250000000000014 0.5 -0.3312500000000007
v -1.75 1.875 -0.30625000000000036
v -1.75 1.875 -0.3312500000000007
v -1.75 0.5 -0.30625000000000036
v -1.75 0.5 -0.3312500000000007
vt 0.78125 0.14453125
vt 0.779296875 0.14453125
vt 0.779296875 0.1015625
vt 0.78125 0.1015625
vt 0.78515625 0.1015625
vt 0.78515625 0.14453125
vt 0.783203125 0.14453125
vt 0.783203125 0.1015625
vt 0.931640625 0.25390625
vt 0.93359375 0.25390625
vt 0.93359375 0.255859375
vt 0.931640625 0.255859375
vt 0.75 0.06640625
vt 0.75 0.068359375
vt 0.748046875 0.068359375
vt 0.748046875 0.06640625
vt 0.7890625 0.1015625
vt 0.7890625 0.14453125
vt 0.787109375 0.14453125
vt 0.787109375 0.1015625
vt 0.79296875 0.14453125
vt 0.791015625 0.14453125
vt 0.791015625 0.1015625
vt 0.79296875 0.1015625
vn 1 0 0
vn -1 0 0
vn 0 1 0
vn 0 -1 0
vn 0 0 1
vn 0 0 -1
usemtl none
f 10/25/7 9/26/7 11/27/7 12/28/7
f 15/29/8 13/30/8 14/31/8 16/32/8
f 13/33/9 9/34/9 10/35/9 14/36/9
f 12/37/10 11/38/10 15/39/10 16/40/10
f 11/41/11 9/42/11 13/43/11 15/44/11
f 14/45/12 10/46/12 12/47/12 16/48/12
o cube
v 0.4750000000000014 0.5249999999999999 -0.30625000000000036
v 0.4750000000000014 0.5249999999999999 -0.3312500000000007
v 0.4750000000000014 0.5 -0.30625000000000036
v 0.4750000000000014 0.5 -0.3312500000000007
v -1.7250000000000014 0.5249999999999999 -0.30625000000000036
v -1.7250000000000014 0.5249999999999999 -0.3312500000000007
v -1.7250000000000014 0.5 -0.30625000000000036
v -1.7250000000000014 0.5 -0.3312500000000007
vt 0.93359375 0.232421875
vt 0.931640625 0.232421875
vt 0.931640625 0.23046875
vt 0.93359375 0.23046875
vt 0.93359375 0.2265625
vt 0.93359375 0.228515625
vt 0.931640625 0.228515625
vt 0.931640625 0.2265625
vt 0.833984375 0.30078125
vt 0.90234375 0.30078125
vt 0.90234375 0.302734375
vt 0.833984375 0.302734375
vt 0.90234375 0.296875
vt 0.90234375 0.298828125
vt 0.833984375 0.298828125
vt 0.833984375 0.296875
vt 0.90234375 0.29296875
vt 0.90234375 0.294921875
vt 0.833984375 0.294921875
vt 0.833984375 0.29296875
vt 0.90234375 0.291015625
vt 0.833984375 0.291015625
vt 0.833984375 0.2890625
vt 0.90234375 0.2890625
vn 1 0 0
vn -1 0 0
vn 0 1 0
vn 0 -1 0
vn 0 0 1
vn 0 0 -1
usemtl none
f 18/49/13 17/50/13 19/51/13 20/52/13
f 23/53/14 21/54/14 22/55/14 24/56/14
f 21/57/15 17/58/15 18/59/15 22/60/15
f 20/61/16 19/62/16 23/63/16 24/64/16
f 19/65/17 17/66/17 21/67/17 23/68/17
f 22/69/18 18/70/18 20/71/18 24/72/18
o cube
v 0.5 1.875 -0.30625000000000036
v 0.5 1.875 -0.3312500000000007
v 0.5 0.5 -0.30625000000000036
v 0.5 0.5 -0.3312500000000007
v 0.4750000000000014 1.875 -0.30625000000000036
v 0.4750000000000014 1.875 -0.3312500000000007
v 0.4750000000000014 0.5 -0.30625000000000036
v 0.4750000000000014 0.5 -0.3312500000000007
vt 0.765625 0.14453125
vt 0.763671875 0.14453125
vt 0.763671875 0.1015625
vt 0.765625 0.1015625
vt 0.76953125 0.1015625
vt 0.76953125 0.14453125
vt 0.767578125 0.14453125
vt 0.767578125 0.1015625
vt 0.931640625 0.2578125
vt 0.93359375 0.2578125
vt 0.93359375 0.259765625
vt 0.931640625 0.259765625
vt 0.74609375 0.06640625
vt 0.74609375 0.068359375
vt 0.744140625 0.068359375
vt 0.744140625 0.06640625
vt 0.7734375 0.1015625
vt 0.7734375 0.14453125
vt 0.771484375 0.14453125
vt 0.771484375 0.1015625
vt 0.77734375 0.14453125
vt 0.775390625 0.14453125
vt 0.775390625 0.1015625
vt 0.77734375 0.1015625
vn 1 0 0
vn -1 0 0
vn 0 1 0
vn 0 -1 0
vn 0 0 1
vn 0 0 -1
usemtl none
f 26/73/19 25/74/19 27/75/19 28/76/19
f 31/77/20 29/78/20 30/79/20 32/80/20
f 29/81/21 25/82/21 26/83/21 30/84/21
f 28/85/22 27/86/22 31/87/22 32/88/22
f 27/89/23 25/90/23 29/91/23 31/92/23
f 30/93/24 26/94/24 28/95/24 32/96/24
o cube
v 0.5 1.875 -0.28749999999999964
v 0.5 1.875 -0.3125
v 0.5 0.5 -0.28749999999999964
v 0.5 0.5 -0.3125
v -1.75 1.875 -0.28749999999999964
v -1.75 1.875 -0.3125
v -1.75 0.5 -0.28749999999999964
v -1.75 0.5 -0.3125
vt 0.298828125 0.146484375
vt 0.296875 0.146484375
vt 0.296875 0.103515625
vt 0.298828125 0.103515625
vt 0.76171875 0.1015625
vt 0.76171875 0.14453125
vt 0.759765625 0.14453125
vt 0.759765625 0.1015625
vt 0.833984375 0.6328125
vt 0.904296875 0.6328125
vt 0.904296875 0.634765625
vt 0.833984375 0.634765625
vt 0.904296875 0.505859375
vt 0.904296875 0.5078125
vt 0.833984375 0.5078125
vt 0.833984375 0.505859375
vt 0.26953125 0.546875
vt 0.26953125 0.58984375
vt 0.19921875 0.58984375
vt 0.19921875 0.546875
vt 0.6171875 0.798828125
vt 0.546875 0.798828125
vt 0.546875 0.755859375
vt 0.6171875 0.755859375
vn 1 0 0
vn -1 0 0
vn 0 1 0
vn 0 -1 0
vn 0 0 1
vn 0 0 -1
usemtl none
f 34/97/25 33/98/25 35/99/25 36/100/25
f 39/101/26 37/102/26 38/103/26 40/104/26
f 37/105/27 33/106/27 34/107/27 38/108/27
f 36/109/28 35/110/28 39/111/28 40/112/28
f 35/113/29 33/114/29 37/115/29 39/116/29
f 38/117/30 34/118/30 36/119/30 40/120/30