# Made in Blockbench 4.7.2
mtllib 39.mtl

o cube
v -0.75 1.3184912261282196 -0.23595549526270673
v -0.75 0.9523802234582446 -0.3171203504894954
v -0.75 1.3144329833668802 -0.21764994512920802
v -0.75 0.9483219806969052 -0.29881480035599667
v -1.375 1.3184912261282196 -0.23595549526270673
v -1.375 0.9523802234582446 -0.3171203504894954
v -1.375 1.3144329833668802 -0.21764994512920802
v -1.375 0.9483219806969052 -0.29881480035599667
vt 0.919921875 0.173828125
vt 0.908203125 0.173828125
vt 0.908203125 0.171875
vt 0.919921875 0.171875
vt 0.921875 0.7890625
vt 0.921875 0.791015625
vt 0.91015625 0.791015625
vt 0.91015625 0.7890625
vt 0.4375 0.48046875
vt 0.45703125 0.48046875
vt 0.45703125 0.4921875
vt 0.4375 0.4921875
vt 0.630859375 0.48828125
vt 0.630859375 0.5
vt 0.611328125 0.5
vt 0.611328125 0.48828125
vt 0.923828125 0.9140625
vt 0.923828125 0.916015625
vt 0.904296875 0.916015625
vt 0.904296875 0.9140625
vt 0.923828125 0.912109375
vt 0.904296875 0.912109375
vt 0.904296875 0.91015625
vt 0.923828125 0.91015625
vn 1 0 0
vn -1 0 0
vn 0 0.21643961393810307 -0.9762960071199333
vn 0 -0.21643961393810307 0.9762960071199333
vn 0 0.9762960071199333 0.21643961393810307
vn 0 -0.9762960071199333 -0.21643961393810307
usemtl none
f 2/1/1 1/2/1 3/3/1 4/4/1
f 7/5/2 5/6/2 6/7/2 8/8/2
f 5/9/3 1/10/3 2/11/3 6/12/3
f 4/13/4 3/14/4 7/15/4 8/16/4
f 3/17/5 1/18/5 5/19/5 7/20/5
f 6/21/6 2/22/6 4/23/6 8/24/6
o cube
v -0.75 0.95625 -0.3125
v -0.75 0.95625 -0.6875
v -0.75 0.9375 -0.3125
v -0.75 0.9375 -0.6875
v -1.375 0.95625 -0.3125
v -1.375 0.95625 -0.6875
v -1.375 0.9375 -0.3125
v -1.375 0.9375 -0.6875
vt 0.919921875 0.5703125
vt 0.908203125 0.5703125
vt 0.908203125 0.568359375
vt 0.919921875 0.568359375
vt 0.919921875 0.265625
vt 0.919921875 0.267578125
vt 0.908203125 0.267578125
vt 0.908203125 0.265625
vt 0.314453125 0.923828125
vt 0.333984375 0.923828125
vt 0.333984375 0.935546875
vt 0.314453125 0.935546875
vt 0.337890625 0.845703125
vt 0.337890625 0.857421875
vt 0.318359375 0.857421875
vt 0.318359375 0.845703125
vt 0.921875 0.28515625
vt 0.921875 0.287109375
vt 0.90234375 0.287109375
vt 0.90234375 0.28515625
vt 0.923828125 0.955078125
vt 0.904296875 0.955078125
vt 0.904296875 0.953125
vt 0.923828125 0.953125
vn 1 0 0
vn -1 0 0
vn 0 1 0
vn 0 -1 0
vn 0 0 1
vn 0 0 -1
usemtl none
f 10/25/7 9/26/7 11/27/7 12/28/7
f 15/29/8 13/30/8 14/31/8 16/32/8
f 13/33/9 9/34/9 10/35/9 14/36/9
f 12/37/10 11/38/10 15/39/10 16/40/10
f 11/41/11 9/42/11 13/43/11 15/44/11
f 14/45/12 10/46/12 12/47/12 16/48/12