# Made in Blockbench 4.7.2
mtllib 41.mtl

o cube
v -0.6875 2.1875 -0.2875000000000001
v -0.6875 2.1875 -0.30000000000000004
v -0.6875 2.125 -0.2875000000000001
v -0.6875 2.125 -0.30000000000000004
v -0.8125 2.1875 -0.2875000000000001
v -0.8125 2.1875 -0.30000000000000004
v -0.8125 2.125 -0.2875000000000001
v -0.8125 2.125 -0.30000000000000004
vt 0.32421875 0.068359375
vt 0.322265625 0.068359375
vt 0.322265625 0.06640625
vt 0.32421875 0.06640625
vt 0.93359375 0.67578125
vt 0.93359375 0.677734375
vt 0.931640625 0.677734375
vt 0.931640625 0.67578125
vt 0.44921875 0.072265625
vt 0.453125 0.072265625
vt 0.453125 0.07421875
vt 0.44921875 0.07421875
vt 0.9296875 0.529296875
vt 0.9296875 0.53125
vt 0.92578125 0.53125
vt 0.92578125 0.529296875
vt 0.9296875 0.51953125
vt 0.9296875 0.521484375
vt 0.92578125 0.521484375
vt 0.92578125 0.51953125
vt 0.498046875 0.07421875
vt 0.494140625 0.07421875
vt 0.494140625 0.072265625
vt 0.498046875 0.072265625
vn 1 0 0
vn -1 0 0
vn 0 1 0
vn 0 -1 0
vn 0 0 1
vn 0 0 -1
usemtl none
f 2/1/1 1/2/1 3/3/1 4/4/1
f 7/5/2 5/6/2 6/7/2 8/8/2
f 5/9/3 1/10/3 2/11/3 6/12/3
f 4/13/4 3/14/4 7/15/4 8/16/4
f 3/17/5 1/18/5 5/19/5 7/20/5
f 6/21/6 2/22/6 4/23/6 8/24/6
o cube
v -0.6875 2.1875 -0.30000000000000004
v -0.6875 2.1875 -0.3125
v -0.6875 2.125 -0.30000000000000004
v -0.6875 2.125 -0.3125
v -0.8125 2.1875 -0.30000000000000004
v -0.8125 2.1875 -0.3125
v -0.8125 2.125 -0.30000000000000004
v -0.8125 2.125 -0.3125
vt 0.93359375 0.69921875
vt 0.931640625 0.69921875
vt 0.931640625 0.697265625
vt 0.93359375 0.697265625
vt 0.93359375 0.693359375
vt 0.93359375 0.6953125
vt 0.931640625 0.6953125
vt 0.931640625 0.693359375
vt 0.4140625 0.072265625
vt 0.41796875 0.072265625
vt 0.41796875 0.07421875
vt 0.4140625 0.07421875
vt 0.423828125 0.072265625
vt 0.423828125 0.07421875
vt 0.419921875 0.07421875
vt 0.419921875 0.072265625
vt 0.9296875 0.556640625
vt 0.9296875 0.55859375
vt 0.92578125 0.55859375
vt 0.92578125 0.556640625
vt 0.447265625 0.07421875
vt 0.443359375 0.07421875
vt 0.443359375 0.072265625
vt 0.447265625 0.072265625
vn 1 0 0
vn -1 0 0
vn 0 1 0
vn 0 -1 0
vn 0 0 1
vn 0 0 -1
usemtl none
f 10/25/7 9/26/7 11/27/7 12/28/7
f 15/29/8 13/30/8 14/31/8 16/32/8
f 13/33/9 9/34/9 10/35/9 14/36/9
f 12/37/10 11/38/10 15/39/10 16/40/10
f 11/41/11 9/42/11 13/43/11 15/44/11
f 14/45/12 10/46/12 12/47/12 16/48/12
o cube
v -0.6875 2.1875 -0.3125
v -0.6875 2.1875 -0.32499999999999996
v -0.6875 2.125 -0.3125
v -0.6875 2.125 -0.32499999999999996
v -0.8125 2.1875 -0.3125
v -0.8125 2.1875 -0.32499999999999996
v -0.8125 2.125 -0.3125
v -0.8125 2.125 -0.32499999999999996
vt 0.93359375 0.7421875
vt 0.931640625 0.7421875
vt 0.931640625 0.740234375
vt 0.93359375 0.740234375
vt 0.93359375 0.701171875
vt 0.93359375 0.703125
vt 0.931640625 0.703125
vt 0.931640625 0.701171875
vt 0.92578125 0.640625
vt 0.9296875 0.640625
vt 0.9296875 0.642578125
vt 0.92578125 0.642578125
vt 0.365234375 0.072265625
vt 0.365234375 0.07421875
vt 0.361328125 0.07421875
vt 0.361328125 0.072265625
vt 0.9296875 0.63671875
vt 0.9296875 0.638671875
vt 0.92578125 0.638671875
vt 0.92578125 0.63671875
vt 0.9296875 0.634765625
vt 0.92578125 0.634765625
vt 0.92578125 0.6328125
vt 0.9296875 0.6328125
vn 1 0 0
vn -1 0 0
vn 0 1 0
vn 0 -1 0
vn 0 0 1
vn 0 0 -1
usemtl none
f 18/49/13 17/50/13 19/51/13 20/52/13
f 23/53/14 21/54/14 22/55/14 24/56/14
f 21/57/15 17/58/15 18/59/15 22/60/15
f 20/61/16 19/62/16 23/63/16 24/64/16
f 19/65/17 17/66/17 21/67/17 23/68/17
f 22/69/18 18/70/18 20/71/18 24/72/18
o cube
v -0.6875 2.1875 -0.33125000000000004
v -0.6875 2.1875 -0.34375
v -0.6875 2.125 -0.33125000000000004
v -0.6875 2.125 -0.34375
v -0.8125 2.1875 -0.33125000000000004
v -0.8125 2.1875 -0.34375
v -0.8125 2.125 -0.33125000000000004
v -0.8125 2.125 -0.34375
vt 0.93359375 0.76953125
vt 0.931640625 0.76953125
vt 0.931640625 0.767578125
vt 0.93359375 0.767578125
vt 0.93359375 0.763671875
vt 0.93359375 0.765625
vt 0.931640625 0.765625
vt 0.931640625 0.763671875
vt 0.92578125 0.67578125
vt 0.9296875 0.67578125
vt 0.9296875 0.677734375
vt 0.92578125 0.677734375
vt 0.9296875 0.6484375
vt 0.9296875 0.650390625
vt 0.92578125 0.650390625
vt 0.92578125 0.6484375
vt 0.9296875 0.64453125
vt 0.9296875 0.646484375
vt 0.92578125 0.646484375
vt 0.92578125 0.64453125
vt 0.359375 0.07421875
vt 0.35546875 0.07421875
vt 0.35546875 0.072265625
vt 0.359375 0.072265625
vn 1 0 0
vn -1 0 0
vn 0 1 0
vn 0 -1 0
vn 0 0 1
vn 0 0 -1
usemtl none
f 26/73/19 25/74/19 27/75/19 28/76/19
f 31/77/20 29/78/20 30/79/20 32/80/20
f 29/81/21 25/82/21 26/83/21 30/84/21
f 28/85/22 27/86/22 31/87/22 32/88/22
f 27/89/23 25/90/23 29/91/23 31/92/23
f 30/93/24 26/94/24 28/95/24 32/96/24
o cube
v -0.6875 2.1875 -0.34375
v -0.6875 2.1875 -0.35624999999999996
v -0.6875 2.125 -0.34375
v -0.6875 2.125 -0.35624999999999996
v -0.8125 2.1875 -0.34375
v -0.8125 2.1875 -0.35624999999999996
v -0.8125 2.125 -0.34375
v -0.8125 2.125 -0.35624999999999996
vt 0.93359375 0.78125
vt 0.931640625 0.78125
vt 0.931640625 0.779296875
vt 0.93359375 0.779296875
vt 0.93359375 0.775390625
vt 0.93359375 0.77734375
vt 0.931640625 0.77734375
vt 0.931640625 0.775390625
vt 0.279296875 0.072265625
vt 0.283203125 0.072265625
vt 0.283203125 0.07421875
vt 0.279296875 0.07421875
vt 0.9296875 0.701171875
vt 0.9296875 0.703125
vt 0.92578125 0.703125
vt 0.92578125 0.701171875
vt 0.9296875 0.697265625
vt 0.9296875 0.69921875
vt 0.92578125 0.69921875
vt 0.92578125 0.697265625
vt 0.9296875 0.6953125
vt 0.92578125 0.6953125
vt 0.92578125 0.693359375
vt 0.9296875 0.693359375
vn 1 0 0
vn -1 0 0
vn 0 1 0
vn 0 -1 0
vn 0 0 1
vn 0 0 -1
usemtl none
f 34/97/25 33/98/25 35/99/25 36/100/25
f 39/101/26 37/102/26 38/103/26 40/104/26
f 37/105/27 33/106/27 34/107/27 38/108/27
f 36/109/28 35/110/28 39/111/28 40/112/28
f 35/113/29 33/114/29 37/115/29 39/116/29
f 38/117/30 34/118/30 36/119/30 40/120/30
o cube
v -0.6875 2.1875 -0.36250000000000004
v -0.6875 2.1875 -0.375
v -0.6875 2.125 -0.36250000000000004
v -0.6875 2.125 -0.375
v -0.8125 2.1875 -0.36250000000000004
v -0.8125 2.1875 -0.375
v -0.8125 2.125 -0.36250000000000004
v -0.8125 2.125 -0.375
vt 0.93359375 0.81640625
vt 0.931640625 0.81640625
vt 0.931640625 0.814453125
vt 0.93359375 0.814453125
vt 0.216796875 0.06640625
vt 0.216796875 0.068359375
vt 0.21484375 0.068359375
vt 0.21484375 0.06640625
vt 0.92578125 0.740234375
vt 0.9296875 0.740234375
vt 0.9296875 0.7421875
vt 0.92578125 0.7421875
vt 0.265625 0.072265625
vt 0.265625 0.07421875
vt 0.26171875 0.07421875
vt 0.26171875 0.072265625
vt 0.271484375 0.072265625
vt 0.271484375 0.07421875
vt 0.267578125 0.07421875
vt 0.267578125 0.072265625
vt 0.27734375 0.07421875
vt 0.2734375 0.07421875
vt 0.2734375 0.072265625
vt 0.27734375 0.072265625
vn 1 0 0
vn -1 0 0
vn 0 1 0
vn 0 -1 0
vn 0 0 1
vn 0 0 -1
usemtl none
f 42/121/31 41/122/31 43/123/31 44/124/31
f 47/125/32 45/126/32 46/127/32 48/128/32
f 45/129/33 41/130/33 42/131/33 46/132/33
f 44/133/34 43/134/34 47/135/34 48/136/34
f 43/137/35 41/138/35 45/139/35 47/140/35
f 46/141/36 42/142/36 44/143/36 48/144/36
o plane
v -0.6875 2.13125 -0.36874999999999947
v -0.6875 0.6812500000000005 -0.3687499999999997
v -0.8125 2.13125 -0.36874999999999947
v -0.8125 0.6812500000000005 -0.3687499999999997
vt 0.265625 0.6796875
vt 0.265625 0.724609375
vt 0.26171875 0.724609375
vt 0.26171875 0.6796875
vn 0 2.220446049250313e-16 -1
usemtl none
f 49/145/37 50/146/37 52/147/37 51/148/37
o plane
v -0.6875 2.13125 -0.2937499999999986
v -0.6875 0.6812500000000005 -0.29374999999999885
v -0.8125 2.13125 -0.2937499999999986
v -0.8125 0.6812500000000005 -0.29374999999999885
vt 0.5546875 0.330078125
vt 0.5546875 0.375
vt 0.55078125 0.375
vt 0.55078125 0.330078125
vn 0 2.220446049250313e-16 -1
usemtl none
f 53/149/38 54/150/38 56/151/38 55/152/38
o plane
v -0.6875 2.13125 -0.3062499999999986
v -0.6875 0.6812500000000005 -0.3062499999999988
v -0.8125 2.13125 -0.3062499999999986
v -0.8125 0.6812500000000005 -0.3062499999999988
vt 0.529296875 0.5625
vt 0.529296875 0.607421875
vt 0.525390625 0.607421875
vt 0.525390625 0.5625
vn 0 2.220446049250313e-16 -1
usemtl none
f 57/153/39 58/154/39 60/155/39 59/156/39
o plane
v -0.6875 2.13125 -0.31874999999999876
v -0.6875 0.6812500000000005 -0.318749999999999
v -0.8125 2.13125 -0.31874999999999876
v -0.8125 0.6812500000000005 -0.318749999999999
vt 0.529296875 0.640625
vt 0.529296875 0.685546875
vt 0.525390625 0.685546875
vt 0.525390625 0.640625
vn 0 2.220446049250313e-16 -1
usemtl none
f 61/157/40 62/158/40 64/159/40 63/160/40
o plane
v -0.6875 2.13125 -0.337499999999999
v -0.6875 0.6812500000000005 -0.33749999999999925
v -0.8125 2.13125 -0.337499999999999
v -0.8125 0.6812500000000005 -0.33749999999999925
vt 0.529296875 0.796875
vt 0.529296875 0.841796875
vt 0.525390625 0.841796875
vt 0.525390625 0.796875
vn 0 2.220446049250313e-16 -1
usemtl none
f 65/161/41 66/162/41 68/163/41 67/164/41
o plane
v -0.6875 2.13125 -0.3499999999999992
v -0.6875 0.6812500000000005 -0.3499999999999994
v -0.8125 2.13125 -0.3499999999999992
v -0.8125 0.6812500000000005 -0.3499999999999994
vt 0.1953125 0.466796875
vt 0.1953125 0.51171875
vt 0.19140625 0.51171875
vt 0.19140625 0.466796875
vn 0 2.220446049250313e-16 -1
usemtl none
f 69/165/42 70/166/42 72/167/42 71/168/42
o cube
v -0.6875 0.6875 -0.36250000000000004
v -0.6875 0.6875 -0.375
v -0.6875 0.625 -0.36250000000000004
v -0.6875 0.625 -0.375
v -0.8125 0.6875 -0.36250000000000004
v -0.8125 0.6875 -0.375
v -0.8125 0.625 -0.36250000000000004
v -0.8125 0.625 -0.375
vt 0.93359375 0.947265625
vt 0.931640625 0.947265625
vt 0.931640625 0.9453125
vt 0.93359375 0.9453125
vt 0.93359375 0.9296875
vt 0.93359375 0.931640625
vt 0.931640625 0.931640625
vt 0.931640625 0.9296875
vt 0.92578125 0.943359375
vt 0.9296875 0.943359375
vt 0.9296875 0.9453125
vt 0.92578125 0.9453125
vt 0.0625 0.072265625
vt 0.0625 0.07421875
vt 0.05859375 0.07421875
vt 0.05859375 0.072265625
vt 0.9296875 0.9296875
vt 0.9296875 0.931640625
vt 0.92578125 0.931640625
vt 0.92578125 0.9296875
vt 0.9296875 0.927734375
vt 0.92578125 0.927734375
vt 0.92578125 0.92578125
vt 0.9296875 0.92578125
vn 1 0 0
vn -1 0 0
vn 0 1 0
vn 0 -1 0
vn 0 0 1
vn 0 0 -1
usemtl none
f 74/169/43 73/170/43 75/171/43 76/172/43
f 79/173/44 77/174/44 78/175/44 80/176/44
f 77/177/45 73/178/45 74/179/45 78/180/45
f 76/181/46 75/182/46 79/183/46 80/184/46
f 75/185/47 73/186/47 77/187/47 79/188/47
f 78/189/48 74/190/48 76/191/48 80/192/48
o cube
v -0.6875 0.6875 -0.34375
v -0.6875 0.6875 -0.35624999999999996
v -0.6875 0.625 -0.34375
v -0.6875 0.625 -0.35624999999999996
v -0.8125 0.6875 -0.34375
v -0.8125 0.6875 -0.35624999999999996
v -0.8125 0.625 -0.34375
v -0.8125 0.625 -0.35624999999999996
vt 0.93359375 0.927734375
vt 0.931640625 0.927734375
vt 0.931640625 0.92578125
vt 0.93359375 0.92578125
vt 0.93359375 0.921875
vt 0.93359375 0.923828125
vt 0.931640625 0.923828125
vt 0.931640625 0.921875
vt 0.92578125 0.9140625
vt 0.9296875 0.9140625
vt 0.9296875 0.916015625
vt 0.92578125 0.916015625
vt 0.9296875 0.91015625
vt 0.9296875 0.912109375
vt 0.92578125 0.912109375
vt 0.92578125 0.91015625
vt 0.9296875 0.888671875
vt 0.9296875 0.890625
vt 0.92578125 0.890625
vt 0.92578125 0.888671875
vt 0.115234375 0.07421875
vt 0.111328125 0.07421875
vt 0.111328125 0.072265625
vt 0.115234375 0.072265625
vn 1 0 0
vn -1 0 0
vn 0 1 0
vn 0 -1 0
vn 0 0 1
vn 0 0 -1
usemtl none
f 82/193/49 81/194/49 83/195/49 84/196/49
f 87/197/50 85/198/50 86/199/50 88/200/50
f 85/201/51 81/202/51 82/203/51 86/204/51
f 84/205/52 83/206/52 87/207/52 88/208/52
f 83/209/53 81/210/53 85/211/53 87/212/53
f 86/213/54 82/214/54 84/215/54 88/216/54
o cube
v -0.6875 0.6875 -0.33125000000000004
v -0.6875 0.6875 -0.34375
v -0.6875 0.625 -0.33125000000000004
v -0.6875 0.625 -0.34375
v -0.8125 0.6875 -0.33125000000000004
v -0.8125 0.6875 -0.34375
v -0.8125 0.625 -0.33125000000000004
v -0.8125 0.625 -0.34375
vt 0.93359375 0.916015625
vt 0.931640625 0.916015625
vt 0.931640625 0.9140625
vt 0.93359375 0.9140625
vt 0.93359375 0.91015625
vt 0.93359375 0.912109375
vt 0.931640625 0.912109375
vt 0.931640625 0.91015625
vt 0.1171875 0.072265625
vt 0.12109375 0.072265625
vt 0.12109375 0.07421875
vt 0.1171875 0.07421875
vt 0.9296875 0.869140625
vt 0.9296875 0.87109375
vt 0.92578125 0.87109375
vt 0.92578125 0.869140625
vt 0.142578125 0.072265625
vt 0.142578125 0.07421875
vt 0.138671875 0.07421875
vt 0.138671875 0.072265625
vt 0.9296875 0.859375
vt 0.92578125 0.859375
vt 0.92578125 0.857421875
vt 0.9296875 0.857421875
vn 1 0 0
vn -1 0 0
vn 0 1 0
vn 0 -1 0
vn 0 0 1
vn 0 0 -1
usemtl none
f 90/217/55 89/218/55 91/219/55 92/220/55
f 95/221/56 93/222/56 94/223/56 96/224/56
f 93/225/57 89/226/57 90/227/57 94/228/57
f 92/229/58 91/230/58 95/231/58 96/232/58
f 91/233/59 89/234/59 93/235/59 95/236/59
f 94/237/60 90/238/60 92/239/60 96/240/60
o cube
v -0.6875 0.6875 -0.3125
v -0.6875 0.6875 -0.32499999999999996
v -0.6875 0.625 -0.3125
v -0.6875 0.625 -0.32499999999999996
v -0.8125 0.6875 -0.3125
v -0.8125 0.6875 -0.32499999999999996
v -0.8125 0.625 -0.3125
v -0.8125 0.625 -0.32499999999999996
vt 0.93359375 0.892578125
vt 0.931640625 0.892578125
vt 0.931640625 0.890625
vt 0.93359375 0.890625
vt 0.93359375 0.876953125
vt 0.93359375 0.87890625
vt 0.931640625 0.87890625
vt 0.931640625 0.876953125
vt 0.92578125 0.853515625
vt 0.9296875 0.853515625
vt 0.9296875 0.85546875
vt 0.92578125 0.85546875
vt 0.15625 0.072265625
vt 0.15625 0.07421875
vt 0.15234375 0.07421875
vt 0.15234375 0.072265625
vt 0.9296875 0.837890625
vt 0.9296875 0.83984375
vt 0.92578125 0.83984375
vt 0.92578125 0.837890625
vt 0.9296875 0.81640625
vt 0.92578125 0.81640625
vt 0.92578125 0.814453125
vt 0.9296875 0.814453125
vn 1 0 0
vn -1 0 0
vn 0 1 0
vn 0 -1 0
vn 0 0 1
vn 0 0 -1
usemtl none
f 98/241/61 97/242/61 99/243/61 100/244/61
f 103/245/62 101/246/62 102/247/62 104/248/62
f 101/249/63 97/250/63 98/251/63 102/252/63
f 100/253/64 99/254/64 103/255/64 104/256/64
f 99/257/65 97/258/65 101/259/65 103/260/65
f 102/261/66 98/262/66 100/263/66 104/264/66
o cube
v -0.6875 0.6875 -0.30000000000000004
v -0.6875 0.6875 -0.3125
v -0.6875 0.625 -0.30000000000000004
v -0.6875 0.625 -0.3125
v -0.8125 0.6875 -0.30000000000000004
v -0.8125 0.6875 -0.3125
v -0.8125 0.625 -0.30000000000000004
v -0.8125 0.625 -0.3125
vt 0.93359375 0.87109375
vt 0.931640625 0.87109375
vt 0.931640625 0.869140625
vt 0.93359375 0.869140625
vt 0.93359375 0.857421875
vt 0.93359375 0.859375
vt 0.931640625 0.859375
vt 0.931640625 0.857421875
vt 0.92578125 0.779296875
vt 0.9296875 0.779296875
vt 0.9296875 0.78125
vt 0.92578125 0.78125
vt 0.9296875 0.775390625
vt 0.9296875 0.77734375
vt 0.92578125 0.77734375
vt 0.92578125 0.775390625
vt 0.9296875 0.765625
vt 0.9296875 0.767578125
vt 0.92578125 0.767578125
vt 0.92578125 0.765625
vt 0.9296875 0.763671875
vt 0.92578125 0.763671875
vt 0.92578125 0.76171875
vt 0.9296875 0.76171875
vn 1 0 0
vn -1 0 0
vn 0 1 0
vn 0 -1 0
vn 0 0 1
vn 0 0 -1
usemtl none
f 106/265/67 105/266/67 107/267/67 108/268/67
f 111/269/68 109/270/68 110/271/68 112/272/68
f 109/273/69 105/274/69 106/275/69 110/276/69
f 108/277/70 107/278/70 111/279/70 112/280/70
f 107/281/71 105/282/71 109/283/71 111/284/71
f 110/285/72 106/286/72 108/287/72 112/288/72
o cube
v -0.6875 0.6875 -0.2875000000000001
v -0.6875 0.6875 -0.30000000000000004
v -0.6875 0.625 -0.2875000000000001
v -0.6875 0.625 -0.30000000000000004
v -0.8125 0.6875 -0.2875000000000001
v -0.8125 0.6875 -0.30000000000000004
v -0.8125 0.625 -0.2875000000000001
v -0.8125 0.625 -0.30000000000000004
vt 0.93359375 0.85546875
vt 0.931640625 0.85546875
vt 0.931640625 0.853515625
vt 0.93359375 0.853515625
vt 0.93359375 0.837890625
vt 0.93359375 0.83984375
vt 0.931640625 0.83984375
vt 0.931640625 0.837890625
vt 0.23828125 0.072265625
vt 0.2421875 0.072265625
vt 0.2421875 0.07421875
vt 0.23828125 0.07421875
vt 0.248046875 0.072265625
vt 0.248046875 0.07421875
vt 0.244140625 0.07421875
vt 0.244140625 0.072265625
vt 0.25390625 0.072265625
vt 0.25390625 0.07421875
vt 0.25 0.07421875
vt 0.25 0.072265625
vt 0.259765625 0.07421875
vt 0.255859375 0.07421875
vt 0.255859375 0.072265625
vt 0.259765625 0.072265625
vn 1 0 0
vn -1 0 0
vn 0 1 0
vn 0 -1 0
vn 0 0 1
vn 0 0 -1
usemtl none
f 114/289/73 113/290/73 115/291/73 116/292/73
f 119/293/74 117/294/74 118/295/74 120/296/74
f 117/297/75 113/298/75 114/299/75 118/300/75
f 116/301/76 115/302/76 119/303/76 120/304/76
f 115/305/77 113/306/77 117/307/77 119/308/77
f 118/309/78 114/310/78 116/311/78 120/312/78