# Made in Blockbench 4.7.2
mtllib 45.mtl

o cube
v -0.4375 0.125 0.3125
v -0.4375 0.125 -0.625
v -0.4375 -0.0625 0.3125
v -0.4375 -0.0625 -0.625
v -0.5 0.125 0.3125
v -0.5 0.125 -0.625
v -0.5 -0.0625 0.3125
v -0.5 -0.0625 -0.625
vt 0.861328125 0.400390625
vt 0.83203125 0.400390625
vt 0.83203125 0.39453125
vt 0.861328125 0.39453125
vt 0.861328125 0.375
vt 0.861328125 0.380859375
vt 0.83203125 0.380859375
vt 0.83203125 0.375
vt 0.572265625 0.095703125
vt 0.57421875 0.095703125
vt 0.57421875 0.125
vt 0.572265625 0.125
vt 0.578125 0.095703125
vt 0.578125 0.125
vt 0.576171875 0.125
vt 0.576171875 0.095703125
vt 0.91796875 0.654296875
vt 0.91796875 0.66015625
vt 0.916015625 0.66015625
vt 0.916015625 0.654296875
vt 0.91796875 0.4765625
vt 0.916015625 0.4765625
vt 0.916015625 0.470703125
vt 0.91796875 0.470703125
vn 1 0 0
vn -1 0 0
vn 0 1 0
vn 0 -1 0
vn 0 0 1
vn 0 0 -1
usemtl none
f 2/1/1 1/2/1 3/3/1 4/4/1
f 7/5/2 5/6/2 6/7/2 8/8/2
f 5/9/3 1/10/3 2/11/3 6/12/3
f 4/13/4 3/14/4 7/15/4 8/16/4
f 3/17/5 1/18/5 5/19/5 7/20/5
f 6/21/6 2/22/6 4/23/6 8/24/6
o cube
v -0.5 0.0625 0.3125
v -0.5 0.0625 -0.625
v -0.5 0 0.3125
v -0.5 0 -0.625
v -0.875 0.0625 0.3125
v -0.875 0.0625 -0.625
v -0.875 0 0.3125
v -0.875 0 -0.625
vt 0.904296875 0.4296875
vt 0.875 0.4296875
vt 0.875 0.427734375
vt 0.904296875 0.427734375
vt 0.904296875 0.408203125
vt 0.904296875 0.41015625
vt 0.875 0.41015625
vt 0.875 0.408203125
vt 0.431640625 0.296875
vt 0.443359375 0.296875
vt 0.443359375 0.326171875
vt 0.431640625 0.326171875
vt 0.599609375 0.271484375
vt 0.599609375 0.30078125
vt 0.587890625 0.30078125
vt 0.587890625 0.271484375
vt 0.91796875 0.28125
vt 0.91796875 0.283203125
vt 0.90625 0.283203125
vt 0.90625 0.28125
vt 0.919921875 0.958984375
vt 0.908203125 0.958984375
vt 0.908203125 0.95703125
vt 0.919921875 0.95703125
vn 1 0 0
vn -1 0 0
vn 0 1 0
vn 0 -1 0
vn 0 0 1
vn 0 0 -1
usemtl none
f 10/25/7 9/26/7 11/27/7 12/28/7
f 15/29/8 13/30/8 14/31/8 16/32/8
f 13/33/9 9/34/9 10/35/9 14/36/9
f 12/37/10 11/38/10 15/39/10 16/40/10
f 11/41/11 9/42/11 13/43/11 15/44/11
f 14/45/12 10/46/12 12/47/12 16/48/12
o cube
v -0.875 0.875 0.3125
v -0.875 0.875 -0.625
v -0.875 -0.0625 0.3125
v -0.875 -0.0625 -0.625
v -0.9375 0.875 0.3125
v -0.9375 0.875 -0.625
v -0.9375 -0.0625 0.3125
v -0.9375 -0.0625 -0.625
vt 0.5859375 0.30078125
vt 0.556640625 0.30078125
vt 0.556640625 0.271484375
vt 0.5859375 0.271484375
vt 0.16796875 0.26953125
vt 0.16796875 0.298828125
vt 0.138671875 0.298828125
vt 0.138671875 0.26953125
vt 0.580078125 0.095703125
vt 0.58203125 0.095703125
vt 0.58203125 0.125
vt 0.580078125 0.125
vt 0.5859375 0.095703125
vt 0.5859375 0.125
vt 0.583984375 0.125
vt 0.583984375 0.095703125
vt 0.201171875 0.09375
vt 0.201171875 0.123046875
vt 0.19921875 0.123046875
vt 0.19921875 0.09375
vt 0.42578125 0.123046875
vt 0.423828125 0.123046875
vt 0.423828125 0.09375
vt 0.42578125 0.09375
vn 1 0 0
vn -1 0 0
vn 0 1 0
vn 0 -1 0
vn 0 0 1
vn 0 0 -1
usemtl none
f 18/49/13 17/50/13 19/51/13 20/52/13
f 23/53/14 21/54/14 22/55/14 24/56/14
f 21/57/15 17/58/15 18/59/15 22/60/15
f 20/61/16 19/62/16 23/63/16 24/64/16
f 19/65/17 17/66/17 21/67/17 23/68/17
f 22/69/18 18/70/18 20/71/18 24/72/18
o cube
v 1.375 0.9375 0.375
v 1.375 0.9375 -0.625
v 1.375 0.875 0.375
v 1.375 0.875 -0.625
v -0.9375 0.9375 0.375
v -0.9375 0.9375 -0.625
v -0.9375 0.875 0.375
v -0.9375 0.875 -0.625
vt 0.900390625 0.369140625
vt 0.869140625 0.369140625
vt 0.869140625 0.3671875
vt 0.900390625 0.3671875
vt 0.900390625 0.36328125
vt 0.900390625 0.365234375
vt 0.869140625 0.365234375
vt 0.869140625 0.36328125
vt 0.57421875 0.455078125
vt 0.646484375 0.455078125
vt 0.646484375 0.486328125
vt 0.57421875 0.486328125
vt 0.646484375 0.421875
vt 0.646484375 0.453125
vt 0.57421875 0.453125
vt 0.57421875 0.421875
vt 0.90625 0.880859375
vt 0.90625 0.8828125
vt 0.833984375 0.8828125
vt 0.833984375 0.880859375
vt 0.90625 0.87890625
vt 0.833984375 0.87890625
vt 0.833984375 0.876953125
vt 0.90625 0.876953125
vn 1 0 0
vn -1 0 0
vn 0 1 0
vn 0 -1 0
vn 0 0 1
vn 0 0 -1
usemtl none
f 26/73/19 25/74/19 27/75/19 28/76/19
f 31/77/20 29/78/20 30/79/20 32/80/20
f 29/81/21 25/82/21 26/83/21 30/84/21
f 28/85/22 27/86/22 31/87/22 32/88/22
f 27/89/23 25/90/23 29/91/23 31/92/23
f 30/93/24 26/94/24 28/95/24 32/96/24
o cube
v 1.125 0.8125 -0.6875
v 1.125 0.8125 -0.75
v 1.125 0.75 -0.6875
v 1.125 0.75 -0.75
v 0.9375 0.8125 -0.6875
v 0.9375 0.8125 -0.75
v 0.9375 0.75 -0.6875
v 0.9375 0.75 -0.75
vt 0.4296875 0.0703125
vt 0.427734375 0.0703125
vt 0.427734375 0.068359375
vt 0.4296875 0.068359375
vt 0.931640625 0.568359375
vt 0.931640625 0.5703125
vt 0.9296875 0.5703125
vt 0.9296875 0.568359375
vt 0.916015625 0.30078125
vt 0.921875 0.30078125
vt 0.921875 0.302734375
vt 0.916015625 0.302734375
vt 0.921875 0.240234375
vt 0.921875 0.2421875
vt 0.916015625 0.2421875
vt 0.916015625 0.240234375
vt 0.921875 0.236328125
vt 0.921875 0.23828125
vt 0.916015625 0.23828125
vt 0.916015625 0.236328125
vt 0.921875 0.234375
vt 0.916015625 0.234375
vt 0.916015625 0.232421875
vt 0.921875 0.232421875
vn 1 0 0
vn -1 0 0
vn 0 1 0
vn 0 -1 0
vn 0 0 1
vn 0 0 -1
usemtl none
f 34/97/25 33/98/25 35/99/25 36/100/25
f 39/101/26 37/102/26 38/103/26 40/104/26
f 37/105/27 33/106/27 34/107/27 38/108/27
f 36/109/28 35/110/28 39/111/28 40/112/28
f 35/113/29 33/114/29 37/115/29 39/116/29
f 38/117/30 34/118/30 36/119/30 40/120/30
o cube
v 1.3125 0.875 -0.625
v 1.3125 0.875 -0.6875
v 1.3125 0.625 -0.625
v 1.3125 0.625 -0.6875
v 0.75 0.875 -0.625
v 0.75 0.875 -0.6875
v 0.75 0.625 -0.625
v 0.75 0.625 -0.6875
vt 0.529296875 0.638671875
vt 0.52734375 0.638671875
vt 0.52734375 0.630859375
vt 0.529296875 0.630859375
vt 0.544921875 0.755859375
vt 0.544921875 0.763671875
vt 0.54296875 0.763671875
vt 0.54296875 0.755859375
vt 0.904296875 0.587890625
vt 0.921875 0.587890625
vt 0.921875 0.58984375
vt 0.904296875 0.58984375
vt 0.921875 0.583984375
vt 0.921875 0.5859375
vt 0.904296875 0.5859375
vt 0.904296875 0.583984375
vt 0.177734375 0.158203125
vt 0.177734375 0.166015625
vt 0.16015625 0.166015625
vt 0.16015625 0.158203125
vt 0.22265625 0.166015625
vt 0.205078125 0.166015625
vt 0.205078125 0.158203125
vt 0.22265625 0.158203125
vn 1 0 0
vn -1 0 0
vn 0 1 0
vn 0 -1 0
vn 0 0 1
vn 0 0 -1
usemtl none
f 42/121/31 41/122/31 43/123/31 44/124/31
f 47/125/32 45/126/32 46/127/32 48/128/32
f 45/129/33 41/130/33 42/131/33 46/132/33
f 44/133/34 43/134/34 47/135/34 48/136/34
f 43/137/35 41/138/35 45/139/35 47/140/35
f 46/141/36 42/142/36 44/143/36 48/144/36
o cube
v 0.75 0.875 0.3125
v 0.75 0.875 -0.625
v 0.75 -0.0625 0.3125
v 0.75 -0.0625 -0.625
v 0.6875 0.875 0.3125
v 0.6875 0.875 -0.625
v 0.6875 -0.0625 0.3125
v 0.6875 -0.0625 -0.625
vt 0.2265625 0.298828125
vt 0.197265625 0.298828125
vt 0.197265625 0.26953125
vt 0.2265625 0.26953125
vt 0.732421875 0.861328125
vt 0.732421875 0.890625
vt 0.703125 0.890625
vt 0.703125 0.861328125
vt 0.501953125 0.09375
vt 0.50390625 0.09375
vt 0.50390625 0.123046875
vt 0.501953125 0.123046875
vt 0.521484375 0.09375
vt 0.521484375 0.123046875
vt 0.51953125 0.123046875
vt 0.51953125 0.09375
vt 0.037109375 0.091796875
vt 0.037109375 0.12109375
vt 0.03515625 0.12109375
vt 0.03515625 0.091796875
vt 0.041015625 0.12109375
vt 0.0390625 0.12109375
vt 0.0390625 0.091796875
vt 0.041015625 0.091796875
vn 1 0 0
vn -1 0 0
vn 0 1 0
vn 0 -1 0
vn 0 0 1
vn 0 0 -1
usemtl none
f 50/145/37 49/146/37 51/147/37 52/148/37
f 55/149/38 53/150/38 54/151/38 56/152/38
f 53/153/39 49/154/39 50/155/39 54/156/39
f 52/157/40 51/158/40 55/159/40 56/160/40
f 51/161/41 49/162/41 53/163/41 55/164/41
f 54/165/42 50/166/42 52/167/42 56/168/42
o cube
v 1.375 0.5625 -0.625
v 1.375 0.5625 -0.6875
v 1.375 0 -0.625
v 1.375 0 -0.6875
v 0.6875 0.5625 -0.625
v 0.6875 0.5625 -0.6875
v 0.6875 0 -0.625
v 0.6875 0 -0.6875
vt 0.48046875 0.39453125
vt 0.478515625 0.39453125
vt 0.478515625 0.376953125
vt 0.48046875 0.376953125
vt 0.13671875 0.26953125
vt 0.13671875 0.287109375
vt 0.134765625 0.287109375
vt 0.134765625 0.26953125
vt 0.900390625 0.826171875
vt 0.921875 0.826171875
vt 0.921875 0.828125
vt 0.900390625 0.828125
vt 0.921875 0.822265625
vt 0.921875 0.82421875
vt 0.900390625 0.82421875
vt 0.900390625 0.822265625
vt 0.49609375 0.189453125
vt 0.49609375 0.20703125
vt 0.474609375 0.20703125
vt 0.474609375 0.189453125
vt 0.171875 0.201171875
vt 0.150390625 0.201171875
vt 0.150390625 0.18359375
vt 0.171875 0.18359375
vn 1 0 0
vn -1 0 0
vn 0 1 0
vn 0 -1 0
vn 0 0 1
vn 0 0 -1
usemtl none
f 58/169/43 57/170/43 59/171/43 60/172/43
f 63/173/44 61/174/44 62/175/44 64/176/44
f 61/177/45 57/178/45 58/179/45 62/180/45
f 60/181/46 59/182/46 63/183/46 64/184/46
f 59/185/47 57/186/47 61/187/47 63/188/47
f 62/189/48 58/190/48 60/191/48 64/192/48
o cube
v 0.8125 0.4375 -0.6875
v 0.8125 0.4375 -0.75
v 0.8125 0.25 -0.6875
v 0.8125 0.25 -0.75
v 0.75 0.4375 -0.6875
v 0.75 0.4375 -0.75
v 0.75 0.25 -0.6875
v 0.75 0.25 -0.75
vt 0.56640625 0.083984375
vt 0.564453125 0.083984375
vt 0.564453125 0.078125
vt 0.56640625 0.078125
vt 0.91796875 0.3125
vt 0.91796875 0.318359375
vt 0.916015625 0.318359375
vt 0.916015625 0.3125
vt 0.9296875 0.576171875
vt 0.931640625 0.576171875
vt 0.931640625 0.578125
vt 0.9296875 0.578125
vt 0.42578125 0.068359375
vt 0.42578125 0.0703125
vt 0.423828125 0.0703125
vt 0.423828125 0.068359375
vt 0.91796875 0.3046875
vt 0.91796875 0.310546875
vt 0.916015625 0.310546875
vt 0.916015625 0.3046875
vt 0.91796875 0.263671875
vt 0.916015625 0.263671875
vt 0.916015625 0.2578125
vt 0.91796875 0.2578125
vn 1 0 0
vn -1 0 0
vn 0 1 0
vn 0 -1 0
vn 0 0 1
vn 0 0 -1
usemtl none
f 66/193/49 65/194/49 67/195/49 68/196/49
f 71/197/50 69/198/50 70/199/50 72/200/50
f 69/201/51 65/202/51 66/203/51 70/204/51
f 68/205/52 67/206/52 71/207/52 72/208/52
f 67/209/53 65/210/53 69/211/53 71/212/53
f 70/213/54 66/214/54 68/215/54 72/216/54
o cube
v 1.375 0.875 0.3125
v 1.375 0.875 -0.625
v 1.375 -0.0625 0.3125
v 1.375 -0.0625 -0.625
v 1.3125 0.875 0.3125
v 1.3125 0.875 -0.625
v 1.3125 -0.0625 0.3125
v 1.3125 -0.0625 -0.625
vt 0.4609375 0.294921875
vt 0.431640625 0.294921875
vt 0.431640625 0.265625
vt 0.4609375 0.265625
vt 0.677734375 0.265625
vt 0.677734375 0.294921875
vt 0.6484375 0.294921875
vt 0.6484375 0.265625
vt 0.04296875 0.091796875
vt 0.044921875 0.091796875
vt 0.044921875 0.12109375
vt 0.04296875 0.12109375
vt 0.048828125 0.091796875
vt 0.048828125 0.12109375
vt 0.046875 0.12109375
vt 0.046875 0.091796875
vt 0.052734375 0.091796875
vt 0.052734375 0.12109375
vt 0.05078125 0.12109375
vt 0.05078125 0.091796875
vt 0.056640625 0.12109375
vt 0.0546875 0.12109375
vt 0.0546875 0.091796875
vt 0.056640625 0.091796875
vn 1 0 0
vn -1 0 0
vn 0 1 0
vn 0 -1 0
vn 0 0 1
vn 0 0 -1
usemtl none
f 74/217/55 73/218/55 75/219/55 76/220/55
f 79/221/56 77/222/56 78/223/56 80/224/56
f 77/225/57 73/226/57 74/227/57 78/228/57
f 76/229/58 75/230/58 79/231/58 80/232/58
f 75/233/59 73/234/59 77/235/59 79/236/59
f 78/237/60 74/238/60 76/239/60 80/240/60
o cube
v 1.3125 0.875 -0.5625
v 1.3125 0.875 -0.625
v 1.3125 -0.03750000000000009 -0.5625
v 1.3125 -0.03750000000000009 -0.625
v 0.75 0.875 -0.5625
v 0.75 0.875 -0.625
v 0.75 -0.03750000000000009 -0.5625
v 0.75 -0.03750000000000009 -0.625
vt 0.46875 0.115234375
vt 0.466796875 0.115234375
vt 0.466796875 0.087890625
vt 0.46875 0.087890625
vt 0.302734375 0.0859375
vt 0.302734375 0.11328125
vt 0.30078125 0.11328125
vt 0.30078125 0.0859375
vt 0.904296875 0.580078125
vt 0.921875 0.580078125
vt 0.921875 0.58203125
vt 0.904296875 0.58203125
vt 0.921875 0.5234375
vt 0.921875 0.525390625
vt 0.904296875 0.525390625
vt 0.904296875 0.5234375
vt 0.40625 0.33203125
vt 0.40625 0.359375
vt 0.388671875 0.359375
vt 0.388671875 0.33203125
vt 0.24609375 0.298828125
vt 0.228515625 0.298828125
vt 0.228515625 0.271484375
vt 0.24609375 0.271484375
vn 1 0 0
vn -1 0 0
vn 0 1 0
vn 0 -1 0
vn 0 0 1
vn 0 0 -1
usemtl none
f 82/241/61 81/242/61 83/243/61 84/244/61
f 87/245/62 85/246/62 86/247/62 88/248/62
f 85/249/63 81/250/63 82/251/63 86/252/63
f 84/253/64 83/254/64 87/255/64 88/256/64
f 83/257/65 81/258/65 85/259/65 87/260/65
f 86/261/66 82/262/66 84/263/66 88/264/66
o cube
v 1.375 0.875 0.375
v 1.375 0.875 0.3125
v 1.375 -0.0625 0.375
v 1.375 -0.0625 0.3125
v -0.9375 0.875 0.375
v -0.9375 0.875 0.3125
v -0.9375 -0.0625 0.375
v -0.9375 -0.0625 0.3125
vt 0.060546875 0.12109375
vt 0.05859375 0.12109375
vt 0.05859375 0.091796875
vt 0.060546875 0.091796875
vt 0.064453125 0.091796875
vt 0.064453125 0.12109375
vt 0.0625 0.12109375
vt 0.0625 0.091796875
vt 0.833984375 0.978515625
vt 0.90625 0.978515625
vt 0.90625 0.98046875
vt 0.833984375 0.98046875
vt 0.90625 0.884765625
vt 0.90625 0.88671875
vt 0.833984375 0.88671875
vt 0.833984375 0.884765625
vt 0.68359375 0.595703125
vt 0.68359375 0.625
vt 0.611328125 0.625
vt 0.611328125 0.595703125
vt 0.68359375 0.59375
vt 0.611328125 0.59375
vt 0.611328125 0.564453125
vt 0.68359375 0.564453125
vn 1 0 0
vn -1 0 0
vn 0 1 0
vn 0 -1 0
vn 0 0 1
vn 0 0 -1
usemtl none
f 90/265/67 89/266/67 91/267/67 92/268/67
f 95/269/68 93/270/68 94/271/68 96/272/68
f 93/273/69 89/274/69 90/275/69 94/276/69
f 92/277/70 91/278/70 95/279/70 96/280/70
f 91/281/71 89/282/71 93/283/71 95/284/71
f 94/285/72 90/286/72 92/287/72 96/288/72