# Made in Blockbench 4.7.2
mtllib 6.mtl

o Door_Pattern
v -0.16874999999999973 1.1875 -0.16874999999999982
v -0.23124999999999973 1.125 -0.19374999999999995
v -0.16874999999999973 0.6875 -0.16874999999999982
v -0.23124999999999973 0.75 -0.19374999999999995
v -0.35624999999999973 1.1875 -0.16874999999999982
v -0.29374999999999973 1.125 -0.19374999999999995
v -0.35624999999999973 0.6875 -0.16874999999999982
v -0.29374999999999973 0.75 -0.19374999999999995
vt 0.695556640625 0.150240234375
vt 0.693453125 0.152193359375
vt 0.693404296875 0.13642187500000014
vt 0.695556640625 0.138521484375
vt 0.699662109375 0.13642187500000003
vt 0.69961328125 0.152193359375
vt 0.697509765625 0.150240234375
vt 0.697509765625 0.138521484375
vt 0.699462890625 0.15234375
vt 0.693603515625 0.15234375
vt 0.695556640625 0.150240234375
vt 0.697509765625 0.150240234375
vt 0.695556640625 0.138521484375
vt 0.6935546875 0.13627148437500014
vt 0.69951171875 0.13627148437500003
vt 0.697509765625 0.138521484375
vt 0.328125 0.462890625
vt 0.328125 0.478515625
vt 0.322265625 0.478515625
vt 0.322265625 0.462890625
vt 0.697509765625 0.150240234375
vt 0.695556640625 0.150240234375
vt 0.695556640625 0.138521484375
vt 0.697509765625 0.138521484375
vn 0.37139067635410544 0 -0.9284766908852586
vn -0.37139067635410544 0 -0.9284766908852586
vn 0 0.37139067635410544 -0.9284766908852586
vn 0 -0.37139067635410544 -0.9284766908852586
vn 0 0 1
vn 0 0 -1
usemtl none
f 2/1/1 1/2/1 3/3/1 4/4/1
f 7/5/2 5/6/2 6/7/2 8/8/2
f 5/9/3 1/10/3 2/11/3 6/12/3
f 4/13/4 3/14/4 7/15/4 8/16/4
f 3/17/5 1/18/5 5/19/5 7/20/5
f 6/21/6 2/22/6 4/23/6 8/24/6
o Door_Pattern
v 0.20000000000000018 1.1875 -0.16874999999999982
v 0.13750000000000018 1.125 -0.19374999999999995
v 0.20000000000000018 0.6875 -0.16874999999999982
v 0.13750000000000018 0.75 -0.19374999999999995
v 0.012500000000000178 1.1875 -0.16874999999999982
v 0.07500000000000018 1.125 -0.19374999999999995
v 0.012500000000000178 0.6875 -0.16874999999999982
v 0.07500000000000018 0.75 -0.19374999999999995
vt 0.685791015625 0.150240234375
vt 0.6836875 0.152193359375
vt 0.6835898437500001 0.13642187500000014
vt 0.685791015625 0.138521484375
vt 0.6899453124999999 0.13642187500000014
vt 0.68984765625 0.152193359375
vt 0.687744140625 0.150240234375
vt 0.687744140625 0.138521484375
vt 0.689697265625 0.15234375
vt 0.683837890625 0.15234375
vt 0.685791015625 0.150240234375
vt 0.687744140625 0.150240234375
vt 0.685791015625 0.138521484375
vt 0.6837402343750001 0.13627148437500014
vt 0.6897949218749999 0.13627148437500014
vt 0.687744140625 0.138521484375
vt 0.3046875 0.46484375
vt 0.3046875 0.48046875
vt 0.298828125 0.48046875
vt 0.298828125 0.46484375
vt 0.687744140625 0.150240234375
vt 0.685791015625 0.150240234375
vt 0.685791015625 0.138521484375
vt 0.687744140625 0.138521484375
vn 0.37139067635410544 0 -0.9284766908852586
vn -0.37139067635410544 0 -0.9284766908852586
vn 0 0.37139067635410544 -0.9284766908852586
vn 0 -0.37139067635410544 -0.9284766908852586
vn 0 0 1
vn 0 0 -1
usemtl none
f 10/25/7 9/26/7 11/27/7 12/28/7
f 15/29/8 13/30/8 14/31/8 16/32/8
f 13/33/9 9/34/9 10/35/9 14/36/9
f 12/37/10 11/38/10 15/39/10 16/40/10
f 11/41/11 9/42/11 13/43/11 15/44/11
f 14/45/12 10/46/12 12/47/12 16/48/12
o Door_Pattern
v 0.20000000000000018 0.5625 -0.16874999999999982
v 0.13750000000000018 0.5 -0.19374999999999995
v 0.20000000000000018 0.0625 -0.16874999999999982
v 0.13750000000000018 0.125 -0.19374999999999995
v 0.012500000000000178 0.5625 -0.16874999999999982
v 0.07500000000000018 0.5 -0.19374999999999995
v 0.012500000000000178 0.0625 -0.16874999999999982
v 0.07500000000000018 0.125 -0.19374999999999995
vt 0.304931640625 0.150240234375
vt 0.302828125 0.152193359375
vt 0.302828125 0.13637304687500018
vt 0.304931640625 0.138521484375
vt 0.309037109375 0.13632421875000023
vt 0.30898828125 0.152193359375
vt 0.306884765625 0.150240234375
vt 0.306884765625 0.138521484375
vt 0.308837890625 0.15234375
vt 0.302978515625 0.15234375
vt 0.304931640625 0.150240234375
vt 0.306884765625 0.150240234375
vt 0.304931640625 0.138521484375
vt 0.302978515625 0.13622246093750023
vt 0.308935546875 0.13632011718750014
vt 0.306884765625 0.138521484375
vt 0.431640625 0.453125
vt 0.431640625 0.46875
vt 0.42578125 0.46875
vt 0.42578125 0.453125
vt 0.306884765625 0.150240234375
vt 0.304931640625 0.150240234375
vt 0.304931640625 0.138521484375
vt 0.306884765625 0.138521484375
vn 0.37139067635410544 0 -0.9284766908852586
vn -0.37139067635410544 0 -0.9284766908852586
vn 0 0.37139067635410544 -0.9284766908852586
vn 0 -0.37139067635410544 -0.9284766908852586
vn 0 0 1
vn 0 0 -1
usemtl none
f 18/49/13 17/50/13 19/51/13 20/52/13
f 23/53/14 21/54/14 22/55/14 24/56/14
f 21/57/15 17/58/15 18/59/15 22/60/15
f 20/61/16 19/62/16 23/63/16 24/64/16
f 19/65/17 17/66/17 21/67/17 23/68/17
f 22/69/18 18/70/18 20/71/18 24/72/18
o Door_Pattern
v -0.16874999999999973 0.5625 -0.16874999999999982
v -0.23124999999999973 0.5 -0.19374999999999995
v -0.16874999999999973 0.0625 -0.16874999999999982
v -0.23124999999999973 0.125 -0.19374999999999995
v -0.35624999999999973 0.5625 -0.16874999999999982
v -0.29374999999999973 0.5 -0.19374999999999995
v -0.35624999999999973 0.0625 -0.16874999999999982
v -0.29374999999999973 0.125 -0.19374999999999995
vt 0.431884765625 0.152193359375
vt 0.42978125 0.154146484375
vt 0.429732421875 0.13837500000000014
vt 0.431884765625 0.140474609375
vt 0.435990234375 0.13837500000000025
vt 0.43594140625 0.154146484375
vt 0.433837890625 0.152193359375
vt 0.433837890625 0.140474609375
vt 0.435791015625 0.154296875
vt 0.429931640625 0.154296875
vt 0.431884765625 0.152193359375
vt 0.433837890625 0.152193359375
vt 0.431884765625 0.140474609375
vt 0.42973632812499996 0.1382244140625002
vt 0.43598632812500004 0.1382244140625003
vt 0.433837890625 0.140474609375
vt 0.021484375 0.45703125
vt 0.021484375 0.47265625
vt 0.015625 0.47265625
vt 0.015625 0.45703125
vt 0.433837890625 0.152193359375
vt 0.431884765625 0.152193359375
vt 0.431884765625 0.140474609375
vt 0.433837890625 0.140474609375
vn 0.37139067635410544 0 -0.9284766908852586
vn -0.37139067635410544 0 -0.9284766908852586
vn 0 0.37139067635410544 -0.9284766908852586
vn 0 -0.37139067635410544 -0.9284766908852586
vn 0 0 1
vn 0 0 -1
usemtl none
f 26/73/19 25/74/19 27/75/19 28/76/19
f 31/77/20 29/78/20 30/79/20 32/80/20
f 29/81/21 25/82/21 26/83/21 30/84/21
f 28/85/22 27/86/22 31/87/22 32/88/22
f 27/89/23 25/90/23 29/91/23 31/92/23
f 30/93/24 26/94/24 28/95/24 32/96/24
o Door
v 0.31875000000000053 1.3125 -0.10624999999999998
v 0.31875000000000053 1.3125 -0.16874999999999998
v 0.31875000000000053 0 -0.10624999999999998
v 0.31875000000000053 0 -0.16874999999999998
v -0.47499999999999964 1.3125 -0.10624999999999998
v -0.47499999999999964 1.3125 -0.16874999999999998
v -0.47499999999999964 0 -0.10624999999999998
v -0.47499999999999964 0 -0.16874999999999998
vt 0.244140625 0.142578125
vt 0.2421875 0.142578125
vt 0.2421875 0.1015625
vt 0.244140625 0.1015625
vt 0.248046875 0.1015625
vt 0.248046875 0.142578125
vt 0.24609375 0.142578125
vt 0.24609375 0.1015625
vt 0.873046875 0.111328125
vt 0.8984375 0.111328125
vt 0.8984375 0.11328125
vt 0.873046875 0.11328125
vt 0.9140625 0.947265625
vt 0.9140625 0.94921875
vt 0.888671875 0.94921875
vt 0.888671875 0.947265625
vt 0.189453125 0.470703125
vt 0.189453125 0.51171875
vt 0.1640625 0.51171875
vt 0.1640625 0.470703125
vt 0.158203125 0.443359375
vt 0.1328125 0.443359375
vt 0.1328125 0.40234375
vt 0.158203125 0.40234375
vn 1 0 0
vn -1 0 0
vn 0 1 0
vn 0 -1 0
vn 0 0 1
vn 0 0 -1
usemtl none
f 34/97/25 33/98/25 35/99/25 36/100/25
f 39/101/26 37/102/26 38/103/26 40/104/26
f 37/105/27 33/106/27 34/107/27 38/108/27
f 36/109/28 35/110/28 39/111/28 40/112/28
f 35/113/29 33/114/29 37/115/29 39/116/29
f 38/117/30 34/118/30 36/119/30 40/120/30
o Handle
v -0.28125 0.6875000000000002 -0.20624999999999996
v -0.28125 0.6875000000000002 -0.2312500000000001
v -0.28125 0.6437500000000003 -0.20624999999999996
v -0.28125 0.6437500000000003 -0.2312500000000001
v -0.46875 0.6875000000000002 -0.20624999999999996
v -0.46875 0.6875000000000002 -0.2312500000000001
v -0.46875 0.6437500000000003 -0.20624999999999996
v -0.46875 0.6437500000000003 -0.2312500000000001
v -0.375 0.6875000000000002 -0.2312500000000001
v -0.375 0.6875000000000002 -0.20624999999999996
v -0.375 0.6437500000000003 -0.20624999999999996
v -0.375 0.6437500000000003 -0.2312500000000001
v -0.421875 0.6875000000000002 -0.2312500000000001
v -0.421875 0.6875000000000002 -0.20624999999999996
v -0.421875 0.6437500000000003 -0.20624999999999996
v -0.421875 0.6437500000000003 -0.2312500000000001
v -0.46875 0.6437500000000003 -0.1624999999999999
v -0.421875 0.6875000000000002 -0.1624999999999999
v -0.421875 0.6437500000000003 -0.1624999999999999
v -0.46875 0.6875000000000002 -0.1624999999999999
vt 0.34765625 0.8515625
vt 0.345703125 0.8515625
vt 0.345703125 0.849609375
vt 0.34765625 0.849609375
vt 0.932568359375 0.10019531250000002
vt 0.932568359375 0.1015625
vt 0.931787109375 0.1015625
vt 0.931787109375 0.10019531250000002
vt 0.9140625 0.12812500000000004
vt 0.91552734375 0.12812500000000004
vt 0.91552734375 0.12890625
vt 0.9140625 0.12890625
vt 0.916015625 0.99755859375
vt 0.91748046875 0.99755859375
vt 0.91748046875 0.99833984375
vt 0.916015625 0.99833984375
vt 0.16015625 0.640625
vt 0.162109375 0.640625
vt 0.162109375 0.642578125
vt 0.16015625 0.642578125
vt 0.734375 0.076171875
vt 0.73291015625 0.076171875
vt 0.73291015625 0.07480468750000002
vt 0.734375 0.07480468750000002
vt 0.919921875 0.12890625
vt 0.9169921875 0.12890625
vt 0.9169921875 0.12812500000000004
vt 0.919921875 0.12812500000000004
vt 0.93212890625 0.1484375
vt 0.92919921875 0.1484375
vt 0.92919921875 0.14707031250000002
vt 0.93212890625 0.14707031250000002
vt 0.921875 0.99833984375
vt 0.9189453125 0.99833984375
vt 0.9189453125 0.99755859375
vt 0.921875 0.99755859375
vt 0.728515625 0.07480468750000002
vt 0.7314453125 0.07480468750000002
vt 0.7314453125 0.076171875
vt 0.728515625 0.076171875
vt 0.9169921875 0.12890625
vt 0.91552734375 0.12890625
vt 0.91552734375 0.12812500000000004
vt 0.9169921875 0.12812500000000004
vt 0.92919921875 0.1484375
vt 0.927734375 0.1484375
vt 0.927734375 0.14707031250000002
vt 0.92919921875 0.14707031250000002
vt 0.9189453125 0.99833984375
vt 0.91748046875 0.99833984375
vt 0.91748046875 0.99755859375
vt 0.9189453125 0.99755859375
vt 0.7314453125 0.07480468750000002
vt 0.73291015625 0.07480468750000002
vt 0.73291015625 0.076171875
vt 0.7314453125 0.076171875
vt 0.91748046875 0.99970703125
vt 0.916015625 0.99970703125
vt 0.916015625 0.99833984375
vt 0.91748046875 0.99833984375
vt 0.17578125 0.63671875
vt 0.17578125 0.634765625
vt 0.177734375 0.634765625
vt 0.177734375 0.63671875
vt 0.9140625 0.12675781249999996
vt 0.91552734375 0.12675781249999996
vt 0.91552734375 0.12812500000000004
vt 0.9140625 0.12812500000000004
vt 0.933935546875 0.10019531250000002
vt 0.933935546875 0.1015625
vt 0.932568359375 0.1015625
vt 0.932568359375 0.10019531250000002
vn 1 0 0
vn -1 0 0
vn 0 1 0
vn 0 -1 0
vn 0 0 1
vn 0 0 -1
vn 0 1 0
vn 0 0 1
vn 0 -1 0
vn 0 0 -1
vn 0 1 0
vn 0 0 1
vn 0 -1 0
vn 0 0 -1
vn 0 -1 0
vn 1 0 0
vn 0 1 0
vn -1 0 0
usemtl none
f 42/121/31 41/122/31 43/123/31 44/124/31
f 47/125/32 45/126/32 46/127/32 48/128/32
f 45/129/33 54/130/33 53/131/33 46/132/33
f 48/133/34 56/134/34 55/135/34 47/136/34
f 57/137/35 59/138/35 58/139/35 60/140/35
f 46/141/36 53/142/36 56/143/36 48/144/36
f 42/145/37 49/146/37 50/147/37 41/148/37
f 41/149/38 50/150/38 51/151/38 43/152/38
f 43/153/39 51/154/39 52/155/39 44/156/39
f 44/157/40 52/158/40 49/159/40 42/160/40
f 49/161/41 53/162/41 54/163/41 50/164/41
f 50/165/42 54/166/42 55/167/42 51/168/42
f 51/169/43 55/170/43 56/171/43 52/172/43
f 52/173/44 56/174/44 53/175/44 49/176/44
f 59/177/45 57/178/45 47/179/45 55/180/45
f 58/181/46 59/182/46 55/183/46 54/184/46
f 60/185/47 58/186/47 54/187/47 45/188/47
f 57/189/48 60/190/48 45/191/48 47/192/48
o Handle
v -0.28125000000000044 0.6437499999999998 -0.07499999999999964
v -0.28125000000000044 0.6437499999999998 -0.04999999999999956
v -0.28125000000000044 0.6874999999999998 -0.07499999999999964
v -0.28125000000000044 0.6874999999999998 -0.049999999999999566
v -0.46875000000000044 0.6437499999999998 -0.07499999999999961
v -0.46875000000000044 0.6437499999999998 -0.04999999999999953
v -0.46875000000000044 0.6874999999999998 -0.07499999999999962
v -0.46875000000000044 0.6874999999999998 -0.04999999999999954
v -0.37500000000000044 0.6437499999999998 -0.049999999999999545
v -0.37500000000000044 0.6437499999999998 -0.07499999999999962
v -0.37500000000000044 0.6874999999999998 -0.07499999999999962
v -0.37500000000000044 0.6874999999999998 -0.04999999999999955
v -0.42187500000000044 0.6437499999999998 -0.04999999999999954
v -0.42187500000000044 0.6437499999999998 -0.07499999999999962
v -0.42187500000000044 0.6874999999999998 -0.07499999999999962
v -0.42187500000000044 0.6874999999999998 -0.049999999999999545
v -0.46875000000000044 0.6874999999999997 -0.11874999999999969
v -0.42187500000000044 0.6437499999999998 -0.11874999999999969
v -0.42187500000000044 0.6874999999999997 -0.11874999999999969
v -0.46875000000000044 0.6437499999999998 -0.11874999999999968
vt 0.931640625 0.55078125
vt 0.9296875 0.55078125
vt 0.9296875 0.548828125
vt 0.931640625 0.548828125
vt 0.846630859375 0.06699218750000002
vt 0.846630859375 0.068359375
vt 0.845849609375 0.068359375
vt 0.845849609375 0.06699218750000002
vt 0.916015625 0.966015625
vt 0.91748046875 0.966015625
vt 0.91748046875 0.966796875
vt 0.916015625 0.966796875
vt 0.916015625 0.94873046875
vt 0.91748046875 0.94873046875
vt 0.91748046875 0.94951171875
vt 0.916015625 0.94951171875
vt 0.453125 0.068359375
vt 0.455078125 0.068359375
vt 0.455078125 0.0703125
vt 0.453125 0.0703125
vt 0.9296875 0.27734375
vt 0.92822265625 0.27734375
vt 0.92822265625 0.2759765625
vt 0.9296875 0.2759765625
vt 0.921875 0.966796875
vt 0.9189453125 0.966796875
vt 0.9189453125 0.966015625
vt 0.921875 0.966015625
vt 0.83837890625 0.072265625
vt 0.83544921875 0.072265625
vt 0.83544921875 0.07089843750000002
vt 0.83837890625 0.07089843750000002
vt 0.921875 0.94951171875
vt 0.9189453125 0.94951171875
vt 0.9189453125 0.94873046875
vt 0.921875 0.94873046875
vt 0.923828125 0.2759765625
vt 0.9267578125 0.2759765625
vt 0.9267578125 0.27734375
vt 0.923828125 0.27734375
vt 0.9189453125 0.966796875
vt 0.91748046875 0.966796875
vt 0.91748046875 0.966015625
vt 0.9189453125 0.966015625
vt 0.83544921875 0.072265625
vt 0.833984375 0.072265625
vt 0.833984375 0.07089843750000002
vt 0.83544921875 0.07089843750000002
vt 0.9189453125 0.94951171875
vt 0.91748046875 0.94951171875
vt 0.91748046875 0.94873046875
vt 0.9189453125 0.94873046875
vt 0.9267578125 0.2759765625
vt 0.92822265625 0.2759765625
vt 0.92822265625 0.27734375
vt 0.9267578125 0.27734375
vt 0.91748046875 0.95087890625
vt 0.916015625 0.95087890625
vt 0.916015625 0.94951171875
vt 0.91748046875 0.94951171875
vt 0.9296875 0.546875
vt 0.9296875 0.544921875
vt 0.931640625 0.544921875
vt 0.931640625 0.546875
vt 0.916015625 0.9646484375
vt 0.91748046875 0.9646484375
vt 0.91748046875 0.966015625
vt 0.916015625 0.966015625
vt 0.847998046875 0.06699218750000002
vt 0.847998046875 0.068359375
vt 0.846630859375 0.068359375
vt 0.846630859375 0.06699218750000002
vn 1 -1.4997597826618617e-32 -1.2246467991473564e-16
vn -1 1.4997597826618617e-32 1.2246467991473564e-16
vn 0 -1 1.2246467991473532e-16
vn 0 1 -1.2246467991473532e-16
vn -1.2246467991473564e-16 -1.2246467991473532e-16 -1
vn 1.2246467991473564e-16 1.2246467991473532e-16 1
vn 0 -1 1.2246467991473532e-16
vn -1.2246467991473564e-16 -1.2246467991473532e-16 -1
vn 0 1 -1.2246467991473532e-16
vn 1.2246467991473564e-16 1.2246467991473532e-16 1
vn 0 -1 1.2246467991473532e-16
vn -1.2246467991473564e-16 -1.2246467991473532e-16 -1
vn 0 1 -1.2246467991473532e-16
vn 1.2246467991473564e-16 1.2246467991473532e-16 1
vn 0 1 -1.2246467991473532e-16
vn 1 -1.4997597826618617e-32 -1.2246467991473564e-16
vn 0 -1 1.2246467991473532e-16
vn -1 1.4997597826618617e-32 1.2246467991473564e-16
usemtl none
f 62/193/49 61/194/49 63/195/49 64/196/49
f 67/197/50 65/198/50 66/199/50 68/200/50
f 65/201/51 74/202/51 73/203/51 66/204/51
f 68/205/52 76/206/52 75/207/52 67/208/52
f 77/209/53 79/210/53 78/211/53 80/212/53
f 66/213/54 73/214/54 76/215/54 68/216/54
f 62/217/55 69/218/55 70/219/55 61/220/55
f 61/221/56 70/222/56 71/223/56 63/224/56
f 63/225/57 71/226/57 72/227/57 64/228/57
f 64/229/58 72/230/58 69/231/58 62/232/58
f 69/233/59 73/234/59 74/235/59 70/236/59
f 70/237/60 74/238/60 75/239/60 71/240/60
f 71/241/61 75/242/61 76/243/61 72/244/61
f 72/245/62 76/246/62 73/247/62 69/248/62
f 79/249/63 77/250/63 67/251/63 75/252/63
f 78/253/64 79/254/64 75/255/64 74/256/64
f 80/257/65 78/258/65 74/259/65 65/260/65
f 77/261/66 80/262/66 65/263/66 67/264/66