# Made in Blockbench 4.7.2
mtllib BulletinBoard.mtl

o cube
v 0.53125 0.6437499999999999 0.012500000000000178
v 0.53125 0.6437499999999999 -0.012500000000000178
v 0.53125 0.04374999999999998 0.012500000000000178
v 0.53125 0.04374999999999998 -0.012500000000000178
v -0.53125 0.6437499999999999 0.012500000000000178
v -0.53125 0.6437499999999999 -0.012500000000000178
v -0.53125 0.04374999999999998 0.012500000000000178
v -0.53125 0.04374999999999998 -0.012500000000000178
vt 0.80859375 0.09765625
vt 0.806640625 0.09765625
vt 0.806640625 0.078125
vt 0.80859375 0.078125
vt 0.001953125 0.076171875
vt 0.001953125 0.095703125
vt 0 0.095703125
vt 0 0.076171875
vt 0.7421875 0.892578125
vt 0.775390625 0.892578125
vt 0.775390625 0.89453125
vt 0.7421875 0.89453125
vt 0.890625 0.677734375
vt 0.890625 0.6796875
vt 0.857421875 0.6796875
vt 0.857421875 0.677734375
vt 0.7734375 0.439453125
vt 0.7734375 0.458984375
vt 0.740234375 0.458984375
vt 0.740234375 0.439453125
vt 0.775390625 0.916015625
vt 0.7421875 0.916015625
vt 0.7421875 0.896484375
vt 0.775390625 0.896484375
vn 1 0 0
vn -1 0 0
vn 0 1 0
vn 0 -1 0
vn 0 0 1
vn 0 0 -1
usemtl m_84dc8360-09d6-6b9e-21cc-d3be8738d612
f 2/1/1 1/2/1 3/3/1 4/4/1
f 7/5/2 5/6/2 6/7/2 8/8/2
f 5/9/3 1/10/3 2/11/3 6/12/3
f 4/13/4 3/14/4 7/15/4 8/16/4
f 3/17/5 1/18/5 5/19/5 7/20/5
f 6/21/6 2/22/6 4/23/6 8/24/6