# Made in Blockbench 4.7.2
mtllib Fence1.mtl

o cube
v 0.11875000000000013 0.875 -0.9562499999999998
v 0.11875000000000013 0.875 -0.9812500000000002
v 0.11875000000000013 0.125 -0.9562499999999998
v 0.11875000000000013 0.125 -0.9812500000000002
v 0.06874999999999987 0.875 -0.9562499999999998
v 0.06874999999999987 0.875 -0.9812500000000002
v 0.06874999999999987 0.125 -0.9562499999999998
v 0.06874999999999987 0.125 -0.9812500000000002
vt 0.640625 0.10546875
vt 0.638671875 0.10546875
vt 0.638671875 0.08203125
vt 0.640625 0.08203125
vt 0.64453125 0.08203125
vt 0.64453125 0.10546875
vt 0.642578125 0.10546875
vt 0.642578125 0.08203125
vt 0.49609375 0.068359375
vt 0.498046875 0.068359375
vt 0.498046875 0.0703125
vt 0.49609375 0.0703125
vt 0.501953125 0.068359375
vt 0.501953125 0.0703125
vt 0.5 0.0703125
vt 0.5 0.068359375
vt 0.6484375 0.08203125
vt 0.6484375 0.10546875
vt 0.646484375 0.10546875
vt 0.646484375 0.08203125
vt 0.65234375 0.10546875
vt 0.650390625 0.10546875
vt 0.650390625 0.08203125
vt 0.65234375 0.08203125
vn 1 0 0
vn -1 0 0
vn 0 1 0
vn 0 -1 0
vn 0 0 1
vn 0 0 -1
usemtl m_84dc8360-09d6-6b9e-21cc-d3be8738d612
f 2/1/1 1/2/1 3/3/1 4/4/1
f 7/5/2 5/6/2 6/7/2 8/8/2
f 5/9/3 1/10/3 2/11/3 6/12/3
f 4/13/4 3/14/4 7/15/4 8/16/4
f 3/17/5 1/18/5 5/19/5 7/20/5
f 6/21/6 2/22/6 4/23/6 8/24/6
o cube
v 0.11875000000000013 0.875 -0.4562499999999998
v 0.11875000000000013 0.875 -0.4812500000000002
v 0.11875000000000013 0.125 -0.4562499999999998
v 0.11875000000000013 0.125 -0.4812500000000002
v 0.06874999999999987 0.875 -0.4562499999999998
v 0.06874999999999987 0.875 -0.4812500000000002
v 0.06874999999999987 0.125 -0.4562499999999998
v 0.06874999999999987 0.125 -0.4812500000000002
vt 0.373046875 0.10546875
vt 0.37109375 0.10546875
vt 0.37109375 0.08203125
vt 0.373046875 0.08203125
vt 0.376953125 0.08203125
vt 0.376953125 0.10546875
vt 0.375 0.10546875
vt 0.375 0.08203125
vt 0.9296875 0.5078125
vt 0.931640625 0.5078125
vt 0.931640625 0.509765625
vt 0.9296875 0.509765625
vt 0.494140625 0.068359375
vt 0.494140625 0.0703125
vt 0.4921875 0.0703125
vt 0.4921875 0.068359375
vt 0.6328125 0.08203125
vt 0.6328125 0.10546875
vt 0.630859375 0.10546875
vt 0.630859375 0.08203125
vt 0.63671875 0.10546875
vt 0.634765625 0.10546875
vt 0.634765625 0.08203125
vt 0.63671875 0.08203125
vn 1 0 0
vn -1 0 0
vn 0 1 0
vn 0 -1 0
vn 0 0 1
vn 0 0 -1
usemtl m_84dc8360-09d6-6b9e-21cc-d3be8738d612
f 10/25/7 9/26/7 11/27/7 12/28/7
f 15/29/8 13/30/8 14/31/8 16/32/8
f 13/33/9 9/34/9 10/35/9 14/36/9
f 12/37/10 11/38/10 15/39/10 16/40/10
f 11/41/11 9/42/11 13/43/11 15/44/11
f 14/45/12 10/46/12 12/47/12 16/48/12
o cube
v 0.11875000000000013 0.875 -0.018749999999999822
v 0.11875000000000013 0.875 -0.04375000000000018
v 0.11875000000000013 0.125 -0.018749999999999822
v 0.11875000000000013 0.125 -0.04375000000000018
v 0.06874999999999987 0.875 -0.018749999999999822
v 0.06874999999999987 0.875 -0.04375000000000018
v 0.06874999999999987 0.125 -0.018749999999999822
v 0.06874999999999987 0.125 -0.04375000000000018
vt 0.89453125 0.109375
vt 0.892578125 0.109375
vt 0.892578125 0.0859375
vt 0.89453125 0.0859375
vt 0.197265625 0.08203125
vt 0.197265625 0.10546875
vt 0.1953125 0.10546875
vt 0.1953125 0.08203125
vt 0.9296875 0.51171875
vt 0.931640625 0.51171875
vt 0.931640625 0.513671875
vt 0.9296875 0.513671875
vt 0.490234375 0.068359375
vt 0.490234375 0.0703125
vt 0.48828125 0.0703125
vt 0.48828125 0.068359375
vt 0.353515625 0.08203125
vt 0.353515625 0.10546875
vt 0.3515625 0.10546875
vt 0.3515625 0.08203125
vt 0.369140625 0.10546875
vt 0.3671875 0.10546875
vt 0.3671875 0.08203125
vt 0.369140625 0.08203125
vn 1 0 0
vn -1 0 0
vn 0 1 0
vn 0 -1 0
vn 0 0 1
vn 0 0 -1
usemtl m_84dc8360-09d6-6b9e-21cc-d3be8738d612
f 18/49/13 17/50/13 19/51/13 20/52/13
f 23/53/14 21/54/14 22/55/14 24/56/14
f 21/57/15 17/58/15 18/59/15 22/60/15
f 20/61/16 19/62/16 23/63/16 24/64/16
f 19/65/17 17/66/17 21/67/17 23/68/17
f 22/69/18 18/70/18 20/71/18 24/72/18
o cube
v 0.11875000000000013 0.875 0.4187500000000002
v 0.11875000000000013 0.875 0.3937499999999998
v 0.11875000000000013 0.125 0.4187500000000002
v 0.11875000000000013 0.125 0.3937499999999998
v 0.06874999999999987 0.875 0.4187500000000002
v 0.06874999999999987 0.875 0.3937499999999998
v 0.06874999999999987 0.125 0.4187500000000002
v 0.06874999999999987 0.125 0.3937499999999998
vt 0.8828125 0.109375
vt 0.880859375 0.109375
vt 0.880859375 0.0859375
vt 0.8828125 0.0859375
vt 0.88671875 0.0859375
vt 0.88671875 0.109375
vt 0.884765625 0.109375
vt 0.884765625 0.0859375
vt 0.9296875 0.515625
vt 0.931640625 0.515625
vt 0.931640625 0.517578125
vt 0.9296875 0.517578125
vt 0.486328125 0.068359375
vt 0.486328125 0.0703125
vt 0.484375 0.0703125
vt 0.484375 0.068359375
vt 0.890625 0.0859375
vt 0.890625 0.109375
vt 0.888671875 0.109375
vt 0.888671875 0.0859375
vt 0.11328125 0.107421875
vt 0.111328125 0.107421875
vt 0.111328125 0.083984375
vt 0.11328125 0.083984375
vn 1 0 0
vn -1 0 0
vn 0 1 0
vn 0 -1 0
vn 0 0 1
vn 0 0 -1
usemtl m_84dc8360-09d6-6b9e-21cc-d3be8738d612
f 26/73/19 25/74/19 27/75/19 28/76/19
f 31/77/20 29/78/20 30/79/20 32/80/20
f 29/81/21 25/82/21 26/83/21 30/84/21
f 28/85/22 27/86/22 31/87/22 32/88/22
f 27/89/23 25/90/23 29/91/23 31/92/23
f 30/93/24 26/94/24 28/95/24 32/96/24
o cylinder
v 0.0937499981373548 0.8750000023283031 0.4499999999999994
v 0.0937499981373549 0.8750000023282954 -1.125
v 0.14374999843426225 0.8550748684785483 0.4499999999999995
v 0.14374999843426234 0.8550748684785406 -1.125
v 0.0937499987311701 0.8351497331386772 0.4499999999999996
v 0.09374999873117018 0.8351497331386696 -1.125
v 0.043749998434262624 0.8550748669884323 0.4499999999999995
v 0.04374999843426272 0.8550748669884245 -1.125
v 0.043749997840447336 0.8949251361780579 0.4499999999999993
v 0.04374999784044742 0.8949251361780501 -1.1250000000000004
v 0.09374999754353952 0.914850271517929 0.4499999999999992
v 0.0937499975435396 0.9148502715179213 -1.1250000000000004
v 0.14374999784044695 0.8949251376681739 0.4499999999999993
v 0.14374999784044704 0.8949251376681663 -1.1250000000000004
vt 0.92653828125 0.24228515625000002
vt 0.925915625 0.24384765625000004
vt 0.92529296875 0.24228515625000002
vt 0.439453125 0.10546875
vt 0.44140625 0.10546875
vt 0.44140625 0.154296875
vt 0.439453125 0.154296875
vt 0.761853125 0.07304687499999996
vt 0.76247578125 0.07460937499999998
vt 0.76123046875 0.07460937499999998
vt 0.925915625 0.24072265625
vt 0.92653828125 0.24228515625000002
vt 0.92529296875 0.24228515625000002
vt 0.703125 0.103515625
vt 0.705078125 0.103515625
vt 0.705078125 0.15234375
vt 0.703125 0.15234375
vt 0.76247578125 0.07460937499999998
vt 0.761853125 0.076171875
vt 0.76123046875 0.07460937499999998
vt 0.9246703125 0.24072265625
vt 0.925915625 0.24072265625
vt 0.92529296875 0.24228515625000002
vt 0.3515625 0.107421875
vt 0.353515625 0.107421875
vt 0.353515625 0.15625
vt 0.3515625 0.15625
vt 0.761853125 0.076171875
vt 0.7606078125 0.076171875
vt 0.76123046875 0.07460937499999998
vt 0.92404765625 0.24228515625000002
vt 0.9246703125 0.24072265625
vt 0.92529296875 0.24228515625000002
vt 0.70703125 0.103515625
vt 0.708984375 0.103515625
vt 0.708984375 0.15234375
vt 0.70703125 0.15234375
vt 0.7606078125 0.076171875
vt 0.75998515625 0.07460937499999998
vt 0.76123046875 0.07460937499999998
vt 0.9246703125 0.24384765625000004
vt 0.92404765625 0.24228515625000002
vt 0.92529296875 0.24228515625000002
vt 0.7109375 0.103515625
vt 0.712890625 0.103515625
vt 0.712890625 0.15234375
vt 0.7109375 0.15234375
vt 0.75998515625 0.07460937499999998
vt 0.7606078125 0.07304687499999996
vt 0.76123046875 0.07460937499999998
vt 0.925915625 0.24384765625000004
vt 0.9246703125 0.24384765625000004
vt 0.92529296875 0.24228515625000002
vt 0.404296875 0.10546875
vt 0.40625 0.10546875
vt 0.40625 0.154296875
vt 0.404296875 0.154296875
vt 0.7606078125 0.07304687499999996
vt 0.761853125 0.07304687499999996
vt 0.76123046875 0.07460937499999998
vn -2.2204468102564737e-16 5.1070259099669984e-15 1
vn 0.3701913005978021 -0.9289555430491321 4.558480209355756e-15
vn 2.2204468102564737e-16 -5.1070259099669984e-15 -1
vn -2.2204468102564737e-16 5.1070259099669984e-15 1
vn -0.37019127291276943 -0.9289555540816921 4.5173807742424726e-15
vn 2.2204468102564737e-16 -5.1070259099669984e-15 -1
vn -2.2204468102564737e-16 5.1070259099669984e-15 1
vn -1 -1.4901161415892264e-8 -5.551107843936285e-17
vn 2.2204468102564737e-16 -5.1070259099669984e-15 -1
vn -2.2204468102564737e-16 5.1070259099669984e-15 1
vn -0.3701913005978021 0.9289555430491321 -4.558480209355756e-15
vn 2.2204468102564737e-16 -5.1070259099669984e-15 -1
vn -2.2204468102564737e-16 5.1070259099669984e-15 1
vn 0.37019127291276943 0.9289555540816921 -4.5173807742424726e-15
vn 2.2204468102564737e-16 -5.1070259099669984e-15 -1
vn -2.2204468102564737e-16 5.1070259099669984e-15 1
vn 1 1.4901161415892264e-8 5.551107843936285e-17
vn 2.2204468102564737e-16 -5.1070259099669984e-15 -1
usemtl m_84dc8360-09d6-6b9e-21cc-d3be8738d612
f 37/97/25 35/98/25 33/99/25
f 35/100/26 37/101/26 38/102/26 36/103/26
f 36/104/27 38/105/27 34/106/27
f 39/107/28 37/108/28 33/109/28
f 37/110/29 39/111/29 40/112/29 38/113/29
f 38/114/30 40/115/30 34/116/30
f 41/117/31 39/118/31 33/119/31
f 39/120/32 41/121/32 42/122/32 40/123/32
f 40/124/33 42/125/33 34/126/33
f 43/127/34 41/128/34 33/129/34
f 41/130/35 43/131/35 44/132/35 42/133/35
f 42/134/36 44/135/36 34/136/36
f 45/137/37 43/138/37 33/139/37
f 43/140/38 45/141/38 46/142/38 44/143/38
f 44/144/39 46/145/39 34/146/39
f 35/147/40 45/148/40 33/149/40
f 45/150/41 35/151/41 36/152/41 46/153/41
f 46/154/42 36/155/42 34/156/42