# Made in Blockbench 4.7.2
mtllib Lift1.mtl

o cube
v 1.25 2.0375000000000005 0.11249999999999982
v 1.25 2.0375000000000005 0.04999999999999982
v 1.25 -4.336808689942018e-17 0.11249999999999982
v 1.25 -4.336808689942018e-17 0.04999999999999982
v 0.19374999999999964 2.0375000000000005 0.11249999999999982
v 0.19374999999999964 2.0375000000000005 0.04999999999999982
v 0.19374999999999964 -4.336808689942018e-17 0.11249999999999982
v 0.19374999999999964 -4.336808689942018e-17 0.04999999999999982
vt 0.5390625 0.166015625
vt 0.537109375 0.166015625
vt 0.537109375 0.1015625
vt 0.5390625 0.1015625
vt 0.54296875 0.1015625
vt 0.54296875 0.166015625
vt 0.541015625 0.166015625
vt 0.541015625 0.1015625
vt 0.865234375 0.462890625
vt 0.8984375 0.462890625
vt 0.8984375 0.46484375
vt 0.865234375 0.46484375
vt 0.900390625 0.560546875
vt 0.900390625 0.5625
vt 0.8671875 0.5625
vt 0.8671875 0.560546875
vt 0.236328125 0.32421875
vt 0.236328125 0.388671875
vt 0.203125 0.388671875
vt 0.203125 0.32421875
vt 0.271484375 0.388671875
vt 0.23828125 0.388671875
vt 0.23828125 0.32421875
vt 0.271484375 0.32421875
vn 1 0 0
vn -1 0 0
vn 0 1 0
vn 0 -1 0
vn 0 0 1
vn 0 0 -1
usemtl m_f2baeee4-fb64-2c85-3b7f-acfd3bebe643
f 2/1/1 1/2/1 3/3/1 4/4/1
f 7/5/2 5/6/2 6/7/2 8/8/2
f 5/9/3 1/10/3 2/11/3 6/12/3
f 4/13/4 3/14/4 7/15/4 8/16/4
f 3/17/5 1/18/5 5/19/5 7/20/5
f 6/21/6 2/22/6 4/23/6 8/24/6
o cube
v 1.3187500000000032 2.1999999999999997 0.15625000000000178
v 1.3187500000000032 2.1999999999999997 0.06875000000000142
v 1.3187500000000032 2.0374999999999996 0.15625000000000178
v 1.3187500000000032 2.0374999999999996 0.06875000000000142
v -0.9500000000000011 2.1999999999999997 0.15625000000000178
v -0.9500000000000011 2.1999999999999997 0.06875000000000142
v -0.9500000000000011 2.0374999999999996 0.15625000000000178
v -0.9500000000000011 2.0374999999999996 0.06875000000000142
vt 0.91796875 0.94140625
vt 0.916015625 0.94140625
vt 0.916015625 0.935546875
vt 0.91796875 0.935546875
vt 0.91796875 0.927734375
vt 0.91796875 0.93359375
vt 0.916015625 0.93359375
vt 0.916015625 0.927734375
vt 0.833984375 0.650390625
vt 0.904296875 0.650390625
vt 0.904296875 0.65234375
vt 0.833984375 0.65234375
vt 0.904296875 0.646484375
vt 0.904296875 0.6484375
vt 0.833984375 0.6484375
vt 0.833984375 0.646484375
vt 0.8515625 0.41015625
vt 0.8515625 0.416015625
vt 0.78125 0.416015625
vt 0.78125 0.41015625
vt 0.8515625 0.388671875
vt 0.78125 0.388671875
vt 0.78125 0.3828125
vt 0.8515625 0.3828125
vn 1 0 0
vn -1 0 0
vn 0 1 0
vn 0 -1 0
vn 0 0 1
vn 0 0 -1
usemtl m_f2baeee4-fb64-2c85-3b7f-acfd3bebe643
f 10/25/7 9/26/7 11/27/7 12/28/7
f 15/29/8 13/30/8 14/31/8 16/32/8
f 13/33/9 9/34/9 10/35/9 14/36/9
f 12/37/10 11/38/10 15/39/10 16/40/10
f 11/41/11 9/42/11 13/43/11 15/44/11
f 14/45/12 10/46/12 12/47/12 16/48/12
o cube
v 1.2875000000000032 2.1374999999999997 0.09375000000000178
v 1.2875000000000032 2.1374999999999997 0.006250000000001421
v 1.2875000000000032 2.0374999999999996 0.09375000000000178
v 1.2875000000000032 2.0374999999999996 0.006250000000001421
v -0.9187500000000011 2.1374999999999997 0.09375000000000178
v -0.9187500000000011 2.1374999999999997 0.006250000000001421
v -0.9187500000000011 2.0374999999999996 0.09375000000000178
v -0.9187500000000011 2.0374999999999996 0.006250000000001421
vt 0.693359375 0.076171875
vt 0.69140625 0.076171875
vt 0.69140625 0.072265625
vt 0.693359375 0.072265625
vt 0.80859375 0.072265625
vt 0.80859375 0.076171875
vt 0.806640625 0.076171875
vt 0.806640625 0.072265625
vt 0.833984375 0.490234375
vt 0.90234375 0.490234375
vt 0.90234375 0.4921875
vt 0.833984375 0.4921875
vt 0.90234375 0.486328125
vt 0.90234375 0.48828125
vt 0.833984375 0.48828125
vt 0.833984375 0.486328125
vt 0.81640625 0.5078125
vt 0.81640625 0.51171875
vt 0.748046875 0.51171875
vt 0.748046875 0.5078125
vt 0.873046875 0.615234375
vt 0.8046875 0.615234375
vt 0.8046875 0.611328125
vt 0.873046875 0.611328125
vn 1 0 0
vn -1 0 0
vn 0 1 0
vn 0 -1 0
vn 0 0 1
vn 0 0 -1
usemtl m_f2baeee4-fb64-2c85-3b7f-acfd3bebe643
f 18/49/13 17/50/13 19/51/13 20/52/13
f 23/53/14 21/54/14 22/55/14 24/56/14
f 21/57/15 17/58/15 18/59/15 22/60/15
f 20/61/16 19/62/16 23/63/16 24/64/16
f 19/65/17 17/66/17 21/67/17 23/68/17
f 22/69/18 18/70/18 20/71/18 24/72/18
o cube
v 0.19374999999999964 2.0375000000000005 0.11249999999999982
v 0.19374999999999964 2.0375000000000005 0.04999999999999982
v 0.19374999999999964 -4.336808689942018e-17 0.11249999999999982
v 0.19374999999999964 -4.336808689942018e-17 0.04999999999999982
v -0.8687499999999999 2.0375000000000005 0.11249999999999982
v -0.8687499999999999 2.0375000000000005 0.04999999999999982
v -0.8687499999999999 -4.336808689942018e-17 0.11249999999999982
v -0.8687499999999999 -4.336808689942018e-17 0.04999999999999982
vt 0.53125 0.166015625
vt 0.529296875 0.166015625
vt 0.529296875 0.1015625
vt 0.53125 0.1015625
vt 0.53515625 0.1015625
vt 0.53515625 0.166015625
vt 0.533203125 0.166015625
vt 0.533203125 0.1015625
vt 0.865234375 0.708984375
vt 0.8984375 0.708984375
vt 0.8984375 0.7109375
vt 0.865234375 0.7109375
vt 0.8984375 0.705078125
vt 0.8984375 0.70703125
vt 0.865234375 0.70703125
vt 0.865234375 0.705078125
vt 0.166015625 0.32421875
vt 0.166015625 0.388671875
vt 0.1328125 0.388671875
vt 0.1328125 0.32421875
vt 0.201171875 0.388671875
vt 0.16796875 0.388671875
vt 0.16796875 0.32421875
vt 0.201171875 0.32421875
vn 1 0 0
vn -1 0 0
vn 0 1 0
vn 0 -1 0
vn 0 0 1
vn 0 0 -1
usemtl m_f2baeee4-fb64-2c85-3b7f-acfd3bebe643
f 26/73/19 25/74/19 27/75/19 28/76/19
f 31/77/20 29/78/20 30/79/20 32/80/20
f 29/81/21 25/82/21 26/83/21 30/84/21
f 28/85/22 27/86/22 31/87/22 32/88/22
f 27/89/23 25/90/23 29/91/23 31/92/23
f 30/93/24 26/94/24 28/95/24 32/96/24