# Blender v3.1.2 OBJ File: 'Monitor.blend'
# www.blender.org
mtllib Monitor.mtl
o Cube.003
v -0.088623 0.048762 0.576486
v -0.088623 0.111262 0.576486
v -0.026123 0.048762 -0.798514
v -0.026123 0.111262 -0.798514
v -0.026123 0.048762 0.576486
v -0.026123 0.111262 0.576486
v 0.036377 0.048762 -0.798514
v 0.036377 0.111262 -0.798514
v -0.463623 0.048762 0.076486
v -0.463623 0.111262 0.076486
v -0.401123 0.048762 0.076486
v -0.401123 0.111262 0.076486
v -0.463623 0.111262 -0.298514
v -0.401123 0.048762 -0.298514
v -0.463623 0.048762 -0.298514
v -0.401123 0.111262 -0.298514
v 0.000000 2.173671 -1.875000
v 0.000000 0.361172 -1.875000
v 0.000000 2.173671 1.625000
v 0.000000 0.361172 1.625000
v -0.125000 2.173671 -1.875000
v -0.125000 0.361172 -1.875000
v -0.125000 2.173671 1.625000
v -0.125000 0.361172 1.625000
v -0.125000 0.361172 1.559579
v 0.000000 2.173671 1.559579
v -0.125000 2.173671 1.559579
v 0.000000 0.361172 1.559579
v -0.125000 2.173671 -1.812850
v 0.000000 0.361172 -1.812850
v -0.125000 0.361172 -1.812850
v 0.000000 2.173671 -1.812850
v 0.000000 2.111510 -1.875000
v -0.125000 2.111510 1.625000
v 0.000000 2.111510 1.625000
v -0.125000 2.111510 -1.875000
v 0.000000 2.111510 1.559579
v -0.187500 1.986510 1.434579
v 0.000000 2.111510 -1.812850
v -0.187500 1.986510 -1.687850
v 0.000000 0.423450 -1.875000
v 0.000000 0.423450 1.625000
v -0.125000 0.423450 -1.875000
v 0.000000 0.423450 1.559579
v -0.187500 0.548450 1.434579
v 0.000000 0.423450 -1.812850
v -0.187500 0.548450 -1.687850
v -0.125000 0.423450 1.625000
v -0.033422 2.111510 -1.812850
v -0.033422 2.111510 1.559579
v -0.033422 0.423450 1.559579
v -0.033422 0.423450 -1.812850
v -0.234016 0.923672 0.564833
v -0.234016 1.486171 0.564833
v -0.234016 0.923672 -0.810167
v -0.234016 1.486171 -0.810167
v -0.171516 0.923672 0.564833
v -0.171516 1.486171 0.564833
v -0.171516 0.923672 -0.810167
v -0.171516 1.486171 -0.810167
v -0.234016 0.923672 -0.745950
v -0.234016 1.486171 -0.745950
v -0.171516 0.923672 -0.745950
v -0.171516 1.486171 -0.745950
v -0.234016 0.923672 0.502325
v -0.171516 1.486171 0.502325
v -0.234016 1.486171 0.502325
v -0.171516 0.923672 0.502325
v -0.234016 1.423460 0.564833
v -0.234016 1.423460 -0.810167
v -0.171516 1.423460 -0.810167
v -0.171516 1.423460 0.564833
v -0.171516 1.423460 -0.745950
v -0.296516 1.423460 -0.745950
v -0.296516 1.423460 0.502325
v -0.171516 1.423460 0.502325
v -0.234016 0.986145 -0.810167
v -0.171516 0.986145 -0.810167
v -0.171516 0.986145 0.564833
v -0.171516 0.986145 -0.745950
v -0.296516 0.986145 -0.745950
v -0.296516 0.986145 0.502325
v -0.171516 0.986145 0.502325
v -0.234016 0.986145 0.564833
v -0.460758 0.111172 0.071150
v -0.335758 1.236171 0.071150
v -0.460758 0.111172 -0.303850
v -0.335758 1.236171 -0.303850
v -0.398258 0.111172 0.071150
v -0.273258 1.236171 0.071150
v -0.398258 0.111172 -0.303850
v -0.273258 1.236171 -0.303850
vt 0.364583 0.770833
vt 0.354167 0.770833
vt 0.354167 0.864583
vt 0.364583 0.864583
vt 0.447917 0.635417
vt 0.447917 0.625000
vt 0.437500 0.625000
vt 0.437500 0.635417
vt 0.354167 0.708333
vt 0.343750 0.708333
vt 0.343750 0.625000
vt 0.354167 0.625000
vt 0.447917 0.635417
vt 0.447917 0.625000
vt 0.458333 0.625000
vt 0.458333 0.635417
vt 0.000000 0.708333
vt 0.010417 0.708333
vt 0.083333 0.625000
vt 0.072917 0.625000
vt 0.093750 0.708333
vt 0.083333 0.708333
vt 0.156250 0.625000
vt 0.166667 0.625000
vt 0.093750 0.770833
vt 0.083333 0.770833
vt 0.000000 0.770833
vt 0.010417 0.770833
vt 0.354167 0.770833
vt 0.343750 0.770833
vt 0.364583 0.625000
vt 0.354167 0.625000
vt 0.354167 0.708333
vt 0.364583 0.708333
vt 0.354167 0.864583
vt 0.343750 0.864583
vt 0.072917 0.864583
vt 0.083333 0.864583
vt 0.166667 0.864583
vt 0.156250 0.864583
vt 0.968750 0.604167
vt 0.989583 0.604167
vt 0.989583 0.614583
vt 0.968750 0.614583
vt 0.864583 0.604167
vt 0.864583 0.593750
vt 0.885417 0.593750
vt 0.885417 0.604167
vt 0.604167 0.031250
vt 0.645833 0.010417
vt 0.645833 0.000000
vt 0.635417 0.000000
vt 0.968750 0.604167
vt 0.937500 0.604167
vt 0.937500 0.614583
vt 0.968750 0.614583
vt 0.312500 0.604167
vt 0.322917 0.604167
vt 0.322917 0.614583
vt 0.312500 0.614583
vt 0.864583 0.604167
vt 0.864583 0.593750
vt 0.843750 0.593750
vt 0.843750 0.604167
vt 0.312500 0.010417
vt 0.322917 0.010417
vt 0.968750 0.010417
vt 0.937500 0.010417
vt 0.635417 0.614583
vt 0.645833 0.614583
vt 0.645833 0.604167
vt 0.604167 0.583333
vt 0.968750 0.010417
vt 0.989583 0.010417
vt 0.968750 0.000000
vt 0.989583 0.000000
vt 0.968750 0.000000
vt 0.937500 0.000000
vt 0.312500 0.000000
vt 0.322917 0.000000
vt 0.364583 0.583333
vt 0.364583 0.031250
vt 0.010417 0.000000
vt 0.010417 0.010417
vt 0.333333 0.614583
vt 0.885417 0.895833
vt 0.885417 0.593750
vt 0.895833 0.593750
vt 0.895833 0.895833
vt 0.864583 0.906250
vt 0.843750 0.906250
vt 0.010417 0.604167
vt 0.010417 0.614583
vt 0.333333 0.000000
vt 0.864583 0.906250
vt 0.885417 0.906250
vt 0.864583 0.916667
vt 0.885417 0.916667
vt 0.322917 0.010417
vt 0.322917 0.000000
vt 0.000000 0.604167
vt 0.000000 0.614583
vt 0.864583 0.916667
vt 0.843750 0.916667
vt 0.000000 0.010417
vt 0.322917 0.614583
vt 0.322917 0.604167
vt 0.000000 0.000000
vt 0.645833 0.000000
vt 0.937500 0.000000
vt 0.937500 0.593750
vt 0.645833 0.593750
vt 0.906250 0.593750
vt 0.906250 0.895833
vt 0.895833 0.895833
vt 0.895833 0.593750
vt 0.989583 0.593750
vt 0.989583 0.000000
vt 0.989583 0.000000
vt 0.989583 0.593750
vt 0.989583 0.000000
vt 0.989583 0.593750
vt 1.000000 0.593750
vt 1.000000 0.000000
vt 0.656250 0.833333
vt 0.645833 0.833333
vt 0.645833 0.843750
vt 0.656250 0.843750
vt 0.406250 0.635417
vt 0.406250 0.625000
vt 0.395833 0.625000
vt 0.395833 0.635417
vt 0.750000 0.604167
vt 0.739583 0.604167
vt 0.739583 0.593750
vt 0.750000 0.593750
vt 0.406250 0.635417
vt 0.406250 0.625000
vt 0.416667 0.625000
vt 0.416667 0.635417
vt 0.333333 0.635417
vt 0.343750 0.635417
vt 0.343750 0.625000
vt 0.333333 0.625000
vt 0.302083 0.854167
vt 0.312500 0.854167
vt 0.312500 0.864583
vt 0.302083 0.864583
vt 0.302083 0.625000
vt 0.312500 0.625000
vt 0.312500 0.635417
vt 0.302083 0.635417
vt 0.333333 0.864583
vt 0.343750 0.864583
vt 0.343750 0.854167
vt 0.333333 0.854167
vt 0.750000 0.843750
vt 0.739583 0.843750
vt 0.739583 0.833333
vt 0.750000 0.833333
vt 0.656250 0.604167
vt 0.645833 0.604167
vt 0.656250 0.593750
vt 0.645833 0.593750
vt 0.833333 0.833333
vt 0.833333 0.604167
vt 0.729167 0.593750
vt 0.729167 0.604167
vt 0.729167 0.833333
vt 0.833333 0.843750
vt 0.406250 0.708333
vt 0.416667 0.708333
vt 0.833333 0.593750
vt 0.406250 0.708333
vt 0.395833 0.708333
vt 0.729167 0.843750
vt 0.739583 0.833333
vt 0.739583 0.843750
vt 0.406250 0.718750
vt 0.395833 0.718750
vt 0.843750 0.604167
vt 0.843750 0.593750
vt 0.406250 0.718750
vt 0.416667 0.718750
vt 0.843750 0.843750
vt 0.843750 0.833333
vt 0.322917 0.635417
vt 0.322917 0.854167
vt 0.739583 0.593750
vt 0.739583 0.604167
vt 0.302083 0.822917
vt 0.302083 0.625000
vt 0.239583 0.625000
vt 0.239583 0.822917
vt 0.385417 0.822917
vt 0.385417 0.625000
vt 0.375000 0.625000
vt 0.375000 0.822917
vt 0.177083 0.822917
vt 0.177083 0.625000
vt 0.239583 0.625000
vt 0.239583 0.822917
vt 0.364583 0.822917
vt 0.364583 0.625000
vt 0.375000 0.625000
vt 0.375000 0.822917
vt 0.427083 0.625000
vt 0.416667 0.625000
vt 0.416667 0.687500
vt 0.427083 0.687500
vt 0.427083 0.625000
vt 0.437500 0.625000
vt 0.437500 0.687500
vt 0.427083 0.687500
vn -0.7526 0.0000 -0.6585
vn 0.0000 0.0000 -1.0000
vn 0.8000 0.0000 -0.6000
vn 0.0000 0.0000 1.0000
vn 0.0000 -1.0000 0.0000
vn 0.0000 1.0000 -0.0000
vn 1.0000 0.0000 0.0000
vn -0.8000 0.0000 0.6000
vn 0.7526 0.0000 0.6585
vn -1.0000 0.0000 0.0000
vn -0.9732 0.1625 -0.1625
vn -0.9737 0.1653 0.1571
vn -0.9485 0.3167 0.0000
vn -0.9501 0.0000 0.3119
vn -0.9485 0.0000 -0.3168
vn -0.9733 -0.1623 -0.1626
vn -0.9737 -0.1651 0.1572
vn -0.9486 -0.3166 0.0000
vn -0.8206 0.4089 -0.3993
vn -0.7083 0.7059 0.0000
vn -0.8170 0.4071 0.4084
vn -0.7072 0.0000 0.7071
vn -0.7166 0.0000 -0.6975
vn -0.8201 -0.4102 -0.3991
vn -0.7070 -0.7073 0.0000
vn -0.8165 -0.4084 0.4082
vn -0.9939 0.1104 0.0000
vn 0.9939 -0.1104 0.0000
usemtl Material
s off
f 15/1/1 13/2/1 4/3/1 3/4/1
f 3/5/2 4/6/2 8/7/2 7/8/2
f 11/9/3 12/10/3 6/11/3 5/12/3
f 5/13/4 6/14/4 2/15/4 1/16/4
f 9/17/5 11/18/5 5/19/5 1/20/5
f 12/21/6 10/22/6 2/23/6 6/24/6
f 16/25/6 13/26/6 10/22/6 12/21/6
f 15/27/5 14/28/5 11/18/5 9/17/5
f 14/29/7 16/30/7 12/10/7 11/9/7
f 1/31/8 2/32/8 10/33/8 9/34/8
f 7/35/9 8/36/9 16/30/9 14/29/9
f 3/37/5 7/38/5 14/28/5 15/27/5
f 8/39/6 4/40/6 13/26/6 16/25/6
f 9/34/10 10/33/10 13/2/10 15/1/10
f 26/41/6 27/42/6 23/43/6 19/44/6
f 35/45/4 19/46/4 23/47/4 34/48/4
f 40/49/11 29/50/11 21/51/11 36/52/11
f 25/53/5 28/54/5 20/55/5 24/56/5
f 37/57/7 26/58/7 19/59/7 35/60/7
f 36/61/2 21/62/2 17/63/2 33/64/2
f 39/65/7 32/66/7 26/58/7 37/57/7
f 31/67/5 30/68/5 28/54/5 25/53/5
f 34/69/12 23/70/12 27/71/12 38/72/12
f 32/73/6 29/74/6 27/42/6 26/41/6
f 17/75/6 21/76/6 29/74/6 32/73/6
f 22/77/5 18/78/5 30/68/5 31/67/5
f 33/79/7 17/80/7 32/66/7 39/65/7
f 38/72/13 27/71/13 29/50/13 40/49/13
f 45/81/10 38/72/10 40/49/10 47/82/10
f 41/83/7 33/79/7 39/65/7 46/84/7
f 48/85/14 34/69/14 38/72/14 45/81/14
f 46/86/4 39/87/4 49/88/4 52/89/4
f 43/90/2 36/61/2 33/64/2 41/91/2
f 44/92/7 37/57/7 35/60/7 42/93/7
f 47/82/15 40/49/15 36/52/15 43/94/15
f 42/95/4 35/45/4 34/48/4 48/96/4
f 20/97/4 42/95/4 48/96/4 24/98/4
f 31/99/16 47/82/16 43/94/16 22/100/16
f 28/101/7 44/92/7 42/93/7 20/102/7
f 22/103/2 43/90/2 41/91/2 18/104/2
f 30/105/7 46/84/7 44/92/7 28/101/7
f 24/106/17 48/85/17 45/81/17 25/107/17
f 18/108/7 41/83/7 46/84/7 30/105/7
f 25/107/18 45/81/18 47/82/18 31/99/18
f 52/109/7 49/110/7 50/111/7 51/112/7
f 37/113/2 44/114/2 51/115/2 50/116/2
f 44/117/6 46/118/6 52/119/6 51/120/6
f 39/121/5 37/122/5 50/123/5 49/124/5
f 74/125/19 62/126/19 56/127/19 70/128/19
f 70/129/2 56/130/2 60/131/2 71/132/2
f 76/133/7 66/134/7 58/135/7 72/136/7
f 72/137/4 58/138/4 54/139/4 69/140/4
f 65/141/5 68/142/5 57/143/5 53/144/5
f 66/145/6 67/146/6 54/147/6 58/148/6
f 60/149/6 56/150/6 62/151/6 64/152/6
f 55/153/5 59/154/5 63/155/5 61/156/5
f 71/157/7 60/158/7 64/159/7 73/160/7
f 75/161/20 67/162/20 62/126/20 74/125/20
f 69/163/21 54/164/21 67/162/21 75/161/21
f 64/152/6 62/151/6 67/146/6 66/145/6
f 61/156/5 63/155/5 68/142/5 65/141/5
f 73/160/7 64/159/7 66/134/7 76/133/7
f 80/165/7 73/160/7 76/133/7 83/166/7
f 84/167/22 69/163/22 75/161/22 82/168/22
f 82/168/10 75/161/10 74/125/10 81/169/10
f 78/170/7 71/157/7 73/160/7 80/165/7
f 79/171/4 72/137/4 69/140/4 84/172/4
f 83/166/7 76/133/7 72/136/7 79/173/7
f 77/174/2 70/129/2 71/132/2 78/175/2
f 81/169/23 74/125/23 70/128/23 77/176/23
f 61/177/24 81/169/24 77/176/24 55/178/24
f 55/179/2 77/174/2 78/175/2 59/180/2
f 68/181/7 83/166/7 79/173/7 57/182/7
f 57/183/4 79/171/4 84/172/4 53/184/4
f 59/185/7 78/170/7 80/165/7 63/186/7
f 65/141/25 82/187/25 81/188/25 61/156/25
f 53/189/26 84/167/26 82/168/26 65/190/26
f 63/186/7 80/165/7 83/166/7 68/181/7
f 85/191/27 86/192/27 88/193/27 87/194/27
f 87/195/2 88/196/2 92/197/2 91/198/2
f 91/199/28 92/200/28 90/201/28 89/202/28
f 89/203/4 90/204/4 86/205/4 85/206/4
f 87/207/5 91/208/5 89/209/5 85/210/5
f 92/211/6 88/212/6 86/213/6 90/214/6
