# Made in Blockbench 4.7.2
mtllib MousePC.mtl

o cube
v 0.037499999999999645 0.0625 0.1875
v 0.033333333333333215 0.0625 0
v 0.037499999999999645 0 0.1875
v 0.033333333333333215 0 0
v -0.037499999999999645 0.0625 0.1875
v -0.033333333333333215 0.0625 0
v -0.037499999999999645 0 0.1875
v -0.033333333333333215 0 0
v -0.0625 0.0625 0.09375
v -0.0625 0 0.09375
v 0.0625 0 0.09375
v 0.0625 0.0625 0.09375
v 0 0.0625 0.1875
v 0 0 0.1875
v 0 0 0.09375
v 0 0 0
v 0 0.0625 0
v 0 0.09375000000000044 0.09375
vt 0.92236328125 0.9453125
vt 0.9192951171875 0.9453125
vt 0.9192951171875 0.943359375
vt 0.92236328125 0.943359375
vt 0.9140625 0.3203125
vt 0.9171306640625 0.3203125
vt 0.9171306640625 0.322265625
vt 0.9140625 0.322265625
vt 0.9179753716438801 0.14627318112311072
vt 0.9161554877311199 0.14624012237585093
vt 0.9161554877311199 0.1431519531250003
vt 0.9179268443919137 0.14315202540016347
vt 0.4696615234375 0.50390625
vt 0.470703125 0.50390625
vt 0.470703125 0.5068359375
vt 0.46875 0.5068359375
vt 0.845751953125 0.0703125
vt 0.846923828125 0.0703125
vt 0.846923828125 0.072265625
vt 0.845751953125 0.072265625
vt 0.9319498046875 0.958984375
vt 0.930908203125 0.958984375
vt 0.930908203125 0.95703125
vt 0.9319498046875 0.95703125
vt 0.9201626953125 0.322265625
vt 0.9171306640625 0.322265625
vt 0.9171306640625 0.3203125
vt 0.9201626953125 0.3203125
vt 0.46875 0.5068359375
vt 0.470703125 0.5068359375
vt 0.470703125 0.509765625
vt 0.46953125 0.509765625
vt 0.9162630859375 0.943359375
vt 0.9192951171875 0.943359375
vt 0.9192951171875 0.9453125
vt 0.9162630859375 0.9453125
vt 0.9141535346061203 0.14896250000000022
vt 0.9161554877311198 0.14896250000000033
vt 0.9161554877311198 0.15234375
vt 0.9142023627311198 0.1523277343749998
vt 0.848095703125 0.072265625
vt 0.846923828125 0.072265625
vt 0.846923828125 0.0703125
vt 0.848095703125 0.0703125
vt 0.471875 0.509765625
vt 0.470703125 0.509765625
vt 0.470703125 0.5068359375
vt 0.47265625 0.5068359375
vt 0.47265625 0.5068359375
vt 0.470703125 0.5068359375
vt 0.470703125 0.50390625
vt 0.4717447265625 0.50390625
vt 0.9298666015625 0.95703125
vt 0.930908203125 0.95703125
vt 0.930908203125 0.958984375
vt 0.9298666015625 0.958984375
vt 0.9141861517936205 0.1431519531250003
vt 0.9161554877311199 0.1431519531250003
vt 0.9161554877311199 0.14624023437500022
vt 0.9142023627311199 0.14622421875000002
vt 0.9178777153938804 0.15232798062225983
vt 0.9161554877311198 0.15234375
vt 0.9161554877311198 0.14896261199914962
vt 0.9178491638768974 0.1489624984538921
vn 0.9548567763307841 0 -0.29706655263624515
vn -0.9548567763307841 0 -0.29706655263624515
vn -0.42857142857143304 0.8571428571428539 -0.2857142857142887
vn 0 -1 0
vn 0 0 1
vn 0 0 -1
vn -0.9662349396012454 0 0.25766265056033577
vn 0 -1 0
vn 0.9662349396012454 0 0.25766265056033577
vn 0 0.9486832980505125 0.316227766016842
vn 0 0 1
vn 0 -1 0
vn 0 -1 0
vn 0 0 -1
vn 0 0.9486832980505127 -0.316227766016842
vn 0.42857142857143304 0.8571428571428539 0.2857142857142887
usemtl m_84dc8360-09d6-6b9e-21cc-d3be8738d612
f 2/1/1 12/2/1 11/3/1 4/4/1
f 8/5/2 10/6/2 9/7/2 6/8/2
f 9/9/3 18/10/3 17/11/3 6/12/3
f 8/13/4 16/14/4 15/15/4 10/16/4
f 7/17/5 14/18/5 13/19/5 5/20/5
f 6/21/6 17/22/6 16/23/6 8/24/6
f 5/25/7 9/26/7 10/27/7 7/28/7
f 10/29/8 15/30/8 14/31/8 7/32/8
f 3/33/9 11/34/9 12/35/9 1/36/9
f 5/37/10 13/38/10 18/39/10 9/40/10
f 1/41/11 13/42/11 14/43/11 3/44/11
f 3/45/12 14/46/12 15/47/12 11/48/12
f 11/49/13 15/50/13 16/51/13 4/52/13
f 4/53/14 16/54/14 17/55/14 2/56/14
f 2/57/15 17/58/15 18/59/15 12/60/15
f 12/61/16 18/62/16 13/63/16 1/64/16