# Made in Blockbench 4.7.2
mtllib SingleDoorBlueWall.mtl

o Light_Single
v 0.90625 2.4375 0.125
v 0.90625 2.4375 -0.125
v 0.90625 0 0.125
v 0.90625 0 -0.125
v -0.7125000000000004 2.4375 0.125
v -0.7125000000000004 2.4375 -0.125
v -0.7125000000000004 0 0.125
v -0.7125000000000004 0 -0.125
v 0.09687499999999982 2.4375 -0.125
v 0.09687499999999982 2.4375 0.125
v 0.5015625000000004 2.4375 -0.125
v 0.5015625000000004 2.4375 0.125
v 0.5015625000000004 0 0.125
v 0.5015625000000004 0 -0.125
v -0.3078124999999998 2.4375 -0.125
v -0.3078124999999998 2.4375 0.125
v -0.29531249999999964 0 0.125
v -0.29531249999999964 0 -0.125
v 0.90625 1.21875 -0.125
v 0.90625 1.21875 0.125
v 0.5015625000000004 1.21875 0.125
v -0.29531249999999964 1.21875 0.125
v -0.7125000000000004 1.21875 0.125
v -0.7125000000000004 1.21875 -0.125
v -0.29531249999999964 1.21875 -0.125
v 0.5015625000000004 1.21875 -0.125
v 0.90625 1.828125 -0.125
v 0.90625 1.828125 0.125
v 0.5015625000000004 1.828125 0.125
v 0.09687499999999982 1.828125 0.125
v -0.29531249999999964 1.828125 0.125
v -0.7125000000000004 1.828125 0.125
v -0.7125000000000004 1.828125 -0.125
v -0.29531249999999964 1.828125 -0.125
v 0.09687499999999982 1.828125 -0.125
v 0.5015625000000004 1.828125 -0.125
v -0.3078124999999998 1.3093749999999997 0.125
v -0.3078124999999998 1.3093749999999997 -0.125
v 0.09687499999999982 1.3093749999999997 -0.125
v 0.5015625000000004 1.3093749999999997 -0.125
v 0.5015625000000004 1.3093749999999997 0.125
v 0.09687499999999982 1.3093749999999997 0.125
vt 0.3203125 0.251953125
vt 0.3203125 0.23291015625
vt 0.328125 0.23291015625
vt 0.328125 0.251953125
vt 0.330078125 0.251953125
vt 0.330078125 0.23291015625
vt 0.337890625 0.23291015625
vt 0.337890625 0.251953125
vt 0.78134765625 0.302734375
vt 0.793994140625 0.302734375
vt 0.793994140625 0.310546875
vt 0.78134765625 0.310546875
vt 0.6328125 0.4921875
vt 0.646484375 0.4921875
vt 0.646484375 0.5
vt 0.6328125 0.5
vt 0.41025390625 0.53125
vt 0.41025390625 0.51220703125
vt 0.423291015625 0.51220703125
vt 0.422900390625 0.53125
vt 0.532177734375 0.86328125
vt 0.531787109375 0.84423828125
vt 0.54482421875 0.84423828125
vt 0.54482421875 0.86328125
vt 0.806640625 0.302734375
vt 0.819287109375 0.302734375
vt 0.819287109375 0.310546875
vt 0.806640625 0.310546875
vt 0.435546875 0.53125
vt 0.435546875 0.51220703125
vt 0.448193359375 0.51220703125
vt 0.448193359375 0.53125
vt 0.506884765625 0.86328125
vt 0.506884765625 0.84423828125
vt 0.51953125 0.84423828125
vt 0.51953125 0.86328125
vt 0.83193359375 0.310546875
vt 0.819287109375 0.310546875
vt 0.819287109375 0.302734375
vt 0.83193359375 0.302734375
vt 0.448193359375 0.53125
vt 0.448193359375 0.51220703125
vt 0.46083984375 0.51220703125
vt 0.46083984375 0.53125
vt 0.537109375 0.3125
vt 0.525390625 0.3125
vt 0.525390625 0.3046875
vt 0.537109375 0.3046875
vt 0.49423828125 0.86328125
vt 0.49423828125 0.84423828125
vt 0.506884765625 0.84423828125
vt 0.506884765625 0.86328125
vt 0.806640625 0.310546875
vt 0.793994140625 0.310546875
vt 0.793994140625 0.302734375
vt 0.806640625 0.302734375
vt 0.422900390625 0.53125
vt 0.423291015625 0.51220703125
vt 0.435546875 0.51220703125
vt 0.435546875 0.53125
vt 0.51953125 0.86328125
vt 0.51953125 0.84423828125
vt 0.531787109375 0.84423828125
vt 0.532177734375 0.86328125
vt 0.328125 0.17578125
vt 0.328125 0.2138671875
vt 0.3203125 0.2138671875
vt 0.3203125 0.17578125
vt 0.5654052734375 0.20068359375
vt 0.5654052734375 0.23876953125
vt 0.5527587890625 0.23876953125
vt 0.5527587890625 0.20068359375
vt 0.423291015625 0.455078125
vt 0.423291015625 0.4931640625
vt 0.41025390625 0.4931640625
vt 0.41025390625 0.455078125
vt 0.337890625 0.17578125
vt 0.337890625 0.2138671875
vt 0.330078125 0.2138671875
vt 0.330078125 0.17578125
vt 0.54482421875 0.787109375
vt 0.54482421875 0.8251953125
vt 0.531787109375 0.8251953125
vt 0.531787109375 0.787109375
vt 0.5810302734375 0.20068359375
vt 0.5810302734375 0.23876953125
vt 0.5683837890625 0.23876953125
vt 0.5683837890625 0.20068359375
vt 0.328125 0.2138671875
vt 0.328125 0.23291015625
vt 0.3203125 0.23291015625
vt 0.3203125 0.2138671875
vt 0.5654052734375 0.23876953125
vt 0.5654052734375 0.2578125
vt 0.5527587890625 0.2578125
vt 0.5527587890625 0.23876953125
vt 0.423291015625 0.4931640625
vt 0.423291015625 0.51220703125
vt 0.41025390625 0.51220703125
vt 0.41025390625 0.4931640625
vt 0.337890625 0.2138671875
vt 0.337890625 0.23291015625
vt 0.330078125 0.23291015625
vt 0.330078125 0.2138671875
vt 0.54482421875 0.8251953125
vt 0.54482421875 0.84423828125
vt 0.531787109375 0.84423828125
vt 0.531787109375 0.8251953125
vt 0.5810302734375 0.23876953125
vt 0.5810302734375 0.2578125
vt 0.5683837890625 0.2578125
vt 0.5683837890625 0.23876953125
vt 0.759765625 0.20556640625
vt 0.759765625 0.224609375
vt 0.751953125 0.224609375
vt 0.751953125 0.20556640625
vt 0.751953125 0.20556640625
vt 0.751953125 0.16748046875
vt 0.759765625 0.16748046875
vt 0.759765625 0.20556640625
vt 0.851513671875 0.8515625
vt 0.851513671875 0.859375
vt 0.8388671875 0.859375
vt 0.826220703125 0.859375
vt 0.826220703125 0.859375
vt 0.826220703125 0.8515625
vt 0.8388671875 0.8515625
vt 0.851513671875 0.8515625
vt 0 0.16552734375
vt 0.0078125 0.16552734375
vt 0.0078125 0.20361328125
vt 0.0078125 0.22265625
vt 0.0078125 0.22265625
vt 0 0.22265625
vt 0 0.20361328125
vt 0 0.16552734375
vt 0.455078125 0.728515625
vt 0.462890625 0.728515625
vt 0.462890625 0.744140625
vt 0.455078125 0.744140625
vt 0.5957275390625 0.671875
vt 0.6083740234375 0.671875
vt 0.6079833984375 0.6875
vt 0.5957275390625 0.6875
vt 0.506884765625 0.82802734375
vt 0.51953125 0.82802734375
vt 0.51953125 0.84423828125
vt 0.506884765625 0.84423828125
vt 0.455078125 0.7890625
vt 0.462890625 0.7890625
vt 0.462890625 0.8046875
vt 0.455078125 0.8046875
vt 0.435546875 0.49599609375
vt 0.448193359375 0.49599609375
vt 0.448193359375 0.51220703125
vt 0.435546875 0.51220703125
vt 0.71875 0.177734375
vt 0.73046875 0.177734375
vt 0.73046875 0.193359375
vt 0.719140625 0.193359375
vn 1 0 0
vn -1 0 0
vn 0 1 0
vn 0 -1 0
vn 0 0 1
vn 0 0 -1
vn 0 1 0
vn 0 0 1
vn 0 0 -1
vn 0 1 0
vn 0 0 1
vn 0 -1 0
vn 0 0 -1
vn 0 1 0
vn 0 0 1
vn 0 0 -1
vn 1 0 0
vn 0 0 1
vn 0 0 1
vn -1 0 0
vn 0 0 -1
vn 0 0 -1
vn 1 0 0
vn 0 0 1
vn 0 0 1
vn -1 0 0
vn 0 0 -1
vn 0 0 -1
vn 1 0 0
vn 1 0 0
vn 0 -1 0
vn 0 -1 0
vn -1 0 0
vn -1 0 0
vn -0.9997098084674825 0.024089392975120392 0
vn 0 0 -1
vn 0 0 -1
vn 1 0 0
vn 0 0 1
vn 0 0 1
usemtl m_84dc8360-09d6-6b9e-21cc-d3be8738d612
f 1/1/1 28/2/1 27/3/1 2/4/1
f 6/5/2 33/6/2 32/7/2 5/8/2
f 5/9/3 16/10/3 15/11/3 6/12/3
f 8/13/4 18/14/4 17/15/4 7/16/4
f 5/17/5 32/18/5 31/19/5 16/20/5
f 15/21/6 34/22/6 33/23/6 6/24/6
f 10/25/7 12/26/7 11/27/7 9/28/7
f 10/29/8 30/30/8 29/31/8 12/32/8
f 11/33/9 36/34/9 35/35/9 9/36/9
f 2/37/10 11/38/10 12/39/10 1/40/10
f 12/41/11 29/42/11 28/43/11 1/44/11
f 3/45/12 13/46/12 14/47/12 4/48/12
f 2/49/13 27/50/13 36/51/13 11/52/13
f 9/53/14 15/54/14 16/55/14 10/56/14
f 16/57/15 31/58/15 30/59/15 10/60/15
f 9/61/16 35/62/16 34/63/16 15/64/16
f 4/65/17 19/66/17 20/67/17 3/68/17
f 3/69/18 20/70/18 21/71/18 13/72/18
f 17/73/19 22/74/19 23/75/19 7/76/19
f 7/77/20 23/78/20 24/79/20 8/80/20
f 8/81/21 24/82/21 25/83/21 18/84/21
f 14/85/22 26/86/22 19/87/22 4/88/22
f 19/89/23 27/90/23 28/91/23 20/92/23
f 20/93/24 28/94/24 29/95/24 21/96/24
f 22/97/25 31/98/25 32/99/25 23/100/25
f 23/101/26 32/102/26 33/103/26 24/104/26
f 24/105/27 33/106/27 34/107/27 25/108/27
f 26/109/28 36/110/28 27/111/28 19/112/28
f 25/113/29 34/114/29 31/115/29 22/116/29
f 22/117/30 17/118/30 18/119/30 25/120/30
f 40/121/31 41/122/31 42/123/31 37/124/31
f 37/125/32 38/126/32 39/127/32 40/128/32
f 14/129/33 13/130/33 21/131/33 29/132/33
f 29/133/34 36/134/34 26/135/34 14/136/34
f 38/137/35 37/138/35 31/139/35 34/140/35
f 39/141/36 38/142/36 34/143/36 35/144/36
f 40/145/37 39/146/37 35/147/37 36/148/37
f 41/149/38 40/150/38 36/151/38 29/152/38
f 42/153/39 41/154/39 29/155/39 30/156/39
f 37/157/40 42/158/40 30/159/40 31/160/40