# Blender v3.4.1 OBJ File: 'floor_stairs.blend'
# www.blender.org
mtllib Stairs.mtl
o Cube.003_Cube.004
v -11.339353 6.854671 -10.371881
v -11.339353 7.736371 -9.434381
v -11.339353 5.979671 -11.434381
v -11.339353 7.736371 -11.434381
v 0.004458 6.854671 -10.371881
v 0.004458 7.736371 -9.434381
v 0.004458 5.979671 -11.434381
v 0.004458 7.736371 -11.434381
v -11.339353 11.818125 -4.676749
v -11.339353 12.699823 -3.739249
v -11.339353 10.943125 -5.739249
v -11.339353 12.699823 -5.739249
v 0.004458 11.818125 -4.676749
v 0.004458 12.699823 -3.739249
v 0.004458 10.943125 -5.739249
v 0.004458 12.699823 -5.739249
v -11.339353 10.148407 -6.588618
v -11.339353 11.030106 -5.651118
v -11.339353 9.273407 -7.651118
v -11.339353 11.030106 -7.651118
v 0.004458 10.148407 -6.588618
v 0.004458 11.030106 -5.651118
v 0.004458 9.273407 -7.651118
v 0.004458 11.030106 -7.651118
v -11.339353 8.524389 -8.460011
v -11.339353 9.406089 -7.522511
v -11.339353 7.649390 -9.522511
v -11.339353 9.406089 -9.522511
v 0.004458 8.524389 -8.460011
v 0.004458 9.406089 -7.522511
v 0.004458 7.649390 -9.522511
v 0.004458 9.406089 -9.522511
v -11.339353 1.957826 -16.008705
v -11.339353 2.839525 -15.071204
v -11.339353 1.082826 -17.071205
v -11.339353 2.839525 -17.071205
v 0.004458 1.957826 -16.008705
v 0.004458 2.839525 -15.071204
v 0.004458 1.082826 -17.071205
v 0.004458 2.839525 -17.071205
v -11.339353 0.288107 -17.920574
v -11.339353 1.169806 -16.983074
v -11.339353 -0.586893 -18.983074
v -11.339353 1.169806 -18.983074
v 0.004458 0.288107 -17.920574
v 0.004458 1.169806 -16.983074
v 0.004458 -0.586893 -18.983074
v 0.004458 1.169806 -18.983074
v -11.339353 3.581843 -14.137311
v -11.339353 4.463542 -13.199811
v -11.339353 2.706843 -15.199811
v -11.339353 4.463542 -15.199811
v 0.004458 3.581843 -14.137311
v 0.004458 4.463542 -13.199811
v 0.004458 2.706843 -15.199811
v 0.004458 4.463542 -15.199811
v -11.339353 5.251561 -12.225442
v -11.339353 6.133260 -11.287942
v -11.339353 4.376561 -13.287942
v -11.339353 6.133260 -13.287942
v 0.004458 5.251561 -12.225442
v 0.004458 6.133260 -11.287942
v 0.004458 4.376561 -13.287942
v 0.004458 6.133260 -13.287942
v -11.339353 5.792022 -11.269191
v -11.339353 6.667022 -10.206691
v -11.339353 7.548721 -9.269191
v 0.004458 5.792022 -11.269191
v 0.004458 6.667022 -10.206691
v 0.004458 7.548721 -9.269191
v -11.339353 10.755475 -5.574059
v -11.339353 11.630475 -4.511559
v -11.339353 12.512175 -3.574059
v 0.004458 10.755475 -5.574059
v 0.004458 11.630475 -4.511559
v 0.004458 12.512175 -3.574059
v -11.339353 9.085757 -7.485929
v -11.339353 9.960757 -6.423429
v -11.339353 10.842457 -5.485929
v 0.004458 9.085757 -7.485929
v 0.004458 9.960757 -6.423429
v 0.004458 10.842457 -5.485929
v -11.339353 7.461740 -9.357322
v -11.339353 8.336740 -8.294822
v -11.339353 9.218439 -7.357322
v 0.004458 7.461740 -9.357322
v 0.004458 8.336740 -8.294822
v 0.004458 9.218439 -7.357322
v -11.339353 0.895176 -16.906013
v -11.339353 1.770176 -15.843514
v -11.339353 2.651875 -14.906014
v 0.004458 0.895176 -16.906013
v 0.004458 1.770176 -15.843514
v 0.004458 2.651875 -14.906014
v -11.339353 -0.774543 -18.817883
v -11.339353 0.100457 -17.755383
v -11.339353 0.982156 -16.817883
v 0.004458 -0.774543 -18.817883
v 0.004458 0.100457 -17.755383
v 0.004458 0.982156 -16.817883
v -11.339353 2.519193 -15.034621
v -11.339353 3.394193 -13.972121
v -11.339353 4.275892 -13.034621
v 0.004458 2.519193 -15.034621
v 0.004458 3.394193 -13.972121
v 0.004458 4.275892 -13.034621
v -11.339353 4.188911 -13.122752
v -11.339353 5.063911 -12.060252
v -11.339353 5.945611 -11.122752
v 0.004458 4.188911 -13.122752
v 0.004458 5.063911 -12.060252
v 0.004458 5.945611 -11.122752
vt 0.812500 0.914062
vt 0.843750 0.953125
vt 0.843750 0.875000
vt 0.773438 0.875000
vt 0.843750 0.437500
vt 0.773438 0.437500
vt 0.929688 0.437500
vt 0.992188 0.437500
vt 0.992188 0.515625
vt 0.960938 0.476562
vt 0.921875 0.953125
vt 0.882812 0.914062
vt 0.875000 0.921875
vt 0.914062 0.953125
vt 0.945312 0.000000
vt 0.945312 0.437500
vt 0.945312 0.437500
vt 0.945312 0.000000
vt 0.390625 0.000000
vt 0.390625 0.437500
vt 0.312500 0.437500
vt 0.312500 0.000000
vt 0.953125 0.648438
vt 0.921875 0.609375
vt 0.921875 0.687500
vt 0.984375 0.687500
vt 0.867188 0.437500
vt 0.929688 0.437500
vt 0.929688 0.000000
vt 0.867188 0.000000
vt 0.984375 0.773438
vt 0.921875 0.773438
vt 0.921875 0.695312
vt 0.953125 0.734375
vt 0.851562 0.875000
vt 0.843750 0.882812
vt 0.468750 0.875000
vt 0.500000 0.914062
vt 0.492188 0.921875
vt 0.460938 0.882812
vt 0.859375 0.000000
vt 0.859375 0.437500
vt 0.781250 0.437500
vt 0.781250 0.000000
vt 0.921875 0.875000
vt 0.703125 0.875000
vt 0.765625 0.875000
vt 0.765625 0.437500
vt 0.703125 0.437500
vt 0.929688 0.523438
vt 0.992188 0.523438
vt 0.992188 0.601562
vt 0.960938 0.562500
vt 0.476562 0.875000
vt 0.476562 0.437500
vt 0.468750 0.437500
vt 0.468750 0.875000
vt 0.234375 0.882812
vt 0.265625 0.914062
vt 0.273438 0.906250
vt 0.242188 0.875000
vt 0.781250 0.000000
vt 0.781250 0.437500
vt 0.703125 0.437500
vt 0.703125 0.000000
vt 0.234375 0.953125
vt 0.304688 0.953125
vt 0.398438 0.875000
vt 0.460938 0.875000
vt 0.460938 0.437500
vt 0.398438 0.437500
vt 0.226562 0.953125
vt 0.156250 0.953125
vt 0.156250 0.882812
vt 0.187500 0.914062
vt 0.968750 0.000000
vt 0.968750 0.437500
vt 0.960938 0.437500
vt 0.960938 0.000000
vt 0.312500 0.953125
vt 0.312500 0.437500
vt 0.312500 0.875000
vt 0.234375 0.875000
vt 0.234375 0.437500
vt 0.726562 0.914062
vt 0.695312 0.882812
vt 0.695312 0.953125
vt 0.757812 0.953125
vt 0.625000 0.875000
vt 0.695312 0.875000
vt 0.695312 0.437500
vt 0.625000 0.437500
vt 0.601562 0.953125
vt 0.539062 0.953125
vt 0.539062 0.882812
vt 0.570312 0.914062
vt 0.984375 0.523438
vt 0.953125 0.484375
vt 0.546875 0.875000
vt 0.546875 0.437500
vt 0.539062 0.437500
vt 0.539062 0.875000
vt 0.234375 0.437500
vt 0.234375 0.875000
vt 0.156250 0.875000
vt 0.156250 0.437500
vt 0.039062 0.914062
vt 0.078125 0.953125
vt 0.078125 0.875000
vt 0.007812 0.875000
vt 0.539062 0.875000
vt 0.539062 0.437500
vt 0.085938 0.875000
vt 0.148438 0.875000
vt 0.148438 0.953125
vt 0.117188 0.914062
vt 0.734375 0.906250
vt 0.703125 0.875000
vt 1.000000 0.000000
vt 1.000000 0.437500
vt 0.992188 0.437500
vt 0.992188 0.000000
vt 0.234375 0.000000
vt 0.234375 0.437500
vt 0.156250 0.437500
vt 0.156250 0.000000
vt 0.343750 0.914062
vt 0.312500 0.882812
vt 0.312500 0.953125
vt 0.375000 0.953125
vt 0.617188 0.875000
vt 0.617188 0.437500
vt 0.453125 0.953125
vt 0.382812 0.953125
vt 0.382812 0.882812
vt 0.421875 0.914062
vt 0.765625 0.953125
vt 0.929688 0.687500
vt 0.960938 0.726562
vt 0.312500 0.000000
vt 0.312500 0.437500
vt 0.234375 0.437500
vt 0.234375 0.000000
vt 0.656250 0.914062
vt 0.695312 0.953125
vt 0.695312 0.875000
vt 0.625000 0.875000
vt 0.851562 0.875000
vt 0.921875 0.875000
vt 0.921875 0.437500
vt 0.851562 0.437500
vt 0.539062 0.875000
vt 0.539062 0.953125
vt 0.843750 0.437500
vt 0.843750 0.875000
vt 0.031250 0.921875
vt 0.070312 0.953125
vt 0.468750 0.000000
vt 0.468750 0.437500
vt 0.390625 0.437500
vt 0.390625 0.000000
vt 0.351562 0.437500
vt 0.312500 0.437500
vt 0.312500 0.875000
vt 0.351562 0.875000
vt 0.390625 0.875000
vt 0.390625 0.437500
vt 0.507812 0.000000
vt 0.468750 0.000000
vt 0.468750 0.437500
vt 0.507812 0.437500
vt 0.546875 0.437500
vt 0.546875 0.000000
vt 0.578125 0.000000
vt 0.546875 0.000000
vt 0.546875 0.437500
vt 0.578125 0.437500
vt 0.625000 0.437500
vt 0.625000 0.000000
vt 0.656250 0.000000
vt 0.625000 0.000000
vt 0.625000 0.437500
vt 0.656250 0.437500
vt 0.703125 0.437500
vt 0.703125 0.000000
vt 0.117188 0.000000
vt 0.078125 0.000000
vt 0.078125 0.437500
vt 0.117188 0.437500
vt 0.156250 0.437500
vt 0.156250 0.000000
vt 0.039062 0.000000
vt 0.000000 0.000000
vt 0.000000 0.437500
vt 0.039062 0.437500
vt 0.078125 0.437500
vt 0.078125 0.000000
vt 0.039062 0.437500
vt 0.000000 0.437500
vt 0.000000 0.875000
vt 0.039062 0.875000
vt 0.078125 0.875000
vt 0.078125 0.437500
vt 0.117188 0.437500
vt 0.078125 0.437500
vt 0.078125 0.875000
vt 0.117188 0.875000
vt 0.156250 0.875000
vt 0.156250 0.437500
vt 0.617188 0.437500
vt 0.617188 0.875000
vt 0.429688 0.906250
vt 0.460938 0.953125
vt 0.992188 0.679688
vt 0.960938 0.640625
vt 0.531250 0.953125
vt 0.929688 0.601562
vt 0.390625 0.437500
vt 0.390625 0.875000
vt 0.109375 0.921875
vt 0.078125 0.882812
vt 0.765625 0.882812
vt 0.804688 0.921875
vt 0.390625 0.875000
vt 0.835938 0.953125
vt 0.960938 0.000000
vt 0.960938 0.437500
vt 0.953125 0.437500
vt 0.953125 0.000000
vt 0.695312 0.437500
vt 0.695312 0.875000
vt 0.578125 0.906250
vt 0.609375 0.953125
vt 0.140625 0.953125
vt 0.992188 0.000000
vt 0.992188 0.437500
vt 0.984375 0.437500
vt 0.984375 0.000000
vt 0.859375 0.000000
vt 0.859375 0.437500
vt 0.195312 0.906250
vt 0.234375 0.953125
vt 0.546875 0.875000
vt 0.617188 0.882812
vt 0.648438 0.921875
vt 0.937500 0.000000
vt 0.937500 0.437500
vt 0.929688 0.437500
vt 0.929688 0.000000
vt 0.765625 0.437500
vt 0.765625 0.875000
vt 0.953125 0.570312
vt 0.921875 0.531250
vt 0.687500 0.953125
vt 0.164062 0.875000
vt 0.382812 0.953125
vt 0.351562 0.906250
vt 0.984375 0.000000
vt 0.984375 0.437500
vt 0.976562 0.437500
vt 0.976562 0.000000
vt 0.992188 0.765625
vt 0.320312 0.875000
vt 0.984375 0.601562
vt 0.000000 0.882812
vt 0.976562 0.000000
vt 0.976562 0.437500
vt 0.968750 0.437500
vt 0.968750 0.000000
vt 0.921875 0.445312
vn -1.0000 0.0000 0.0000
vn 0.0000 0.0000 -1.0000
vn 1.0000 0.0000 0.0000
vn 0.0000 0.6608 0.7506
vn 0.0000 1.0000 0.0000
vn 0.0000 -0.6608 -0.7506
vn 0.0000 -0.7285 0.6851
vn 0.0000 -0.7719 0.6357
usemtl Material.004
s off
f 1/1/1 2/2/1 4/3/1 3/4/1
f 3/4/2 4/3/2 8/5/2 7/6/2
f 7/7/3 8/8/3 6/9/3 5/10/3
f 18/11/1 17/12/1 78/13/1 79/14/1
f 6/15/4 2/16/4 67/17/4 70/18/4
f 8/19/5 4/20/5 2/21/5 6/22/5
f 9/23/1 10/24/1 12/25/1 11/26/1
f 11/27/2 12/28/2 16/29/2 15/30/2
f 15/31/3 16/32/3 14/33/3 13/34/3
f 17/12/1 19/35/1 77/36/1 78/13/1
f 63/37/3 61/38/3 111/39/3 110/40/3
f 16/41/5 12/42/5 10/43/5 14/44/5
f 17/12/1 18/11/1 20/45/1 19/35/1
f 19/46/2 20/47/2 24/48/2 23/49/2
f 23/50/3 24/51/3 22/52/3 21/53/3
f 43/54/6 47/55/6 98/56/6 95/57/6
f 26/58/1 25/59/1 84/60/1 85/61/1
f 24/62/5 20/63/5 18/64/5 22/65/5
f 25/59/1 26/58/1 28/66/1 27/67/1
f 27/68/2 28/69/2 32/70/2 31/71/2
f 31/72/3 32/73/3 30/74/3 29/75/3
f 14/76/4 10/77/4 73/78/4 76/79/4
f 25/59/1 27/67/1 83/80/1 84/60/1
f 32/81/5 28/82/5 26/83/5 30/84/5
f 33/85/1 34/86/1 36/87/1 35/88/1
f 35/89/2 36/90/2 40/91/2 39/92/2
f 39/93/3 40/94/3 38/95/3 37/96/3
f 5/10/3 6/9/3 70/97/3 69/98/3
f 51/99/6 55/100/6 104/101/6 101/102/6
f 40/103/5 36/104/5 34/105/5 38/106/5
f 41/107/1 42/108/1 44/109/1 43/110/1
f 43/54/2 44/111/2 48/112/2 47/55/2
f 47/113/3 48/114/3 46/115/3 45/116/3
f 34/86/1 33/85/1 90/117/1 91/118/1
f 22/119/4 18/120/4 79/121/4 82/122/4
f 48/123/5 44/124/5 42/125/5 46/126/5
f 49/127/1 50/128/1 52/129/1 51/130/1
f 51/99/2 52/131/2 56/132/2 55/100/2
f 55/133/3 56/134/3 54/135/3 53/136/3
f 33/85/1 35/88/1 89/137/1 90/117/1
f 13/34/3 14/33/3 76/138/3 75/139/3
f 56/140/5 52/141/5 50/142/5 54/143/5
f 57/144/1 58/145/1 60/146/1 59/147/1
f 59/148/2 60/149/2 64/150/2 63/151/2
f 63/37/3 64/152/3 62/153/3 61/38/3
f 59/148/6 63/151/6 110/154/6 107/155/6
f 42/108/1 41/107/1 96/156/1 97/157/1
f 64/158/5 60/159/5 58/160/5 62/161/5
f 69/162/7 70/163/7 67/164/7 66/165/7
f 65/166/8 68/167/8 69/162/8 66/165/8
f 75/168/7 76/169/7 73/170/7 72/171/7
f 71/172/8 74/173/8 75/168/8 72/171/8
f 81/174/7 82/175/7 79/176/7 78/177/7
f 77/178/8 80/179/8 81/174/8 78/177/8
f 87/180/7 88/181/7 85/182/7 84/183/7
f 83/184/8 86/185/8 87/180/8 84/183/8
f 93/186/7 94/187/7 91/188/7 90/189/7
f 89/190/8 92/191/8 93/186/8 90/189/8
f 99/192/7 100/193/7 97/194/7 96/195/7
f 95/196/8 98/197/8 99/192/8 96/195/8
f 105/198/7 106/199/7 103/200/7 102/201/7
f 101/202/8 104/203/8 105/198/8 102/201/8
f 111/204/7 112/205/7 109/206/7 108/207/7
f 107/208/8 110/209/8 111/204/8 108/207/8
f 35/89/6 39/92/6 92/210/6 89/211/6
f 55/133/3 53/136/3 105/212/3 104/213/3
f 9/23/1 11/26/1 71/214/1 72/215/1
f 61/38/3 62/153/3 112/216/3 111/39/3
f 10/24/1 9/23/1 72/215/1 73/217/1
f 27/68/6 31/71/6 86/218/6 83/219/6
f 47/113/3 45/116/3 99/220/3 98/221/3
f 1/1/1 3/4/1 65/222/1 66/223/1
f 53/136/3 54/135/3 106/224/3 105/212/3
f 2/2/1 1/1/1 66/223/1 67/225/1
f 62/226/4 58/227/4 109/228/4 112/229/4
f 19/46/6 23/49/6 80/230/6 77/231/6
f 39/93/3 37/96/3 93/232/3 92/233/3
f 45/116/3 46/115/3 100/234/3 99/220/3
f 54/235/4 50/236/4 103/237/4 106/238/4
f 11/27/6 15/30/6 74/239/6 71/240/6
f 31/72/3 29/75/3 87/241/3 86/242/3
f 37/96/3 38/95/3 94/243/3 93/232/3
f 57/144/1 59/147/1 107/244/1 108/245/1
f 46/246/4 42/247/4 97/248/4 100/249/4
f 3/4/6 7/6/6 68/250/6 65/251/6
f 23/50/3 21/53/3 81/252/3 80/253/3
f 58/145/1 57/144/1 108/245/1 109/254/1
f 29/75/3 30/74/3 88/255/3 87/241/3
f 49/127/1 51/130/1 101/256/1 102/257/1
f 38/258/4 34/259/4 91/260/4 94/261/4
f 15/31/3 13/34/3 75/139/3 74/262/3
f 50/128/1 49/127/1 102/257/1 103/263/1
f 21/53/3 22/52/3 82/264/3 81/252/3
f 41/107/1 43/110/1 95/265/1 96/156/1
f 30/266/4 26/267/4 85/268/4 88/269/4
f 7/7/3 5/10/3 69/98/3 68/270/3
