# Blender v3.1.2 OBJ File: 'TV.blend'
# www.blender.org
mtllib TV.mtl
o Cube_Cube.011
v -1.117324 -0.963233 1.340789
v -1.117324 2.165276 1.340789
v -1.117324 -0.963233 -3.575439
v -1.117324 2.165276 -3.575439
v -0.898946 -0.963233 1.340789
v -0.898946 2.165276 1.340789
v -0.898946 -0.963233 -3.575439
v -0.898946 2.165276 -3.575439
v -1.117324 -0.963233 1.113712
v -1.117324 2.165276 1.113712
v -0.898946 -0.963233 1.113712
v -0.898946 2.165276 1.113712
v -1.117324 2.165276 -3.354038
v -0.898946 -0.963233 -3.354038
v -1.117324 -0.963233 -3.354038
v -0.898946 2.165276 -3.354038
v -1.117324 1.943436 1.340789
v -1.117324 1.943436 -3.575439
v -0.898946 1.943436 -3.575439
v -0.898946 1.943436 1.340789
v -0.898946 1.943436 1.113712
v -1.340789 1.943436 1.113712
v -0.898946 1.943436 -3.354038
v -1.340789 1.943436 -3.354038
v -1.117324 -0.741827 -3.575439
v -0.898946 -0.741827 -3.575439
v -0.898946 -0.741827 1.340789
v -0.898946 -0.741827 1.113712
v -1.340789 -0.741827 1.113712
v -0.898946 -0.741827 -3.354038
v -1.340789 -0.741827 -3.354038
v -1.117324 -0.741827 1.340789
v -0.898946 1.943436 -3.354038
v -0.898946 1.943436 1.113712
v -0.898946 -0.741827 1.113712
v -0.898946 -0.741827 -3.354038
v -0.989776 1.943436 -3.354038
v -0.989776 1.943436 1.113712
v -0.989776 -0.741827 1.113712
v -0.989776 -0.741827 -3.354038
vt 0.375000 0.520833
vt 0.375000 0.500000
vt 0.354167 0.500000
vt 0.354167 0.520833
vt 0.781250 0.500000
vt 0.781250 0.479167
vt 0.760417 0.479167
vt 0.760417 0.500000
vt 0.312500 0.500000
vt 0.333333 0.500000
vt 0.333333 0.520833
vt 0.312500 0.520833
vt 0.812500 0.500000
vt 0.812500 0.479167
vt 0.833333 0.479167
vt 0.833333 0.500000
vt 0.687500 0.979167
vt 0.666667 0.979167
vt 0.666667 1.000000
vt 0.687500 1.000000
vt 0.718750 0.979167
vt 0.739583 0.979167
vt 0.739583 1.000000
vt 0.718750 1.000000
vt 0.718750 0.500000
vt 0.739583 0.500000
vt 0.687500 0.500000
vt 0.666667 0.500000
vt 0.312500 0.020833
vt 0.333333 0.020833
vt 0.645833 0.500000
vt 0.666667 0.500000
vt 0.666667 0.479167
vt 0.645833 0.479167
vt 0.312500 0.000000
vt 0.333333 0.000000
vt 0.687500 0.479167
vt 0.666667 0.479167
vt 0.718750 0.479167
vt 0.739583 0.479167
vt 0.572917 0.979167
vt 0.541667 0.979167
vt 0.541667 0.500000
vt 0.572917 0.500000
vt 0.354167 0.479167
vt 0.645833 0.000000
vt 0.354167 0.000000
vt 0.020833 0.000000
vt 0.020833 0.020833
vt 0.010417 0.656250
vt 0.302083 0.656250
vt 0.302083 0.625000
vt 0.010417 0.625000
vt 0.833333 0.479167
vt 0.833333 0.479167
vt 0.833333 0.479167
vt 0.833333 0.479167
vt 0.812500 0.781250
vt 0.833333 0.781250
vt 0.020833 0.500000
vt 0.020833 0.520833
vt 0.781250 0.781250
vt 0.760417 0.781250
vt 0.812500 0.781250
vt 0.812500 0.500000
vt 0.406250 0.520833
vt 0.406250 0.500000
vt 0.375000 0.500000
vt 0.375000 0.520833
vt 0.781250 0.812500
vt 0.760417 0.812500
vt 0.000000 0.500000
vt 0.000000 0.520833
vt 0.812500 0.812500
vt 0.833333 0.812500
vt 0.000000 0.020833
vt 0.333333 0.500000
vt 0.354167 0.500000
vt 0.333333 0.479167
vt 0.000000 0.000000
vt 0.718750 0.979167
vt 0.718750 0.500000
vt 0.833333 0.947917
vt 0.843750 0.947917
vt 0.843750 0.479167
vt 0.833333 0.947917
vt 0.833333 0.947917
vt 0.833333 0.947917
vt 0.666667 0.000000
vt 0.958333 0.000000
vt 0.958333 0.479167
vt 0.666667 0.479167
vt 0.843750 0.479167
vt 0.843750 0.947917
vt 0.333333 0.500000
vt 0.333333 0.781250
vt 0.343750 0.781250
vt 0.343750 0.500000
vt 0.343750 0.781250
vt 0.343750 0.500000
vt 0.354167 0.500000
vt 0.354167 0.781250
vn -0.8142 0.4101 -0.4109
vn 0.0000 0.0000 -1.0000
vn 1.0000 0.0000 0.0000
vn 0.0000 0.0000 1.0000
vn 0.0000 -1.0000 0.0000
vn 0.0000 1.0000 0.0000
vn -0.8176 0.4118 0.4023
vn -0.7045 0.7097 0.0000
vn -1.0000 0.0000 0.0000
vn -0.7128 0.0000 0.7014
vn -0.7038 0.0000 -0.7104
vn -0.8140 -0.4108 -0.4108
vn -0.8174 -0.4125 0.4022
vn -0.7038 -0.7104 0.0000
usemtl Material.001
s off
f 24/1/1 13/2/1 4/3/1 18/4/1
f 18/5/2 4/6/2 8/7/2 19/8/2
f 21/9/3 12/10/3 6/11/3 20/12/3
f 20/13/4 6/14/4 2/15/4 17/16/4
f 9/17/5 11/18/5 5/19/5 1/20/5
f 12/21/6 10/22/6 2/23/6 6/24/6
f 16/25/6 13/26/6 10/22/6 12/21/6
f 15/27/5 14/28/5 11/18/5 9/17/5
f 23/29/3 16/30/3 12/10/3 21/9/3
f 17/31/7 2/32/7 10/33/7 22/34/7
f 19/35/3 8/36/3 16/30/3 23/29/3
f 3/37/5 7/38/5 14/28/5 15/27/5
f 8/39/6 4/40/6 13/26/6 16/25/6
f 22/41/8 10/42/8 13/43/8 24/44/8
f 29/45/9 22/34/9 24/46/9 31/47/9
f 26/48/3 19/35/3 23/29/3 30/49/3
f 32/50/10 17/51/10 22/52/10 29/53/10
f 30/54/4 23/55/4 33/56/4 36/57/4
f 27/58/4 20/13/4 17/16/4 32/59/4
f 28/60/3 21/9/3 20/12/3 27/61/3
f 25/62/2 18/5/2 19/8/2 26/63/2
f 31/64/11 24/65/11 18/5/11 25/62/11
f 15/66/12 31/67/12 25/68/12 3/69/12
f 3/70/2 25/62/2 26/63/2 7/71/2
f 11/72/3 28/60/3 27/61/3 5/73/3
f 5/74/4 27/58/4 32/59/4 1/75/4
f 14/76/3 30/49/3 28/60/3 11/72/3
f 1/77/13 32/78/13 29/45/13 9/79/13
f 7/80/3 26/48/3 30/49/3 14/76/3
f 9/17/14 29/81/14 31/82/14 15/27/14
f 33/56/5 34/83/5 38/84/5 37/85/5
f 21/86/4 28/87/4 35/88/4 34/83/4
f 28/87/4 30/54/4 36/57/4 35/88/4
f 23/55/4 21/86/4 34/83/4 33/56/4
f 40/89/3 37/90/3 38/91/3 39/92/3
f 35/88/6 36/57/6 40/93/6 39/94/6
f 34/95/2 35/96/2 39/97/2 38/98/2
f 36/99/4 33/100/4 37/101/4 40/102/4
