# Made in Blockbench 4.7.2
mtllib Wal_Window.mtl

o cube
v 1.5 2.4375 0.31874999999999964
v 1.5 2.4375 0.056250000000000355
v 1.5 0 0.31874999999999964
v 1.5 0 0.056250000000000355
v -1.625 2.4375 0.31874999999999964
v -1.625 2.4375 0.056250000000000355
v -1.625 0 0.31874999999999964
v -1.625 0 0.056250000000000355
v -0.0625 2.4375 0.056250000000000355
v -0.0625 2.4375 0.31874999999999964
v -0.0625 0 0.31874999999999964
v -0.0625 0 0.056250000000000355
v 0.71875 2.4375 0.056250000000000355
v 0.71875 2.4375 0.31874999999999964
v 0.71875 0 0.31874999999999964
v 0.71875 0 0.056250000000000355
v -0.84375 2.4375 0.056250000000000355
v -0.84375 2.4375 0.31874999999999964
v -0.84375 0 0.31874999999999964
v -0.84375 0 0.056250000000000355
v 1.5 1.21875 0.056250000000000355
v 1.5 1.21875 0.31874999999999964
v 0.71875 1.21875 0.31874999999999964
v -0.84375 1.21875 0.31874999999999964
v -1.625 1.21875 0.31874999999999964
v -1.625 1.21875 0.056250000000000355
v -0.84375 1.21875 0.056250000000000355
v 0.71875 1.21875 0.056250000000000355
v 1.5 1.828125 0.056250000000000355
v 1.5 1.828125 0.31874999999999964
v 0.71875 1.828125 0.31874999999999964
v -0.0625 1.828125 0.31874999999999964
v -0.84375 1.828125 0.31874999999999964
v -1.625 1.828125 0.31874999999999964
v -1.625 1.828125 0.056250000000000355
v -0.84375 1.828125 0.056250000000000355
v -0.0625 1.828125 0.056250000000000355
v 0.71875 1.828125 0.056250000000000355
v 1.5 0.609375 0.056250000000000355
v 1.5 0.609375 0.31874999999999964
v 0.71875 0.609375 0.31874999999999964
v -0.0625 0.609375 0.31874999999999964
v -0.84375 0.609375 0.31874999999999964
v -1.625 0.609375 0.31874999999999964
v -1.625 0.609375 0.056250000000000355
v -0.84375 0.609375 0.056250000000000355
v -0.0625 0.609375 0.056250000000000355
v 0.71875 0.609375 0.056250000000000355
v 0.71875 0.671875 0.31874999999999964
v 0.71875 0.671875 0.056250000000000355
v -0.0625 0.671875 0.056250000000000355
v -0.84375 0.671875 0.056250000000000355
v -0.84375 0.671875 0.31874999999999964
v -0.0625 0.671875 0.31874999999999964
vt 0.046923828125 0.25390625
vt 0.046923828125 0.23486328125
vt 0.055126953125 0.23486328125
vt 0.055126953125 0.25390625
vt 0.058642578125 0.25390625
vt 0.058642578125 0.23486328125
vt 0.066845703125 0.23486328125
vt 0.066845703125 0.25390625
vt 0.119140625 0.259375
vt 0.1435546875 0.259375
vt 0.1435546875 0.267578125
vt 0.119140625 0.267578125
vt 0.732421875 0.71826171875
vt 0.7568359375 0.71826171875
vt 0.7568359375 0.72646484375
vt 0.732421875 0.72646484375
vt 0.39453125 0.765625
vt 0.39453125 0.74658203125
vt 0.4189453125 0.74658203125
vt 0.4189453125 0.765625
vt 0.4677734375 0.6875
vt 0.4677734375 0.66845703125
vt 0.4921875 0.66845703125
vt 0.4921875 0.6875
vt 0.16796875 0.259375
vt 0.1923828125 0.259375
vt 0.1923828125 0.267578125
vt 0.16796875 0.267578125
vt 0.443359375 0.765625
vt 0.443359375 0.74658203125
vt 0.4677734375 0.74658203125
vt 0.4677734375 0.765625
vt 0.78125 0.71826171875
vt 0.8056640625 0.71826171875
vt 0.8056640625 0.72646484375
vt 0.78125 0.72646484375
vt 0.4189453125 0.6875
vt 0.4189453125 0.66845703125
vt 0.443359375 0.66845703125
vt 0.443359375 0.6875
vt 0.216796875 0.267578125
vt 0.1923828125 0.267578125
vt 0.1923828125 0.259375
vt 0.216796875 0.259375
vt 0.4677734375 0.765625
vt 0.4677734375 0.74658203125
vt 0.4921875 0.74658203125
vt 0.4921875 0.765625
vt 0.830078125 0.72646484375
vt 0.8056640625 0.72646484375
vt 0.8056640625 0.71826171875
vt 0.830078125 0.71826171875
vt 0.39453125 0.6875
vt 0.39453125 0.66845703125
vt 0.4189453125 0.66845703125
vt 0.4189453125 0.6875
vt 0.16796875 0.267578125
vt 0.1435546875 0.267578125
vt 0.1435546875 0.259375
vt 0.16796875 0.259375
vt 0.4189453125 0.765625
vt 0.4189453125 0.74658203125
vt 0.443359375 0.74658203125
vt 0.443359375 0.765625
vt 0.78125 0.72646484375
vt 0.7568359375 0.72646484375
vt 0.7568359375 0.71826171875
vt 0.78125 0.71826171875
vt 0.443359375 0.6875
vt 0.443359375 0.66845703125
vt 0.4677734375 0.66845703125
vt 0.4677734375 0.6875
vt 0.046923828125 0.2158203125
vt 0.046923828125 0.19677734375
vt 0.055126953125 0.19677734375
vt 0.055126953125 0.2158203125
vt 0.4677734375 0.7275390625
vt 0.4677734375 0.70849609375
vt 0.4921875 0.70849609375
vt 0.4921875 0.7275390625
vt 0.39453125 0.7275390625
vt 0.39453125 0.70849609375
vt 0.4189453125 0.70849609375
vt 0.4189453125 0.7275390625
vt 0.058642578125 0.2158203125
vt 0.058642578125 0.19677734375
vt 0.066845703125 0.19677734375
vt 0.066845703125 0.2158203125
vt 0.4677734375 0.6494140625
vt 0.4677734375 0.63037109375
vt 0.4921875 0.63037109375
vt 0.4921875 0.6494140625
vt 0.39453125 0.6494140625
vt 0.39453125 0.63037109375
vt 0.4189453125 0.63037109375
vt 0.4189453125 0.6494140625
vt 0.055126953125 0.2158203125
vt 0.055126953125 0.23486328125
vt 0.046923828125 0.23486328125
vt 0.046923828125 0.2158203125
vt 0.4921875 0.7275390625
vt 0.4921875 0.74658203125
vt 0.4677734375 0.74658203125
vt 0.4677734375 0.7275390625
vt 0.4189453125 0.7275390625
vt 0.4189453125 0.74658203125
vt 0.39453125 0.74658203125
vt 0.39453125 0.7275390625
vt 0.066845703125 0.2158203125
vt 0.066845703125 0.23486328125
vt 0.058642578125 0.23486328125
vt 0.058642578125 0.2158203125
vt 0.4921875 0.6494140625
vt 0.4921875 0.66845703125
vt 0.4677734375 0.66845703125
vt 0.4677734375 0.6494140625
vt 0.4189453125 0.6494140625
vt 0.4189453125 0.66845703125
vt 0.39453125 0.66845703125
vt 0.39453125 0.6494140625
vt 0.055126953125 0.177734375
vt 0.055126953125 0.19677734375
vt 0.046923828125 0.19677734375
vt 0.046923828125 0.177734375
vt 0.4921875 0.689453125
vt 0.4921875 0.70849609375
vt 0.4677734375 0.70849609375
vt 0.4677734375 0.689453125
vt 0.4677734375 0.689453125
vt 0.4677734375 0.70849609375
vt 0.443359375 0.70849609375
vt 0.443359375 0.689453125
vt 0.443359375 0.689453125
vt 0.443359375 0.70849609375
vt 0.4189453125 0.70849609375
vt 0.4189453125 0.689453125
vt 0.4189453125 0.689453125
vt 0.4189453125 0.70849609375
vt 0.39453125 0.70849609375
vt 0.39453125 0.689453125
vt 0.066845703125 0.177734375
vt 0.066845703125 0.19677734375
vt 0.058642578125 0.19677734375
vt 0.058642578125 0.177734375
vt 0.4921875 0.611328125
vt 0.4921875 0.63037109375
vt 0.4677734375 0.63037109375
vt 0.4677734375 0.611328125
vt 0.4677734375 0.611328125
vt 0.4677734375 0.63037109375
vt 0.443359375 0.63037109375
vt 0.443359375 0.611328125
vt 0.443359375 0.611328125
vt 0.443359375 0.63037109375
vt 0.4189453125 0.63037109375
vt 0.4189453125 0.611328125
vt 0.4189453125 0.611328125
vt 0.4189453125 0.63037109375
vt 0.39453125 0.63037109375
vt 0.39453125 0.611328125
vt 0.78125 0.380859375
vt 0.78125 0.37265625
vt 0.8056640625 0.37265625
vt 0.830078125 0.37265625
vt 0.830078125 0.37265625
vt 0.830078125 0.380859375
vt 0.8056640625 0.380859375
vt 0.78125 0.380859375
vt 0.794970703125 0.17822265625
vt 0.794970703125 0.1591796875
vt 0.803173828125 0.1591796875
vt 0.803173828125 0.17822265625
vt 0.803173828125 0.17822265625
vt 0.803173828125 0.197265625
vt 0.794970703125 0.197265625
vt 0.794970703125 0.17822265625
vt 0.830078125 0.36083984375
vt 0.830078125 0.36904296875
vt 0.8056640625 0.36904296875
vt 0.78125 0.36904296875
vt 0.78125 0.36904296875
vt 0.78125 0.36083984375
vt 0.8056640625 0.36083984375
vt 0.830078125 0.36083984375
vt 0.125439453125 0.1953125
vt 0.117236328125 0.1953125
vt 0.117236328125 0.17626953125
vt 0.117236328125 0.1572265625
vt 0.117236328125 0.1572265625
vt 0.125439453125 0.1572265625
vt 0.125439453125 0.17626953125
vt 0.125439453125 0.1953125
vt 0.919921875 0.296875
vt 0.912109375 0.296875
vt 0.912109375 0.294921875
vt 0.919921875 0.294921875
vt 0.1416015625 0.146484375
vt 0.1171875 0.146484375
vt 0.1171875 0.14453125
vt 0.1416015625 0.14453125
vt 0.166015625 0.146484375
vt 0.1416015625 0.146484375
vt 0.1416015625 0.14453125
vt 0.166015625 0.14453125
vt 0.919921875 0.220703125
vt 0.912109375 0.220703125
vt 0.912109375 0.21875
vt 0.919921875 0.21875
vt 0.8779296875 0.859375
vt 0.853515625 0.859375
vt 0.853515625 0.857421875
vt 0.8779296875 0.857421875
vt 0.90234375 0.859375
vt 0.8779296875 0.859375
vt 0.8779296875 0.857421875
vt 0.90234375 0.857421875
vn 1 0 0
vn -1 0 0
vn 0 1 0
vn 0 -1 0
vn 0 0 1
vn 0 0 -1
vn 0 1 0
vn 0 0 1
vn 0 -1 0
vn 0 0 -1
vn 0 1 0
vn 0 0 1
vn 0 -1 0
vn 0 0 -1
vn 0 1 0
vn 0 0 1
vn 0 -1 0
vn 0 0 -1
vn 1 0 0
vn 0 0 1
vn 0 0 1
vn -1 0 0
vn 0 0 -1
vn 0 0 -1
vn 1 0 0
vn 0 0 1
vn 0 0 1
vn -1 0 0
vn 0 0 -1
vn 0 0 -1
vn 1 0 0
vn 0 0 1
vn 0 0 1
vn 0 0 1
vn 0 0 1
vn -1 0 0
vn 0 0 -1
vn 0 0 -1
vn 0 0 -1
vn 0 0 -1
vn 0 1 0
vn 0 1 0
vn -1 0 0
vn -1 0 0
vn 0 -1 0
vn 0 -1 0
vn 1 0 0
vn 1 0 0
vn 1 0 0
vn 0 0 -1
vn 0 0 -1
vn -1 0 0
vn 0 0 1
vn 0 0 1
usemtl m_f2baeee4-fb64-2c85-3b7f-acfd3bebe643
f 1/1/1 30/2/1 29/3/1 2/4/1
f 6/5/2 35/6/2 34/7/2 5/8/2
f 5/9/3 18/10/3 17/11/3 6/12/3
f 8/13/4 20/14/4 19/15/4 7/16/4
f 5/17/5 34/18/5 33/19/5 18/20/5
f 17/21/6 36/22/6 35/23/6 6/24/6
f 10/25/7 14/26/7 13/27/7 9/28/7
f 10/29/8 32/30/8 31/31/8 14/32/8
f 12/33/9 16/34/9 15/35/9 11/36/9
f 13/37/10 38/38/10 37/39/10 9/40/10
f 2/41/11 13/42/11 14/43/11 1/44/11
f 14/45/12 31/46/12 30/47/12 1/48/12
f 3/49/13 15/50/13 16/51/13 4/52/13
f 2/53/14 29/54/14 38/55/14 13/56/14
f 9/57/15 17/58/15 18/59/15 10/60/15
f 18/61/16 33/62/16 32/63/16 10/64/16
f 11/65/17 19/66/17 20/67/17 12/68/17
f 9/69/18 37/70/18 36/71/18 17/72/18
f 22/73/19 40/74/19 39/75/19 21/76/19
f 23/77/20 41/78/20 40/79/20 22/80/20
f 25/81/21 44/82/21 43/83/21 24/84/21
f 26/85/22 45/86/22 44/87/22 25/88/22
f 27/89/23 46/90/23 45/91/23 26/92/23
f 21/93/24 39/94/24 48/95/24 28/96/24
f 21/97/25 29/98/25 30/99/25 22/100/25
f 22/101/26 30/102/26 31/103/26 23/104/26
f 24/105/27 33/106/27 34/107/27 25/108/27
f 25/109/28 34/110/28 35/111/28 26/112/28
f 26/113/29 35/114/29 36/115/29 27/116/29
f 28/117/30 38/118/30 29/119/30 21/120/30
f 4/121/31 39/122/31 40/123/31 3/124/31
f 3/125/32 40/126/32 41/127/32 15/128/32
f 15/129/33 41/130/33 42/131/33 11/132/33
f 11/133/34 42/134/34 43/135/34 19/136/34
f 19/137/35 43/138/35 44/139/35 7/140/35
f 7/141/36 44/142/36 45/143/36 8/144/36
f 8/145/37 45/146/37 46/147/37 20/148/37
f 20/149/38 46/150/38 47/151/38 12/152/38
f 12/153/39 47/154/39 48/155/39 16/156/39
f 16/157/40 48/158/40 39/159/40 4/160/40
f 52/161/41 53/162/41 54/163/41 49/164/41
f 49/165/42 50/166/42 51/167/42 52/168/42
f 28/169/43 48/170/43 41/171/43 23/172/43
f 23/173/44 31/174/44 38/175/44 28/176/44
f 38/177/45 31/178/45 32/179/45 33/180/45
f 33/181/46 36/182/46 37/183/46 38/184/46
f 36/185/47 33/186/47 24/187/47 43/188/47
f 43/189/48 46/190/48 27/191/48 36/192/48
f 50/193/49 49/194/49 41/195/49 48/196/49
f 51/197/50 50/198/50 48/199/50 47/200/50
f 52/201/51 51/202/51 47/203/51 46/204/51
f 53/205/52 52/206/52 46/207/52 43/208/52
f 54/209/53 53/210/53 43/211/53 42/212/53
f 49/213/54 54/214/54 42/215/54 41/216/54