# Made in Blockbench 4.7.2
mtllib WallBlue.mtl

o cube
v 1.5625 2.4374999999999996 2.3125
v 1.5625 2.4374999999999996 2.0625
v 1.5625 0 2.3125
v 1.5625 0 2.0625
v -1.5625 2.4374999999999996 2.3125
v -1.5625 2.4374999999999996 2.0625
v -1.5625 0 2.3125
v -1.5625 0 2.0625
vt 0.34765625 0.251953125
vt 0.33984375 0.251953125
vt 0.33984375 0.17578125
vt 0.34765625 0.17578125
vt 0.357421875 0.17578125
vt 0.357421875 0.251953125
vt 0.349609375 0.251953125
vt 0.349609375 0.17578125
vt 0.734375 0.48828125
vt 0.83203125 0.48828125
vt 0.83203125 0.49609375
vt 0.734375 0.49609375
vt 0.83203125 0.478515625
vt 0.83203125 0.486328125
vt 0.734375 0.486328125
vt 0.734375 0.478515625
vt 0.392578125 0.767578125
vt 0.392578125 0.84375
vt 0.294921875 0.84375
vt 0.294921875 0.767578125
vt 0.392578125 0.765625
vt 0.294921875 0.765625
vt 0.294921875 0.689453125
vt 0.392578125 0.689453125
vn 1 0 0
vn -1 0 0
vn 0 1 0
vn 0 -1 0
vn 0 0 1
vn 0 0 -1
usemtl m_84dc8360-09d6-6b9e-21cc-d3be8738d612
f 2/1/1 1/2/1 3/3/1 4/4/1
f 7/5/2 5/6/2 6/7/2 8/8/2
f 5/9/3 1/10/3 2/11/3 6/12/3
f 4/13/4 3/14/4 7/15/4 8/16/4
f 3/17/5 1/18/5 5/19/5 7/20/5
f 6/21/6 2/22/6 4/23/6 8/24/6